<svg xmlns="http://www.w3.org/2000/svg" xmlns:xlink="http://www.w3.org/1999/xlink" viewBox="0 0 7.28 12.08"><defs><style>.cls-1{mask:url(#mask);filter:url(#luminosity-noclip-11);}.cls-10,.cls-12,.cls-14,.cls-16,.cls-18,.cls-2,.cls-20,.cls-23,.cls-4,.cls-6,.cls-8{mix-blend-mode:multiply;}.cls-2{fill:url(#linear-gradient);}.cls-3{mask:url(#mask-2);}.cls-4{fill:url(#linear-gradient-2);}.cls-5{mask:url(#mask-3);}.cls-6{fill:url(#linear-gradient-3);}.cls-7{mask:url(#mask-4);}.cls-8{fill:url(#linear-gradient-4);}.cls-9{mask:url(#mask-5);}.cls-10{fill:url(#linear-gradient-5);}.cls-11{mask:url(#mask-6);}.cls-12{fill:url(#linear-gradient-6);}.cls-13{mask:url(#mask-7);filter:url(#luminosity-noclip-12);}.cls-14{fill:url(#radial-gradient);}.cls-15{mask:url(#mask-8);filter:url(#luminosity-noclip-13);}.cls-16{fill:url(#linear-gradient-7);}.cls-17{mask:url(#mask-9);filter:url(#luminosity-noclip-14);}.cls-18{fill:url(#linear-gradient-8);}.cls-19{mask:url(#mask-10);filter:url(#luminosity-noclip-15);}.cls-20{fill:url(#linear-gradient-9);}.cls-21{isolation:isolate;}.cls-22{fill:url(#linear-gradient-10);}.cls-23,.cls-27,.cls-30,.cls-33,.cls-37,.cls-39,.cls-42,.cls-44,.cls-46,.cls-50,.cls-52{opacity:0.5;}.cls-24{fill:#221f1f;}.cls-25{fill:url(#linear-gradient-11);}.cls-26{mask:url(#mask-11);}.cls-27,.cls-30,.cls-33,.cls-37,.cls-42,.cls-44,.cls-46,.cls-50,.cls-52{mix-blend-mode:screen;}.cls-27{fill:url(#linear-gradient-12);}.cls-28{fill:url(#linear-gradient-13);}.cls-29{mask:url(#mask-12);}.cls-30{fill:url(#radial-gradient-2);}.cls-31{fill:url(#linear-gradient-14);}.cls-32{mask:url(#mask-13);}.cls-33{fill:url(#linear-gradient-15);}.cls-34{fill:url(#linear-gradient-16);}.cls-35{fill:url(#linear-gradient-17);}.cls-36{mask:url(#mask-14);}.cls-37{fill:url(#linear-gradient-18);}.cls-38{fill:url(#linear-gradient-19);}.cls-40{fill:url(#linear-gradient-20);}.cls-41{mask:url(#mask-15);}.cls-42{fill:url(#linear-gradient-21);}.cls-43{mask:url(#mask-16);}.cls-44{fill:url(#linear-gradient-22);}.cls-45{mask:url(#mask-17);}.cls-46{fill:url(#linear-gradient-23);}.cls-47{mask:url(#mask-18);}.cls-48{fill:url(#linear-gradient-24);}.cls-49{mask:url(#mask-19);}.cls-50{fill:url(#linear-gradient-25);}.cls-51{mask:url(#mask-20);}.cls-52{fill:url(#linear-gradient-26);}.cls-53{filter:url(#luminosity-noclip-10);}.cls-54{filter:url(#luminosity-noclip-9);}.cls-55{filter:url(#luminosity-noclip-8);}.cls-56{filter:url(#luminosity-noclip-7);}.cls-57{filter:url(#luminosity-noclip-6);}.cls-58{filter:url(#luminosity-noclip-5);}.cls-59{filter:url(#luminosity-noclip-4);}.cls-60{filter:url(#luminosity-noclip-3);}.cls-61{filter:url(#luminosity-noclip-2);}.cls-62{filter:url(#luminosity-noclip);}</style><filter id="luminosity-noclip" x="0" y="-8167.65" width="7.28" height="32766" filterUnits="userSpaceOnUse" color-interpolation-filters="sRGB"><feFlood flood-color="#fff" result="bg"/><feBlend in="SourceGraphic" in2="bg"/></filter><mask id="mask" x="0" y="-8167.65" width="7.28" height="32766" maskUnits="userSpaceOnUse"><g class="cls-62"/></mask><linearGradient id="linear-gradient" x1="0.24" y1="11.47" x2="3.15" y2="11.47" gradientUnits="userSpaceOnUse"><stop offset="0" stop-color="#fff"/><stop offset="0.07" stop-color="#e0e0e0"/><stop offset="0.21" stop-color="#909090"/><stop offset="0.43" stop-color="#111"/><stop offset="0.46"/></linearGradient><filter id="luminosity-noclip-2" x="0.67" y="-8167.65" width="1.77" height="32766" filterUnits="userSpaceOnUse" color-interpolation-filters="sRGB"><feFlood flood-color="#fff" result="bg"/><feBlend in="SourceGraphic" in2="bg"/></filter><mask id="mask-2" x="0.67" y="-8167.65" width="1.77" height="32766" maskUnits="userSpaceOnUse"><g class="cls-61"/></mask><linearGradient id="linear-gradient-2" x1="1.19" y1="12.07" x2="1.94" y2="10.52" gradientUnits="userSpaceOnUse"><stop offset="0" stop-color="#fff"/><stop offset="0.13" stop-color="#e0e0e0"/><stop offset="0.41" stop-color="#909090"/><stop offset="0.83" stop-color="#111"/><stop offset="0.88"/></linearGradient><filter id="luminosity-noclip-3" x="1.12" y="-8167.65" width="1.65" height="32766" filterUnits="userSpaceOnUse" color-interpolation-filters="sRGB"><feFlood flood-color="#fff" result="bg"/><feBlend in="SourceGraphic" in2="bg"/></filter><mask id="mask-3" x="1.12" y="-8167.65" width="1.65" height="32766" maskUnits="userSpaceOnUse"><g class="cls-60"/></mask><linearGradient id="linear-gradient-3" x1="1.31" y1="11.35" x2="2.42" y2="7.7" gradientUnits="userSpaceOnUse"><stop offset="0"/><stop offset="0.07" stop-color="#1f1f1f"/><stop offset="0.22" stop-color="#707070"/><stop offset="0.45" stop-color="#eee"/><stop offset="0.48" stop-color="#fff"/><stop offset="0.52" stop-color="#fafafa"/><stop offset="0.57" stop-color="#ebebeb"/><stop offset="0.62" stop-color="#d3d3d3"/><stop offset="0.68" stop-color="#b2b2b2"/><stop offset="0.74" stop-color="#868686"/><stop offset="0.8" stop-color="#515151"/><stop offset="0.86" stop-color="#141414"/><stop offset="0.88"/></linearGradient><filter id="luminosity-noclip-4" x="2.42" y="-8167.65" width="1.28" height="32766" filterUnits="userSpaceOnUse" color-interpolation-filters="sRGB"><feFlood flood-color="#fff" result="bg"/><feBlend in="SourceGraphic" in2="bg"/></filter><mask id="mask-4" x="2.42" y="-8167.65" width="1.28" height="32766" maskUnits="userSpaceOnUse"><g class="cls-59"/></mask><linearGradient id="linear-gradient-4" x1="2.82" y1="-0.05" x2="3.34" y2="2.73" xlink:href="#linear-gradient-2"/><filter id="luminosity-noclip-5" x="1.75" y="-8167.65" width="1.75" height="32766" filterUnits="userSpaceOnUse" color-interpolation-filters="sRGB"><feFlood flood-color="#fff" result="bg"/><feBlend in="SourceGraphic" in2="bg"/></filter><mask id="mask-5" x="1.75" y="-8167.65" width="1.75" height="32766" maskUnits="userSpaceOnUse"><g class="cls-58"/></mask><linearGradient id="linear-gradient-5" x1="1.87" y1="7.63" x2="3.96" y2="3.96" xlink:href="#linear-gradient-2"/><filter id="luminosity-noclip-6" x="2.27" y="-8167.65" width="1.45" height="32766" filterUnits="userSpaceOnUse" color-interpolation-filters="sRGB"><feFlood flood-color="#fff" result="bg"/><feBlend in="SourceGraphic" in2="bg"/></filter><mask id="mask-6" x="2.27" y="-8167.65" width="1.45" height="32766" maskUnits="userSpaceOnUse"><g class="cls-57"/></mask><linearGradient id="linear-gradient-6" x1="2.89" y1="3.5" x2="3.14" y2="2.28" xlink:href="#linear-gradient-2"/><filter id="luminosity-noclip-7" x="2.24" y="-8167.65" width="2.79" height="32766" filterUnits="userSpaceOnUse" color-interpolation-filters="sRGB"><feFlood flood-color="#fff" result="bg"/><feBlend in="SourceGraphic" in2="bg"/></filter><mask id="mask-7" x="2.24" y="-8167.65" width="2.79" height="32766" maskUnits="userSpaceOnUse"><g class="cls-56"/></mask><radialGradient id="radial-gradient" cx="5" cy="1.52" r="2.41" gradientUnits="userSpaceOnUse"><stop offset="0.42"/><stop offset="0.46" stop-color="#111"/><stop offset="0.73" stop-color="#909090"/><stop offset="0.92" stop-color="#e0e0e0"/><stop offset="1" stop-color="#fff"/></radialGradient><filter id="luminosity-noclip-8" x="1.31" y="-8167.65" width="4.66" height="32766" filterUnits="userSpaceOnUse" color-interpolation-filters="sRGB"><feFlood flood-color="#fff" result="bg"/><feBlend in="SourceGraphic" in2="bg"/></filter><mask id="mask-8" x="1.31" y="-8167.65" width="4.66" height="32766" maskUnits="userSpaceOnUse"><g class="cls-55"/></mask><linearGradient id="linear-gradient-7" x1="1.71" y1="5.6" x2="4.53" y2="5.6" gradientUnits="userSpaceOnUse"><stop offset="0" stop-color="#fff"/><stop offset="0.1" stop-color="#e0e0e0"/><stop offset="0.34" stop-color="#909090"/><stop offset="0.67" stop-color="#111"/><stop offset="0.72"/></linearGradient><filter id="luminosity-noclip-9" x="0.63" y="-8167.65" width="6.03" height="32766" filterUnits="userSpaceOnUse" color-interpolation-filters="sRGB"><feFlood flood-color="#fff" result="bg"/><feBlend in="SourceGraphic" in2="bg"/></filter><mask id="mask-9" x="0.63" y="-8167.65" width="6.03" height="32766" maskUnits="userSpaceOnUse"><g class="cls-54"/></mask><linearGradient id="linear-gradient-8" x1="0.56" y1="9.1" x2="5.99" y2="9.1" gradientUnits="userSpaceOnUse"><stop offset="0" stop-color="#fff"/><stop offset="0.14" stop-color="#b3b3b3"/><stop offset="0.27" stop-color="#747474"/><stop offset="0.39" stop-color="#424242"/><stop offset="0.5" stop-color="#1e1e1e"/><stop offset="0.58" stop-color="#080808"/><stop offset="0.64"/></linearGradient><filter id="luminosity-noclip-10" x="1.76" y="-8167.65" width="3.75" height="32766" filterUnits="userSpaceOnUse" color-interpolation-filters="sRGB"><feFlood flood-color="#fff" result="bg"/><feBlend in="SourceGraphic" in2="bg"/></filter><mask id="mask-10" x="1.76" y="-8167.65" width="3.75" height="32766" maskUnits="userSpaceOnUse"><g class="cls-53"/></mask><linearGradient id="linear-gradient-9" x1="2.52" y1="2.99" x2="5.08" y2="2.99" gradientUnits="userSpaceOnUse"><stop offset="0" stop-color="#fff"/><stop offset="0.08" stop-color="#e0e0e0"/><stop offset="0.27" stop-color="#909090"/><stop offset="0.54" stop-color="#111"/><stop offset="0.58"/></linearGradient><linearGradient id="linear-gradient-10" x1="-0.46" y1="10.7" x2="4.83" y2="10.7" gradientUnits="userSpaceOnUse"><stop offset="0" stop-color="#221f1f"/><stop offset="0.2" stop-color="#a4a6a9"/><stop offset="0.25" stop-color="#939598"/><stop offset="0.35" stop-color="#717375"/><stop offset="0.45" stop-color="#585a5b"/><stop offset="0.53" stop-color="#484a4b"/><stop offset="0.6" stop-color="#434546"/><stop offset="0.92" stop-color="#292727"/><stop offset="1" stop-color="#221f1f"/></linearGradient><linearGradient id="linear-gradient-11" y1="11.47" x2="7.28" y2="11.47" gradientUnits="userSpaceOnUse"><stop offset="0" stop-color="#a4a6a9"/><stop offset="0.04" stop-color="#939598"/><stop offset="0.15" stop-color="#717375"/><stop offset="0.26" stop-color="#585a5b"/><stop offset="0.35" stop-color="#484a4b"/><stop offset="0.42" stop-color="#434546"/><stop offset="0.77" stop-color="#292727"/><stop offset="0.85" stop-color="#221f1f"/></linearGradient><filter id="luminosity-noclip-11" x="0" y="10.87" width="7.28" height="1.21" filterUnits="userSpaceOnUse" color-interpolation-filters="sRGB"><feFlood flood-color="#fff" result="bg"/><feBlend in="SourceGraphic" in2="bg"/></filter><mask id="mask-11" x="0" y="10.87" width="7.28" height="1.21" maskUnits="userSpaceOnUse"><g class="cls-1"><path class="cls-2" d="M7.28,12.07a1.1,1.1,0,0,0-.93-1.2H.93A1.1,1.1,0,0,0,0,12.07H7.28Z"/></g></mask><linearGradient id="linear-gradient-12" x1="0.24" y1="11.47" x2="3.15" y2="11.47" gradientUnits="userSpaceOnUse"><stop offset="0" stop-color="#fff"/><stop offset="0.09" stop-color="#e0e0e0"/><stop offset="0.28" stop-color="#919292"/><stop offset="0.46" stop-color="#434546"/></linearGradient><linearGradient id="linear-gradient-13" x1="2.31" y1="1.39" x2="5.16" y2="1.39" xlink:href="#linear-gradient-11"/><filter id="luminosity-noclip-12" x="2.24" y="0" width="2.79" height="2.79" filterUnits="userSpaceOnUse" color-interpolation-filters="sRGB"><feFlood flood-color="#fff" result="bg"/><feBlend in="SourceGraphic" in2="bg"/></filter><mask id="mask-12" x="2.24" y="0" width="2.79" height="2.79" maskUnits="userSpaceOnUse"><g class="cls-13"><path class="cls-14" d="M5,1.39A1.4,1.4,0,1,1,3.64,0,1.4,1.4,0,0,1,5,1.39Z"/></g></mask><radialGradient id="radial-gradient-2" cx="5" cy="1.52" r="2.41" gradientUnits="userSpaceOnUse"><stop offset="0.42" stop-color="#434546"/><stop offset="0.64" stop-color="#919292"/><stop offset="0.89" stop-color="#e0e0e0"/><stop offset="1" stop-color="#fff"/></radialGradient><linearGradient id="linear-gradient-14" x1="1.31" y1="5.6" x2="5.97" y2="5.6" xlink:href="#linear-gradient-11"/><filter id="luminosity-noclip-13" x="1.31" y="3.61" width="4.66" height="3.99" filterUnits="userSpaceOnUse" color-interpolation-filters="sRGB"><feFlood flood-color="#fff" result="bg"/><feBlend in="SourceGraphic" in2="bg"/></filter><mask id="mask-13" x="1.31" y="3.61" width="4.66" height="3.99" maskUnits="userSpaceOnUse"><g class="cls-15"><path class="cls-16" d="M4.42,3.91l0-.3-.73.07L2.9,3.61l0,.3S2.74,6.72,1.31,7.47l2.12.12h.42L6,7.47C4.54,6.72,4.42,3.91,4.42,3.91Z"/></g></mask><linearGradient id="linear-gradient-15" x1="1.71" y1="5.6" x2="4.53" y2="5.6" gradientUnits="userSpaceOnUse"><stop offset="0" stop-color="#fff"/><stop offset="0.14" stop-color="#e0e0e0"/><stop offset="0.44" stop-color="#919292"/><stop offset="0.72" stop-color="#434546"/></linearGradient><linearGradient id="linear-gradient-16" x1="0.99" y1="3.67" x2="4.25" y2="3.67" xlink:href="#linear-gradient-10"/><linearGradient id="linear-gradient-17" x1="0.63" y1="9.1" x2="6.65" y2="9.1" xlink:href="#linear-gradient-11"/><filter id="luminosity-noclip-14" x="0.63" y="7.69" width="6.03" height="2.8" filterUnits="userSpaceOnUse" color-interpolation-filters="sRGB"><feFlood flood-color="#fff" result="bg"/><feBlend in="SourceGraphic" in2="bg"/></filter><mask id="mask-14" x="0.63" y="7.69" width="6.03" height="2.8" maskUnits="userSpaceOnUse"><g class="cls-17"><path class="cls-18" d="M5.7,7.78,4.52,7.69l-.88,0-.89,0-1.18.09A1.58,1.58,0,0,0,.63,9.36a1.41,1.41,0,0,0,.55,1.14H6.1a1.45,1.45,0,0,0,.55-1.14A1.6,1.6,0,0,0,5.7,7.78Z"/></g></mask><linearGradient id="linear-gradient-18" x1="0.56" y1="9.1" x2="5.99" y2="9.1" gradientUnits="userSpaceOnUse"><stop offset="0" stop-color="#fff"/><stop offset="0.02" stop-color="#f5f5f5"/><stop offset="0.19" stop-color="#b6b7b8"/><stop offset="0.33" stop-color="#858687"/><stop offset="0.46" stop-color="#616363"/><stop offset="0.57" stop-color="#4b4d4e"/><stop offset="0.64" stop-color="#434546"/></linearGradient><linearGradient id="linear-gradient-19" x1="-0.55" y1="7.63" x2="4.44" y2="7.63" xlink:href="#linear-gradient-10"/><linearGradient id="linear-gradient-20" x1="1.61" y1="2.99" x2="5.08" y2="2.99" xlink:href="#linear-gradient-11"/><filter id="luminosity-noclip-15" x="1.76" y="2.55" width="3.75" height="0.88" filterUnits="userSpaceOnUse" color-interpolation-filters="sRGB"><feFlood flood-color="#fff" result="bg"/><feBlend in="SourceGraphic" in2="bg"/></filter><mask id="mask-15" x="1.76" y="2.55" width="3.75" height="0.88" maskUnits="userSpaceOnUse"><g class="cls-19"><polygon class="cls-20" points="4.42 2.55 3.8 2.55 3.48 2.55 2.85 2.55 1.76 3.43 3.48 3.43 3.8 3.43 5.51 3.43 4.42 2.55"/></g></mask><linearGradient id="linear-gradient-21" x1="2.52" y1="2.99" x2="5.08" y2="2.99" gradientUnits="userSpaceOnUse"><stop offset="0" stop-color="#fff"/><stop offset="0.11" stop-color="#e0e0e0"/><stop offset="0.36" stop-color="#919292"/><stop offset="0.58" stop-color="#434546"/></linearGradient><mask id="mask-16" x="0.67" y="10.86" width="1.77" height="1.22" maskUnits="userSpaceOnUse"><g class="cls-3"><path class="cls-4" d="M.67,12.08h1.2a2.14,2.14,0,0,1,0-.62.91.91,0,0,1,.53-.6H1.62A1.18,1.18,0,0,0,.67,12.08Z"/></g></mask><linearGradient id="linear-gradient-22" x1="1.19" y1="12.07" x2="1.94" y2="10.52" gradientUnits="userSpaceOnUse"><stop offset="0" stop-color="#fff"/><stop offset="0.88" stop-color="#fff"/></linearGradient><mask id="mask-17" x="1.12" y="7.78" width="1.65" height="2.72" maskUnits="userSpaceOnUse"><g class="cls-5"><path class="cls-6" d="M1.93,7.79a1.78,1.78,0,0,0-.78,1.27,1.66,1.66,0,0,0,.06.83,1.53,1.53,0,0,0,.21.4.75.75,0,0,0,.14.17l0,0h.84l-.07-.11A1.18,1.18,0,0,1,2.2,10a2.11,2.11,0,0,1,0-1,3,3,0,0,1,.4-.9,3,3,0,0,0,.19-.31H1.93Z"/></g></mask><linearGradient id="linear-gradient-23" x1="1.31" y1="11.35" x2="2.42" y2="7.7" gradientUnits="userSpaceOnUse"><stop offset="0" stop-color="#434546"/><stop offset="0.09" stop-color="#626465"/><stop offset="0.29" stop-color="#b1b2b3"/><stop offset="0.48" stop-color="#fff"/><stop offset="0.88" stop-color="#fff"/></linearGradient><mask id="mask-18" x="2.42" y="0.01" width="1.28" height="2.53" maskUnits="userSpaceOnUse"><g class="cls-7"><path class="cls-8" d="M2.74,1.21A1.35,1.35,0,0,1,3.5,0,1.47,1.47,0,0,0,3,.18a2.08,2.08,0,0,0-.21.21,1.23,1.23,0,0,0-.31.75A1.51,1.51,0,0,0,2.59,2a1.31,1.31,0,0,0,.24.34L3,2.42l.16.12H3.7A1.37,1.37,0,0,1,2.74,1.21Z"/></g></mask><linearGradient id="linear-gradient-24" x1="2.82" y1="-0.05" x2="3.34" y2="2.73" xlink:href="#linear-gradient-22"/><mask id="mask-19" x="1.75" y="3.9" width="1.75" height="3.57" maskUnits="userSpaceOnUse"><g class="cls-9"><path class="cls-10" d="M3,3.91a.33.33,0,0,1,0,.15c0,.19-.07.5-.09.65a8.42,8.42,0,0,1-.27,1.23,3.41,3.41,0,0,1-.6,1.26s-.3.28-.31.27H3a3.39,3.39,0,0,0,.28-.75A5,5,0,0,0,3.35,6c0-.52.11-1,.14-1.55,0-.15,0-.35,0-.5H3Z"/></g></mask><linearGradient id="linear-gradient-25" x1="1.87" y1="7.63" x2="3.96" y2="3.96" xlink:href="#linear-gradient-22"/><mask id="mask-20" x="2.27" y="2.54" width="1.45" height="0.89" maskUnits="userSpaceOnUse"><g class="cls-11"><path class="cls-12" d="M3,3.28c.07-.07.56-.59.72-.73H3.15a1.57,1.57,0,0,1-.31.32l-.41.41-.16.15H3S2.92,3.38,3,3.28Z"/></g></mask><linearGradient id="linear-gradient-26" x1="2.89" y1="3.5" x2="3.14" y2="2.28" xlink:href="#linear-gradient-22"/></defs><title>black-pawn</title><g class="cls-21"><g id="Layer_2" data-name="Layer 2"><g id="Layer_1-2" data-name="Layer 1"><path class="cls-22" d="M6.37,10.79a.29.29,0,0,0-.28-.29H1.19a.29.29,0,0,0-.28.29.37.37,0,0,0,0,.11H6.36A.31.31,0,0,0,6.37,10.79Z"/><g class="cls-23"><path class="cls-24" d="M6.37,10.75H.91v0a.37.37,0,0,0,0,.11H6.36a.31.31,0,0,0,0-.1Z"/></g><path class="cls-25" d="M7.28,12.07a1.1,1.1,0,0,0-.93-1.2H.93A1.1,1.1,0,0,0,0,12.07H7.28Z"/><g class="cls-26"><path class="cls-27" d="M7.28,12.07a1.1,1.1,0,0,0-.93-1.2H.93A1.1,1.1,0,0,0,0,12.07H7.28Z"/></g><path class="cls-24" d="M6.35,10.87h-2L4.27,11a4.83,4.83,0,0,1-2,.91,10,10,0,0,1-2.23.2H7.28A1.1,1.1,0,0,0,6.35,10.87Z"/><path class="cls-28" d="M5,1.39A1.4,1.4,0,1,1,3.64,0,1.4,1.4,0,0,1,5,1.39Z"/><g class="cls-29"><path class="cls-30" d="M5,1.39A1.4,1.4,0,1,1,3.64,0,1.4,1.4,0,0,1,5,1.39Z"/></g><path class="cls-31" d="M4.42,3.91l0-.3-.73.07L2.9,3.61l0,.3S2.74,6.72,1.31,7.47l2.12.12h.42L6,7.47C4.54,6.72,4.42,3.91,4.42,3.91Z"/><g class="cls-32"><path class="cls-33" d="M4.42,3.91l0-.3-.73.07L2.9,3.61l0,.3S2.74,6.72,1.31,7.47l2.12.12h.42L6,7.47C4.54,6.72,4.42,3.91,4.42,3.91Z"/></g><path class="cls-24" d="M3.9,4.86a9.64,9.64,0,0,0,.15,1.41,2.32,2.32,0,0,0,.52,1.11l.18.16L6,7.47C4.54,6.72,4.42,3.91,4.42,3.91l0-.3-.53.05C3.85,4.06,3.88,4.46,3.9,4.86Z"/><polygon class="cls-34" points="2.85 3.91 3.48 3.91 3.8 3.91 4.42 3.91 5.51 3.43 3.8 3.43 3.48 3.43 1.76 3.43 2.85 3.91"/><path class="cls-35" d="M5.7,7.78,4.52,7.69l-.88,0-.89,0-1.18.09A1.58,1.58,0,0,0,.63,9.36a1.41,1.41,0,0,0,.55,1.14H6.1a1.45,1.45,0,0,0,.55-1.14A1.6,1.6,0,0,0,5.7,7.78Z"/><g class="cls-36"><path class="cls-37" d="M5.7,7.78,4.52,7.69l-.88,0-.89,0-1.18.09A1.58,1.58,0,0,0,.63,9.36a1.41,1.41,0,0,0,.55,1.14H6.1a1.45,1.45,0,0,0,.55-1.14A1.6,1.6,0,0,0,5.7,7.78Z"/></g><path class="cls-24" d="M5.7,7.78l-.91-.07a1.89,1.89,0,0,1,.54,1.1,2.07,2.07,0,0,1-.25,1.12,2.33,2.33,0,0,1-.42.57H6.1a1.45,1.45,0,0,0,.55-1.14A1.6,1.6,0,0,0,5.7,7.78Z"/><polygon class="cls-38" points="1.31 7.47 1.57 7.78 2.88 7.78 4.36 7.78 5.7 7.78 5.97 7.47 1.31 7.47"/><g class="cls-39"><path d="M4.76.56a1.75,1.75,0,0,1,0,.4A1.39,1.39,0,0,1,3.42,2.35,1.4,1.4,0,0,1,2.3,1.79,1.4,1.4,0,1,0,4.76.56Z"/></g><polygon class="cls-40" points="4.42 2.55 3.8 2.55 3.48 2.55 2.85 2.55 1.76 3.43 3.48 3.43 3.8 3.43 5.51 3.43 4.42 2.55"/><g class="cls-41"><polygon class="cls-42" points="4.42 2.55 3.8 2.55 3.48 2.55 2.85 2.55 1.76 3.43 3.48 3.43 3.8 3.43 5.51 3.43 4.42 2.55"/></g><path class="cls-24" d="M4,2.83a5.2,5.2,0,0,1,.38.44.91.91,0,0,1,.11.16h1l-1.1-.88H3.78Z"/><g class="cls-43"><path class="cls-44" d="M.67,12.08h1.2a2.14,2.14,0,0,1,0-.62.91.91,0,0,1,.53-.6H1.62A1.18,1.18,0,0,0,.67,12.08Z"/></g><g class="cls-45"><path class="cls-46" d="M1.93,7.79a1.78,1.78,0,0,0-.78,1.27,1.66,1.66,0,0,0,.06.83,1.53,1.53,0,0,0,.21.4.75.75,0,0,0,.14.17l0,0h.84l-.07-.11A1.18,1.18,0,0,1,2.2,10a2.11,2.11,0,0,1,0-1,3,3,0,0,1,.4-.9,3,3,0,0,0,.19-.31H1.93Z"/></g><g class="cls-47"><path class="cls-48" d="M2.74,1.21A1.35,1.35,0,0,1,3.5,0,1.47,1.47,0,0,0,3,.18a2.08,2.08,0,0,0-.21.21,1.23,1.23,0,0,0-.31.75A1.51,1.51,0,0,0,2.59,2a1.31,1.31,0,0,0,.24.34L3,2.42l.16.12H3.7A1.37,1.37,0,0,1,2.74,1.21Z"/></g><g class="cls-49"><path class="cls-50" d="M3,3.91a.33.33,0,0,1,0,.15c0,.19-.07.5-.09.65a8.42,8.42,0,0,1-.27,1.23,3.41,3.41,0,0,1-.6,1.26s-.3.28-.31.27H3a3.39,3.39,0,0,0,.28-.75A5,5,0,0,0,3.35,6c0-.52.11-1,.14-1.55,0-.15,0-.35,0-.5H3Z"/></g><g class="cls-51"><path class="cls-52" d="M3,3.28c.07-.07.56-.59.72-.73H3.15a1.57,1.57,0,0,1-.31.32l-.41.41-.16.15H3S2.92,3.38,3,3.28Z"/></g></g></g></g></svg>