<svg xmlns="http://www.w3.org/2000/svg" xmlns:xlink="http://www.w3.org/1999/xlink" viewBox="0 0 7.29 13.58"><defs><style>.cls-1{mask:url(#mask);filter:url(#luminosity-noclip-12);}.cls-10,.cls-12,.cls-14,.cls-16,.cls-18,.cls-2,.cls-20,.cls-22,.cls-34,.cls-38,.cls-4,.cls-47,.cls-56,.cls-6,.cls-8{mix-blend-mode:multiply;}.cls-2{fill:url(#linear-gradient);}.cls-3{mask:url(#mask-2);filter:url(#luminosity-noclip-17);}.cls-4{fill:url(#linear-gradient-2);}.cls-5{mask:url(#mask-3);filter:url(#luminosity-noclip-18);}.cls-6{fill:url(#linear-gradient-3);}.cls-7{mask:url(#mask-4);filter:url(#luminosity-noclip-19);}.cls-8{fill:url(#linear-gradient-4);}.cls-9{mask:url(#mask-5);filter:url(#luminosity-noclip-20);}.cls-10{fill:url(#linear-gradient-5);}.cls-11{mask:url(#mask-6);filter:url(#luminosity-noclip-21);}.cls-12{fill:url(#linear-gradient-6);}.cls-13{mask:url(#mask-7);filter:url(#luminosity-noclip-13);}.cls-14{fill:url(#linear-gradient-7);}.cls-15{mask:url(#mask-8);filter:url(#luminosity-noclip-22);}.cls-16{fill:url(#linear-gradient-8);}.cls-17{mask:url(#mask-9);filter:url(#luminosity-noclip-14);}.cls-18{fill:url(#linear-gradient-9);}.cls-19{mask:url(#mask-10);filter:url(#luminosity-noclip-15);}.cls-20{fill:url(#linear-gradient-10);}.cls-21{mask:url(#mask-11);filter:url(#luminosity-noclip-16);}.cls-22{fill:url(#linear-gradient-11);}.cls-23{isolation:isolate;}.cls-24{fill:url(#linear-gradient-12);}.cls-25{mask:url(#mask-12);}.cls-26,.cls-28,.cls-30,.cls-33,.cls-34,.cls-37,.cls-38,.cls-41,.cls-43,.cls-46,.cls-47,.cls-51,.cls-53,.cls-56,.cls-60{opacity:0.5;}.cls-26,.cls-33,.cls-37,.cls-41,.cls-46,.cls-51,.cls-60{mix-blend-mode:screen;}.cls-26{fill:url(#linear-gradient-13);}.cls-27{mask:url(#mask-13);}.cls-28{fill:url(#linear-gradient-14);}.cls-29{mask:url(#mask-14);}.cls-30{fill:url(#linear-gradient-15);}.cls-31{fill:url(#linear-gradient-16);}.cls-32{mask:url(#mask-15);}.cls-33{fill:url(#linear-gradient-17);}.cls-34{fill:url(#linear-gradient-18);}.cls-35{fill:url(#linear-gradient-19);}.cls-36{mask:url(#mask-16);}.cls-37{fill:url(#linear-gradient-20);}.cls-38{fill:url(#linear-gradient-21);}.cls-39{fill:url(#linear-gradient-22);}.cls-40{mask:url(#mask-17);}.cls-41{fill:url(#linear-gradient-23);}.cls-42{mask:url(#mask-18);}.cls-43{fill:url(#linear-gradient-24);}.cls-44{fill:url(#linear-gradient-25);}.cls-45{mask:url(#mask-19);}.cls-46{fill:url(#linear-gradient-26);}.cls-47{fill:url(#linear-gradient-27);}.cls-48{fill:url(#linear-gradient-28);}.cls-49{fill:url(#linear-gradient-29);}.cls-50{mask:url(#mask-20);}.cls-51{fill:url(#linear-gradient-30);}.cls-52{mask:url(#mask-21);}.cls-53{fill:url(#linear-gradient-31);}.cls-54{fill:url(#linear-gradient-32);}.cls-55{fill:url(#linear-gradient-33);}.cls-57{fill:#221f1f;}.cls-58{fill:url(#linear-gradient-34);}.cls-59{fill:#020202;}.cls-61{mask:url(#mask-22);}.cls-62{fill:url(#linear-gradient-35);}.cls-63{filter:url(#luminosity-noclip-11);}.cls-64{filter:url(#luminosity-noclip-10);}.cls-65{filter:url(#luminosity-noclip-9);}.cls-66{filter:url(#luminosity-noclip-8);}.cls-67{filter:url(#luminosity-noclip-7);}.cls-68{filter:url(#luminosity-noclip-6);}.cls-69{filter:url(#luminosity-noclip-5);}.cls-70{filter:url(#luminosity-noclip-4);}.cls-71{filter:url(#luminosity-noclip-3);}.cls-72{filter:url(#luminosity-noclip-2);}.cls-73{filter:url(#luminosity-noclip);}</style><filter id="luminosity-noclip" x="1.75" y="-8169.15" width="3.71" height="32766" filterUnits="userSpaceOnUse" color-interpolation-filters="sRGB"><feFlood flood-color="#fff" result="bg"/><feBlend in="SourceGraphic" in2="bg"/></filter><mask id="mask" x="1.75" y="-8169.15" width="3.71" height="32766" maskUnits="userSpaceOnUse"><g class="cls-73"/></mask><linearGradient id="linear-gradient" x1="2.17" y1="2.51" x2="4.23" y2="2.51" gradientUnits="userSpaceOnUse"><stop offset="0" stop-color="#fff"/><stop offset="0.13" stop-color="#e0e0e0"/><stop offset="0.41" stop-color="#909090"/><stop offset="0.83" stop-color="#111"/><stop offset="0.88"/></linearGradient><filter id="luminosity-noclip-2" x="1.96" y="-8169.15" width="3.34" height="32766" filterUnits="userSpaceOnUse" color-interpolation-filters="sRGB"><feFlood flood-color="#fff" result="bg"/><feBlend in="SourceGraphic" in2="bg"/></filter><mask id="mask-2" x="1.96" y="-8169.15" width="3.34" height="32766" maskUnits="userSpaceOnUse"><g class="cls-72"/></mask><linearGradient id="linear-gradient-2" x1="2.23" y1="7.5" x2="4.56" y2="7.5" xlink:href="#linear-gradient"/><filter id="luminosity-noclip-3" x="2.11" y="-8169.15" width="1.21" height="32766" filterUnits="userSpaceOnUse" color-interpolation-filters="sRGB"><feFlood flood-color="#fff" result="bg"/><feBlend in="SourceGraphic" in2="bg"/></filter><mask id="mask-3" x="2.11" y="-8169.15" width="1.21" height="32766" maskUnits="userSpaceOnUse"><g class="cls-71"/></mask><linearGradient id="linear-gradient-3" x1="2.72" y1="10.42" x2="2.72" y2="5.66" gradientUnits="userSpaceOnUse"><stop offset="0.08" stop-color="#fff"/><stop offset="0.28" stop-color="#bbb"/><stop offset="0.52" stop-color="#6c6c6c"/><stop offset="0.73" stop-color="#313131"/><stop offset="0.87" stop-color="#0e0e0e"/><stop offset="0.95"/></linearGradient><filter id="luminosity-noclip-4" x="2.63" y="-8169.15" width="0.49" height="32766" filterUnits="userSpaceOnUse" color-interpolation-filters="sRGB"><feFlood flood-color="#fff" result="bg"/><feBlend in="SourceGraphic" in2="bg"/></filter><mask id="mask-4" x="2.63" y="-8169.15" width="0.49" height="32766" maskUnits="userSpaceOnUse"><g class="cls-70"/></mask><linearGradient id="linear-gradient-4" x1="2.88" y1="4.93" x2="2.88" y2="5.59" xlink:href="#linear-gradient"/><filter id="luminosity-noclip-5" x="0.74" y="-8169.15" width="5.76" height="32766" filterUnits="userSpaceOnUse" color-interpolation-filters="sRGB"><feFlood flood-color="#fff" result="bg"/><feBlend in="SourceGraphic" in2="bg"/></filter><mask id="mask-5" x="0.74" y="-8169.15" width="5.76" height="32766" maskUnits="userSpaceOnUse"><g class="cls-69"/></mask><linearGradient id="linear-gradient-5" x1="0.98" y1="11.13" x2="5.63" y2="11.13" xlink:href="#linear-gradient"/><filter id="luminosity-noclip-6" x="0.9" y="-8169.15" width="1.75" height="32766" filterUnits="userSpaceOnUse" color-interpolation-filters="sRGB"><feFlood flood-color="#fff" result="bg"/><feBlend in="SourceGraphic" in2="bg"/></filter><mask id="mask-6" x="0.9" y="-8169.15" width="1.75" height="32766" maskUnits="userSpaceOnUse"><g class="cls-68"/></mask><linearGradient id="linear-gradient-6" x1="1.33" y1="11.66" x2="2.68" y2="10.13" xlink:href="#linear-gradient-3"/><filter id="luminosity-noclip-7" x="2.64" y="-8169.15" width="0.71" height="32766" filterUnits="userSpaceOnUse" color-interpolation-filters="sRGB"><feFlood flood-color="#fff" result="bg"/><feBlend in="SourceGraphic" in2="bg"/></filter><mask id="mask-7" x="2.64" y="-8169.15" width="0.71" height="32766" maskUnits="userSpaceOnUse"><g class="cls-67"/></mask><linearGradient id="linear-gradient-7" x1="2.72" y1="4.57" x2="3.07" y2="-0.24" gradientUnits="userSpaceOnUse"><stop offset="0"/><stop offset="0.02" stop-color="#151515"/><stop offset="0.07" stop-color="#4b4b4b"/><stop offset="0.12" stop-color="#7b7b7b"/><stop offset="0.18" stop-color="#a4a4a4"/><stop offset="0.23" stop-color="#c5c5c5"/><stop offset="0.29" stop-color="#dedede"/><stop offset="0.35" stop-color="#f1f1f1"/><stop offset="0.41" stop-color="#fbfbfb"/><stop offset="0.47" stop-color="#fff"/><stop offset="0.58" stop-color="#bbb"/><stop offset="0.72" stop-color="#6c6c6c"/><stop offset="0.83" stop-color="#313131"/><stop offset="0.91" stop-color="#0e0e0e"/><stop offset="0.95"/></linearGradient><filter id="luminosity-noclip-8" x="0.54" y="-8169.15" width="1.67" height="32766" filterUnits="userSpaceOnUse" color-interpolation-filters="sRGB"><feFlood flood-color="#fff" result="bg"/><feBlend in="SourceGraphic" in2="bg"/></filter><mask id="mask-8" x="0.54" y="-8169.15" width="1.67" height="32766" maskUnits="userSpaceOnUse"><g class="cls-66"/></mask><linearGradient id="linear-gradient-8" x1="1.35" y1="13.68" x2="1.41" y2="11.52" gradientUnits="userSpaceOnUse"><stop offset="0.08" stop-color="#fff"/><stop offset="0.15" stop-color="#dbdbdb"/><stop offset="0.27" stop-color="#9a9a9a"/><stop offset="0.39" stop-color="#636363"/><stop offset="0.5" stop-color="#383838"/><stop offset="0.6" stop-color="#191919"/><stop offset="0.68" stop-color="#070707"/><stop offset="0.74"/></linearGradient><filter id="luminosity-noclip-9" x="2.3" y="-8169.15" width="1.08" height="32766" filterUnits="userSpaceOnUse" color-interpolation-filters="sRGB"><feFlood flood-color="#fff" result="bg"/><feBlend in="SourceGraphic" in2="bg"/></filter><mask id="mask-9" x="2.3" y="-8169.15" width="1.08" height="32766" maskUnits="userSpaceOnUse"><g class="cls-65"/></mask><linearGradient id="linear-gradient-9" x1="2.78" y1="4.57" x2="3.14" y2="-0.24" xlink:href="#linear-gradient-7"/><filter id="luminosity-noclip-10" x="2.79" y="-8169.15" width="0.56" height="32766" filterUnits="userSpaceOnUse" color-interpolation-filters="sRGB"><feFlood flood-color="#fff" result="bg"/><feBlend in="SourceGraphic" in2="bg"/></filter><mask id="mask-10" x="2.79" y="-8169.15" width="0.56" height="32766" maskUnits="userSpaceOnUse"><g class="cls-64"/></mask><linearGradient id="linear-gradient-10" x1="3.07" y1="-0.02" x2="3.07" y2="0.39" gradientUnits="userSpaceOnUse"><stop offset="0.1" stop-color="#fff"/><stop offset="0.44" stop-color="#9a9a9a"/><stop offset="0.93"/></linearGradient><filter id="luminosity-noclip-11" x="2.8" y="-8169.15" width="0.44" height="32766" filterUnits="userSpaceOnUse" color-interpolation-filters="sRGB"><feFlood flood-color="#fff" result="bg"/><feBlend in="SourceGraphic" in2="bg"/></filter><mask id="mask-11" x="2.8" y="-8169.15" width="0.44" height="32766" maskUnits="userSpaceOnUse"><g class="cls-63"/></mask><linearGradient id="linear-gradient-11" x1="3.03" y1="4.55" x2="3.03" y2="5.12" xlink:href="#linear-gradient"/><linearGradient id="linear-gradient-12" x1="1.99" y1="2.19" x2="5.47" y2="2.95" gradientUnits="userSpaceOnUse"><stop offset="0" stop-color="#a4a6a9"/><stop offset="0.03" stop-color="#939598"/><stop offset="0.12" stop-color="#717375"/><stop offset="0.19" stop-color="#585a5b"/><stop offset="0.26" stop-color="#484a4b"/><stop offset="0.32" stop-color="#434546"/><stop offset="0.4" stop-color="#3c3d3e"/><stop offset="0.68" stop-color="#292727"/><stop offset="0.85" stop-color="#221f1f"/></linearGradient><filter id="luminosity-noclip-12" x="1.75" y="0.29" width="3.71" height="4.45" filterUnits="userSpaceOnUse" color-interpolation-filters="sRGB"><feFlood flood-color="#fff" result="bg"/><feBlend in="SourceGraphic" in2="bg"/></filter><mask id="mask-12" x="1.75" y="0.29" width="3.71" height="4.45" maskUnits="userSpaceOnUse"><g class="cls-1"><path class="cls-2" d="M4.41.42a.27.27,0,0,0-.2-.13H3a.27.27,0,0,0-.2.13l-.28.63.7,1.35S3,2.63,3,2.63s-.5-.82-.68-1.13a9.45,9.45,0,0,0-.58,1.62c0,.39,1,1.62,1,1.62H4.47s1-1.23,1-1.62A22.17,22.17,0,0,0,4.41.42Z"/></g></mask><linearGradient id="linear-gradient-13" x1="2.17" y1="2.51" x2="4.23" y2="2.51" gradientUnits="userSpaceOnUse"><stop offset="0" stop-color="#fff"/><stop offset="0.17" stop-color="#e0e0e0"/><stop offset="0.54" stop-color="#919292"/><stop offset="0.88" stop-color="#434546"/></linearGradient><filter id="luminosity-noclip-13" x="2.64" y="0.29" width="0.71" height="1.66" filterUnits="userSpaceOnUse" color-interpolation-filters="sRGB"><feFlood flood-color="#fff" result="bg"/><feBlend in="SourceGraphic" in2="bg"/></filter><mask id="mask-13" x="2.64" y="0.29" width="0.71" height="1.66" maskUnits="userSpaceOnUse"><g class="cls-13"><path class="cls-14" d="M3.35.29H2.93l-.29,1L3,2A11.14,11.14,0,0,1,3.35.29Z"/></g></mask><linearGradient id="linear-gradient-14" x1="2.72" y1="4.57" x2="3.07" y2="-0.24" gradientUnits="userSpaceOnUse"><stop offset="0" stop-color="#fff"/><stop offset="0.03" stop-color="#fff"/><stop offset="0.47" stop-color="#fff"/><stop offset="0.95" stop-color="#fff"/></linearGradient><filter id="luminosity-noclip-14" x="2.3" y="1.79" width="1.08" height="2.95" filterUnits="userSpaceOnUse" color-interpolation-filters="sRGB"><feFlood flood-color="#fff" result="bg"/><feBlend in="SourceGraphic" in2="bg"/></filter><mask id="mask-14" x="2.3" y="1.79" width="1.08" height="2.95" maskUnits="userSpaceOnUse"><g class="cls-17"><path class="cls-18" d="M2.9,2.89c0-.13,0-.26,0-.39S2.65,2,2.5,1.79a4.94,4.94,0,0,0-.2,1.26,2.35,2.35,0,0,0,.84,1.69h.23A2.31,2.31,0,0,1,2.9,2.89Z"/></g></mask><linearGradient id="linear-gradient-15" x1="2.78" y1="4.57" x2="3.14" y2="-0.24" xlink:href="#linear-gradient-14"/><linearGradient id="linear-gradient-16" x1="3.6" x2="3.6" y2="0.61" gradientUnits="userSpaceOnUse"><stop offset="0" stop-color="#a4a6a9"/><stop offset="0.04" stop-color="#939598"/><stop offset="0.15" stop-color="#717375"/><stop offset="0.26" stop-color="#585a5b"/><stop offset="0.35" stop-color="#484a4b"/><stop offset="0.42" stop-color="#434546"/><stop offset="0.77" stop-color="#292727"/><stop offset="0.85" stop-color="#221f1f"/></linearGradient><filter id="luminosity-noclip-15" x="2.79" y="0" width="0.56" height="0.43" filterUnits="userSpaceOnUse" color-interpolation-filters="sRGB"><feFlood flood-color="#fff" result="bg"/><feBlend in="SourceGraphic" in2="bg"/></filter><mask id="mask-15" x="2.79" y="0" width="0.56" height="0.43" maskUnits="userSpaceOnUse"><g class="cls-19"><path class="cls-20" d="M3.28.25a.43.43,0,0,1,0-.25H2.88a.4.4,0,0,0,0,.42h.52A.48.48,0,0,1,3.28.25Z"/></g></mask><linearGradient id="linear-gradient-17" x1="3.07" y1="-0.02" x2="3.07" y2="0.39" gradientUnits="userSpaceOnUse"><stop offset="0.1" stop-color="#fff"/><stop offset="0.93" stop-color="#fff"/></linearGradient><linearGradient id="linear-gradient-18" x1="3.6" y1="0" x2="3.6" y2="0.43" xlink:href="#linear-gradient-16"/><linearGradient id="linear-gradient-19" x1="3.62" y1="4.55" x2="3.62" y2="5.12" xlink:href="#linear-gradient-16"/><filter id="luminosity-noclip-16" x="2.8" y="4.69" width="0.44" height="0.43" filterUnits="userSpaceOnUse" color-interpolation-filters="sRGB"><feFlood flood-color="#fff" result="bg"/><feBlend in="SourceGraphic" in2="bg"/></filter><mask id="mask-16" x="2.8" y="4.69" width="0.44" height="0.43" maskUnits="userSpaceOnUse"><g class="cls-21"><path class="cls-22" d="M3.17,5a.29.29,0,0,1,.07-.26H3a.28.28,0,0,0-.14.1A.2.2,0,0,0,2.87,5a.52.52,0,0,0,.11.1h.27A.3.3,0,0,1,3.17,5Z"/></g></mask><linearGradient id="linear-gradient-20" x1="3.03" y1="4.55" x2="3.03" y2="5.12" xlink:href="#linear-gradient-13"/><linearGradient id="linear-gradient-21" x1="3.62" y1="4.54" x2="3.62" y2="5.12" xlink:href="#linear-gradient-16"/><linearGradient id="linear-gradient-22" x1="2.23" y1="7.5" x2="4.93" y2="7.5" gradientUnits="userSpaceOnUse"><stop offset="0" stop-color="#a4a6a9"/><stop offset="0.05" stop-color="#939598"/><stop offset="0.17" stop-color="#717375"/><stop offset="0.28" stop-color="#585a5b"/><stop offset="0.38" stop-color="#484a4b"/><stop offset="0.46" stop-color="#434546"/><stop offset="0.52" stop-color="#3c3d3e"/><stop offset="0.72" stop-color="#292727"/><stop offset="0.85" stop-color="#221f1f"/></linearGradient><filter id="luminosity-noclip-17" x="1.96" y="5.35" width="3.34" height="4.3" filterUnits="userSpaceOnUse" color-interpolation-filters="sRGB"><feFlood flood-color="#fff" result="bg"/><feBlend in="SourceGraphic" in2="bg"/></filter><mask id="mask-17" x="1.96" y="5.35" width="3.34" height="4.3" maskUnits="userSpaceOnUse"><g class="cls-3"><path class="cls-4" d="M4.65,5.57V5.35l-1,0-1,0v.22S3.33,6.72,2,9.65H5.3C3.92,6.72,4.65,5.57,4.65,5.57Z"/></g></mask><linearGradient id="linear-gradient-23" x1="2.23" y1="7.5" x2="4.56" y2="7.5" xlink:href="#linear-gradient-13"/><filter id="luminosity-noclip-18" x="2.11" y="5.36" width="1.21" height="4.29" filterUnits="userSpaceOnUse" color-interpolation-filters="sRGB"><feFlood flood-color="#fff" result="bg"/><feBlend in="SourceGraphic" in2="bg"/></filter><mask id="mask-18" x="2.11" y="5.36" width="1.21" height="4.29" maskUnits="userSpaceOnUse"><g class="cls-5"><path class="cls-6" d="M3.32,7A5.91,5.91,0,0,0,3,5.37H2.79A3.92,3.92,0,0,1,2.94,7a7,7,0,0,1-.83,2.65h.76A6.3,6.3,0,0,0,3.32,7Z"/></g></mask><linearGradient id="linear-gradient-24" x1="2.72" y1="10.42" x2="2.72" y2="5.66" gradientUnits="userSpaceOnUse"><stop offset="0.08" stop-color="#fff"/><stop offset="0.95" stop-color="#fff"/></linearGradient><linearGradient id="linear-gradient-25" x1="3.62" y1="4.93" x2="3.62" y2="5.59" xlink:href="#linear-gradient-16"/><filter id="luminosity-noclip-19" x="2.63" y="5.09" width="0.49" height="0.49" filterUnits="userSpaceOnUse" color-interpolation-filters="sRGB"><feFlood flood-color="#fff" result="bg"/><feBlend in="SourceGraphic" in2="bg"/></filter><mask id="mask-19" x="2.63" y="5.09" width="0.49" height="0.49" maskUnits="userSpaceOnUse"><g class="cls-7"><path class="cls-8" d="M3,5.42a.26.26,0,0,1,.13-.33H2.82a.24.24,0,0,0-.13.09.2.2,0,0,0,0,.25.58.58,0,0,0,.11.15h.35A.41.41,0,0,1,3,5.42Z"/></g></mask><linearGradient id="linear-gradient-26" x1="2.88" y1="4.93" x2="2.88" y2="5.59" xlink:href="#linear-gradient-13"/><linearGradient id="linear-gradient-27" x1="3.62" y1="4.93" x2="3.62" y2="5.59" xlink:href="#linear-gradient-16"/><linearGradient id="linear-gradient-28" x1="1.14" y1="9.92" x2="4.22" y2="9.92" gradientUnits="userSpaceOnUse"><stop offset="0" stop-color="#221f1f"/><stop offset="0.2" stop-color="#a4a6a9"/><stop offset="0.25" stop-color="#939598"/><stop offset="0.35" stop-color="#717375"/><stop offset="0.45" stop-color="#585a5b"/><stop offset="0.53" stop-color="#484a4b"/><stop offset="0.6" stop-color="#434546"/><stop offset="0.92" stop-color="#292727"/><stop offset="1" stop-color="#221f1f"/></linearGradient><linearGradient id="linear-gradient-29" x1="0.98" y1="11.13" x2="5.63" y2="11.13" xlink:href="#linear-gradient-16"/><filter id="luminosity-noclip-20" x="0.74" y="10.19" width="5.76" height="1.9" filterUnits="userSpaceOnUse" color-interpolation-filters="sRGB"><feFlood flood-color="#fff" result="bg"/><feBlend in="SourceGraphic" in2="bg"/></filter><mask id="mask-20" x="0.74" y="10.19" width="5.76" height="1.9" maskUnits="userSpaceOnUse"><g class="cls-9"><path class="cls-10" d="M6.42,11.2,6.18,11,6,10.79l-.65-.6H1.94l-.65.6-.21.2-.25.21a.23.23,0,0,0-.08.22.5.5,0,0,0,.18.23l.47.43H5.85l.47-.43a.5.5,0,0,0,.18-.23A.23.23,0,0,0,6.42,11.2Z"/></g></mask><linearGradient id="linear-gradient-30" x1="0.98" y1="11.13" x2="5.63" y2="11.13" xlink:href="#linear-gradient-13"/><filter id="luminosity-noclip-21" x="0.9" y="10.19" width="1.75" height="1.9" filterUnits="userSpaceOnUse" color-interpolation-filters="sRGB"><feFlood flood-color="#fff" result="bg"/><feBlend in="SourceGraphic" in2="bg"/></filter><mask id="mask-21" x="0.9" y="10.19" width="1.75" height="1.9" maskUnits="userSpaceOnUse"><g class="cls-11"><path class="cls-12" d="M2.65,10.19H2.22c-.11.13-1.13,1.12-1.32,1.27,0,.08,0,.13,0,.19l.47.43h.16A9,9,0,0,1,2.65,10.19Z"/></g></mask><linearGradient id="linear-gradient-31" x1="1.33" y1="11.66" x2="2.68" y2="10.13" xlink:href="#linear-gradient-24"/><linearGradient id="linear-gradient-32" x1="-0.4" y1="11.73" x2="4.96" y2="11.73" xlink:href="#linear-gradient-28"/><linearGradient id="linear-gradient-33" x1="0.06" y1="12.2" x2="4.34" y2="12.2" xlink:href="#linear-gradient-16"/><linearGradient id="linear-gradient-34" x1="0" y1="12.97" x2="7.29" y2="12.97" xlink:href="#linear-gradient-16"/><filter id="luminosity-noclip-22" x="0.54" y="12.37" width="1.67" height="1.21" filterUnits="userSpaceOnUse" color-interpolation-filters="sRGB"><feFlood flood-color="#fff" result="bg"/><feBlend in="SourceGraphic" in2="bg"/></filter><mask id="mask-22" x="0.54" y="12.37" width="1.67" height="1.21" maskUnits="userSpaceOnUse"><g class="cls-15"><path class="cls-16" d="M1.42,12.37a1.47,1.47,0,0,0-.88,1.21H1.85a1.9,1.9,0,0,1,.35-1.21Z"/></g></mask><linearGradient id="linear-gradient-35" x1="1.35" y1="13.68" x2="1.41" y2="11.52" gradientUnits="userSpaceOnUse"><stop offset="0.08" stop-color="#fff"/><stop offset="0.74" stop-color="#fff"/></linearGradient></defs><title>black-bishop</title><g class="cls-23"><g id="Layer_2" data-name="Layer 2"><g id="Layer_1-2" data-name="Layer 1"><path class="cls-24" d="M4.41.42a.27.27,0,0,0-.2-.13H3a.27.27,0,0,0-.2.13l-.28.63.7,1.35S3,2.63,3,2.63s-.5-.82-.68-1.13a9.45,9.45,0,0,0-.58,1.62c0,.39,1,1.62,1,1.62H4.47s1-1.23,1-1.62A22.17,22.17,0,0,0,4.41.42Z"/><path d="M2.57,2.25a1,1,0,0,0,.15.25A.45.45,0,0,0,3,2.64s-.49-.82-.68-1.14A5,5,0,0,0,2.57,2.25Z"/><path d="M4.41.42a.27.27,0,0,0-.2-.13H3.47a3.54,3.54,0,0,1,.68.82,4.07,4.07,0,0,1,.57,1.51,1.79,1.79,0,0,1-1.82,2,1.45,1.45,0,0,1-.3-.06l.14.18H4.47s1-1.23,1-1.62A22.17,22.17,0,0,0,4.41.42Z"/><g class="cls-25"><path class="cls-26" d="M4.41.42a.27.27,0,0,0-.2-.13H3a.27.27,0,0,0-.2.13l-.28.63.7,1.35S3,2.63,3,2.63s-.5-.82-.68-1.13a9.45,9.45,0,0,0-.58,1.62c0,.39,1,1.62,1,1.62H4.47s1-1.23,1-1.62A22.17,22.17,0,0,0,4.41.42Z"/></g><g class="cls-27"><path class="cls-28" d="M3.35.29H2.93l-.29,1L3,2A11.14,11.14,0,0,1,3.35.29Z"/></g><g class="cls-29"><path class="cls-30" d="M2.9,2.89c0-.13,0-.26,0-.39S2.65,2,2.5,1.79a4.94,4.94,0,0,0-.2,1.26,2.35,2.35,0,0,0,.84,1.69h.23A2.31,2.31,0,0,1,2.9,2.89Z"/></g><path class="cls-31" d="M4.35.43H2.86A.22.22,0,0,1,2.64.21.22.22,0,0,1,2.86,0H4.35a.22.22,0,0,1,.22.21A.22.22,0,0,1,4.35.43Z"/><g class="cls-32"><path class="cls-33" d="M3.28.25a.43.43,0,0,1,0-.25H2.88a.4.4,0,0,0,0,.42h.52A.48.48,0,0,1,3.28.25Z"/></g><path class="cls-34" d="M2.7.3h0a.22.22,0,0,0,.2.13H4.35A.22.22,0,0,0,4.55.3Z"/><path class="cls-35" d="M4.5,5.11H2.74a.21.21,0,0,1,0-.42H4.5a.21.21,0,0,1,0,.42Z"/><g class="cls-36"><path class="cls-37" d="M3.17,5a.29.29,0,0,1,.07-.26H3a.28.28,0,0,0-.14.1A.2.2,0,0,0,2.87,5a.52.52,0,0,0,.11.1h.27A.3.3,0,0,1,3.17,5Z"/></g><path class="cls-38" d="M2.53,4.87v0a.21.21,0,0,0,.21.21H4.5a.21.21,0,0,0,.21-.21v0Z"/><path class="cls-39" d="M4.65,5.57V5.35l-1,0-1,0v.22S3.33,6.72,2,9.65H5.3C3.92,6.72,4.65,5.57,4.65,5.57Z"/><path d="M4.66,5.35l-.7,0A2.3,2.3,0,0,0,3.78,6a4.1,4.1,0,0,0,0,1.44,8.61,8.61,0,0,0,.79,2.25H5.3c-1.38-2.93-.65-4.08-.65-4.08Z"/><g class="cls-40"><path class="cls-41" d="M4.65,5.57V5.35l-1,0-1,0v.22S3.33,6.72,2,9.65H5.3C3.92,6.72,4.65,5.57,4.65,5.57Z"/></g><g class="cls-42"><path class="cls-43" d="M3.32,7A5.91,5.91,0,0,0,3,5.37H2.79A3.92,3.92,0,0,1,2.94,7a7,7,0,0,1-.83,2.65h.76A6.3,6.3,0,0,0,3.32,7Z"/></g><path class="cls-44" d="M4.63,5.58h-2a.25.25,0,1,1,0-.49h2a.25.25,0,0,1,0,.49Z"/><g class="cls-45"><path class="cls-46" d="M3,5.42a.26.26,0,0,1,.13-.33H2.82a.24.24,0,0,0-.13.09.2.2,0,0,0,0,.25.58.58,0,0,0,.11.15h.35A.41.41,0,0,1,3,5.42Z"/></g><path class="cls-47" d="M2.38,5.3s0,0,0,0a.25.25,0,0,0,.25.24h2a.24.24,0,0,0,.24-.24v0Z"/><path class="cls-48" d="M5.29,9.65H2a.28.28,0,0,1,0,.54H5.31A.28.28,0,0,1,5.29,9.65Z"/><path d="M5.29,9.65h-1a.33.33,0,0,0-.12.17.28.28,0,0,0,.17.37h1A.28.28,0,0,1,5.29,9.65Z"/><path class="cls-49" d="M6.42,11.2,6.18,11,6,10.79l-.65-.6H1.94l-.65.6-.21.2-.25.21a.23.23,0,0,0-.08.22.5.5,0,0,0,.18.23l.47.43H5.85l.47-.43a.5.5,0,0,0,.18-.23A.23.23,0,0,0,6.42,11.2Z"/><path d="M6.42,11.2,6.18,11,6,10.79l-.65-.6H4.83c.15.17.3.34.44.53s.43.43.4.65a.88.88,0,0,1-.22.49l-.2.22h.6l.47-.43a.5.5,0,0,0,.18-.23A.23.23,0,0,0,6.42,11.2Z"/><g class="cls-50"><path class="cls-51" d="M6.42,11.2,6.18,11,6,10.79l-.65-.6H1.94l-.65.6-.21.2-.25.21a.23.23,0,0,0-.08.22.5.5,0,0,0,.18.23l.47.43H5.85l.47-.43a.5.5,0,0,0,.18-.23A.23.23,0,0,0,6.42,11.2Z"/></g><g class="cls-52"><path class="cls-53" d="M2.65,10.19H2.22c-.11.13-1.13,1.12-1.32,1.27,0,.08,0,.13,0,.19l.47.43h.16A9,9,0,0,1,2.65,10.19Z"/></g><path class="cls-54" d="M.75,11.38v0a.5.5,0,0,0,.18.23l.47.43H5.85l.47-.43a.5.5,0,0,0,.18-.23.08.08,0,0,0,0,0Z"/><path d="M4.84,11.38a.74.74,0,0,1-.2.23,1.76,1.76,0,0,1-.93.42l-.27,0H5.85l.47-.43a.5.5,0,0,0,.18-.23.08.08,0,0,0,0,0Z"/><path class="cls-55" d="M6.37,12.29A.28.28,0,0,0,6.09,12H1.19a.29.29,0,0,0-.28.29s0,.09,0,.11H6.37A.41.41,0,0,0,6.37,12.29Z"/><g class="cls-56"><path class="cls-57" d="M6.37,12.25H.92a.06.06,0,0,0,0,0s0,.09,0,.11H6.37a.41.41,0,0,0,0-.11Z"/></g><path class="cls-58" d="M7.29,13.58a1.1,1.1,0,0,0-.93-1.21H.93A1.1,1.1,0,0,0,0,13.58H7.29Z"/><path class="cls-59" d="M6.36,12.37H5.15a4.19,4.19,0,0,1-1.75.9,7.25,7.25,0,0,1-1.47.31H7.29A1.1,1.1,0,0,0,6.36,12.37Z"/><g class="cls-60"><g class="cls-61"><path class="cls-62" d="M1.42,12.37a1.47,1.47,0,0,0-.88,1.21H1.85a1.9,1.9,0,0,1,.35-1.21Z"/></g></g></g></g></g></svg>