<svg xmlns="http://www.w3.org/2000/svg" xmlns:xlink="http://www.w3.org/1999/xlink" viewBox="0 0 7.28 14.86"><defs><style>.cls-1{mask:url(#mask);filter:url(#luminosity-noclip-13);}.cls-10,.cls-12,.cls-14,.cls-16,.cls-18,.cls-2,.cls-20,.cls-22,.cls-24,.cls-31,.cls-34,.cls-4,.cls-42,.cls-54,.cls-55,.cls-6,.cls-65,.cls-69,.cls-8{mix-blend-mode:multiply;}.cls-2{fill:url(#linear-gradient);}.cls-3{mask:url(#mask-2);filter:url(#luminosity-noclip-18);}.cls-4{fill:url(#linear-gradient-2);}.cls-5{mask:url(#mask-3);filter:url(#luminosity-noclip-19);}.cls-6{fill:url(#linear-gradient-3);}.cls-7{mask:url(#mask-4);filter:url(#luminosity-noclip-20);}.cls-8{fill:url(#linear-gradient-4);}.cls-9{mask:url(#mask-5);filter:url(#luminosity-noclip-21);}.cls-10{fill:url(#linear-gradient-5);}.cls-11{mask:url(#mask-6);filter:url(#luminosity-noclip-22);}.cls-12{fill:url(#linear-gradient-6);}.cls-13{mask:url(#mask-7);filter:url(#luminosity-noclip-14);}.cls-14{fill:url(#linear-gradient-7);}.cls-15{mask:url(#mask-8);filter:url(#luminosity-noclip-23);}.cls-16{fill:url(#linear-gradient-8);}.cls-17{mask:url(#mask-9);filter:url(#luminosity-noclip-24);}.cls-18{fill:url(#linear-gradient-9);}.cls-19{mask:url(#mask-10);filter:url(#luminosity-noclip-15);}.cls-20{fill:url(#linear-gradient-10);}.cls-21{mask:url(#mask-11);filter:url(#luminosity-noclip-16);}.cls-22{fill:url(#linear-gradient-11);}.cls-23{mask:url(#mask-12);filter:url(#luminosity-noclip-17);}.cls-24{fill:url(#linear-gradient-12);}.cls-25{isolation:isolate;}.cls-26{fill:url(#linear-gradient-13);}.cls-27{mask:url(#mask-13);}.cls-28,.cls-30,.cls-31,.cls-34,.cls-39,.cls-41,.cls-42,.cls-45,.cls-51,.cls-53,.cls-59,.cls-61,.cls-64,.cls-65,.cls-68,.cls-69,.cls-71{opacity:0.5;}.cls-28,.cls-30,.cls-39,.cls-41,.cls-45,.cls-46,.cls-51,.cls-53,.cls-59,.cls-61,.cls-64,.cls-68,.cls-71{mix-blend-mode:screen;}.cls-28{fill:url(#linear-gradient-14);}.cls-29{mask:url(#mask-14);}.cls-30{fill:url(#linear-gradient-15);}.cls-31{fill:#d0d0d1;}.cls-32{fill:url(#linear-gradient-16);}.cls-33{fill:url(#linear-gradient-17);}.cls-35{fill:#b9b8b9;}.cls-36{fill:url(#linear-gradient-18);}.cls-37{fill:url(#linear-gradient-19);}.cls-38{mask:url(#mask-15);}.cls-39{fill:url(#linear-gradient-20);}.cls-40{mask:url(#mask-16);}.cls-41{fill:url(#linear-gradient-21);}.cls-42{fill:url(#linear-gradient-22);}.cls-43{fill:url(#linear-gradient-23);}.cls-44{mask:url(#mask-17);}.cls-45{fill:url(#linear-gradient-24);}.cls-47{fill:url(#linear-gradient-25);}.cls-48{fill:url(#linear-gradient-26);}.cls-49{fill:url(#linear-gradient-27);}.cls-50{mask:url(#mask-18);}.cls-51{fill:url(#linear-gradient-28);}.cls-52{mask:url(#mask-19);}.cls-53{fill:url(#linear-gradient-29);}.cls-54{fill:url(#linear-gradient-30);}.cls-55{fill:url(#linear-gradient-31);}.cls-56{fill:url(#linear-gradient-32);}.cls-57{fill:url(#linear-gradient-33);}.cls-58{mask:url(#mask-20);}.cls-59{fill:url(#linear-gradient-34);}.cls-60{mask:url(#mask-21);}.cls-61{fill:url(#linear-gradient-35);}.cls-62{fill:url(#linear-gradient-36);}.cls-63{mask:url(#mask-22);}.cls-64{fill:url(#linear-gradient-37);}.cls-65{fill:url(#linear-gradient-38);}.cls-66{fill:url(#linear-gradient-39);}.cls-67{mask:url(#mask-23);}.cls-68{fill:url(#linear-gradient-40);}.cls-69{fill:url(#linear-gradient-41);}.cls-70{fill:url(#linear-gradient-42);}.cls-72{mask:url(#mask-24);}.cls-73{fill:url(#linear-gradient-43);}.cls-74{filter:url(#luminosity-noclip-12);}.cls-75{filter:url(#luminosity-noclip-11);}.cls-76{filter:url(#luminosity-noclip-10);}.cls-77{filter:url(#luminosity-noclip-9);}.cls-78{filter:url(#luminosity-noclip-8);}.cls-79{filter:url(#luminosity-noclip-7);}.cls-80{filter:url(#luminosity-noclip-6);}.cls-81{filter:url(#luminosity-noclip-5);}.cls-82{filter:url(#luminosity-noclip-4);}.cls-83{filter:url(#luminosity-noclip-3);}.cls-84{filter:url(#luminosity-noclip-2);}.cls-85{filter:url(#luminosity-noclip);}</style><filter id="luminosity-noclip" x="0.75" y="-8188.31" width="5.78" height="32766" filterUnits="userSpaceOnUse" color-interpolation-filters="sRGB"><feFlood flood-color="#fff" result="bg"/><feBlend in="SourceGraphic" in2="bg"/></filter><mask id="mask" x="0.75" y="-8188.31" width="5.78" height="32766" maskUnits="userSpaceOnUse"><g class="cls-85"/></mask><linearGradient id="linear-gradient" x1="1726.48" y1="11.77" x2="1729.83" y2="11.77" gradientTransform="translate(-1725.62)" gradientUnits="userSpaceOnUse"><stop offset="0" stop-color="#fff"/><stop offset="0.13" stop-color="#e0e0e0"/><stop offset="0.41" stop-color="#909090"/><stop offset="0.83" stop-color="#111"/><stop offset="0.88"/></linearGradient><filter id="luminosity-noclip-2" x="1.44" y="-8188.31" width="4.41" height="32766" filterUnits="userSpaceOnUse" color-interpolation-filters="sRGB"><feFlood flood-color="#fff" result="bg"/><feBlend in="SourceGraphic" in2="bg"/></filter><mask id="mask-2" x="1.44" y="-8188.31" width="4.41" height="32766" maskUnits="userSpaceOnUse"><g class="cls-84"/></mask><linearGradient id="linear-gradient-2" x1="1727.57" y1="2.51" x2="1729.57" y2="2.51" xlink:href="#linear-gradient"/><filter id="luminosity-noclip-3" x="2.03" y="-8188.31" width="1.01" height="32766" filterUnits="userSpaceOnUse" color-interpolation-filters="sRGB"><feFlood flood-color="#fff" result="bg"/><feBlend in="SourceGraphic" in2="bg"/></filter><mask id="mask-3" x="2.03" y="-8188.31" width="1.01" height="32766" maskUnits="userSpaceOnUse"><g class="cls-83"/></mask><linearGradient id="linear-gradient-3" x1="1728.07" y1="1.39" x2="1728.95" y2="5.93" xlink:href="#linear-gradient"/><filter id="luminosity-noclip-4" x="1.49" y="-8188.31" width="4.3" height="32766" filterUnits="userSpaceOnUse" color-interpolation-filters="sRGB"><feFlood flood-color="#fff" result="bg"/><feBlend in="SourceGraphic" in2="bg"/></filter><mask id="mask-4" x="1.49" y="-8188.31" width="4.3" height="32766" maskUnits="userSpaceOnUse"><g class="cls-82"/></mask><linearGradient id="linear-gradient-4" x1="1727.55" y1="8.03" x2="1729.65" y2="8.03" xlink:href="#linear-gradient"/><filter id="luminosity-noclip-5" x="1.81" y="-8188.31" width="1.44" height="32766" filterUnits="userSpaceOnUse" color-interpolation-filters="sRGB"><feFlood flood-color="#fff" result="bg"/><feBlend in="SourceGraphic" in2="bg"/></filter><mask id="mask-5" x="1.81" y="-8188.31" width="1.44" height="32766" maskUnits="userSpaceOnUse"><g class="cls-81"/></mask><linearGradient id="linear-gradient-5" x1="1728.15" y1="11.58" x2="1728.15" y2="4.43" xlink:href="#linear-gradient"/><filter id="luminosity-noclip-6" x="2.48" y="-8188.31" width="0.51" height="32766" filterUnits="userSpaceOnUse" color-interpolation-filters="sRGB"><feFlood flood-color="#fff" result="bg"/><feBlend in="SourceGraphic" in2="bg"/></filter><mask id="mask-6" x="2.48" y="-8188.31" width="0.51" height="32766" maskUnits="userSpaceOnUse"><g class="cls-80"/></mask><linearGradient id="linear-gradient-6" x1="1728.36" y1="4.43" x2="1728.36" y2="4.88" xlink:href="#linear-gradient"/><filter id="luminosity-noclip-7" x="1.24" y="-8188.31" width="1.51" height="32766" filterUnits="userSpaceOnUse" color-interpolation-filters="sRGB"><feFlood flood-color="#fff" result="bg"/><feBlend in="SourceGraphic" in2="bg"/></filter><mask id="mask-7" x="1.24" y="-8188.31" width="1.51" height="32766" maskUnits="userSpaceOnUse"><g class="cls-79"/></mask><linearGradient id="linear-gradient-7" x1="1727.61" y1="12.4" x2="1727.61" y2="10.96" xlink:href="#linear-gradient"/><filter id="luminosity-noclip-8" x="2.44" y="-8188.31" width="0.5" height="32766" filterUnits="userSpaceOnUse" color-interpolation-filters="sRGB"><feFlood flood-color="#fff" result="bg"/><feBlend in="SourceGraphic" in2="bg"/></filter><mask id="mask-8" x="2.44" y="-8188.31" width="0.5" height="32766" maskUnits="userSpaceOnUse"><g class="cls-78"/></mask><linearGradient id="linear-gradient-8" x1="1728.3" y1="4.79" x2="1728.3" y2="5.32" xlink:href="#linear-gradient"/><filter id="luminosity-noclip-9" x="0.49" y="-8188.31" width="1.67" height="32766" filterUnits="userSpaceOnUse" color-interpolation-filters="sRGB"><feFlood flood-color="#fff" result="bg"/><feBlend in="SourceGraphic" in2="bg"/></filter><mask id="mask-9" x="0.49" y="-8188.31" width="1.67" height="32766" maskUnits="userSpaceOnUse"><g class="cls-77"/></mask><linearGradient id="linear-gradient-9" x1="1726.92" y1="14.93" x2="1726.98" y2="12.78" gradientTransform="translate(-1725.62)" gradientUnits="userSpaceOnUse"><stop offset="0.08" stop-color="#fff"/><stop offset="0.15" stop-color="#dbdbdb"/><stop offset="0.27" stop-color="#9a9a9a"/><stop offset="0.39" stop-color="#636363"/><stop offset="0.5" stop-color="#383838"/><stop offset="0.6" stop-color="#191919"/><stop offset="0.68" stop-color="#070707"/><stop offset="0.74"/></linearGradient><filter id="luminosity-noclip-10" x="3.28" y="-8188.31" width="0.77" height="32766" filterUnits="userSpaceOnUse" color-interpolation-filters="sRGB"><feFlood flood-color="#fff" result="bg"/><feBlend in="SourceGraphic" in2="bg"/></filter><mask id="mask-10" x="3.28" y="-8188.31" width="0.77" height="32766" maskUnits="userSpaceOnUse"><g class="cls-76"/></mask><linearGradient id="linear-gradient-10" x1="1729.04" y1="0.03" x2="1729.5" y2="0.61" xlink:href="#linear-gradient"/><filter id="luminosity-noclip-11" x="3.28" y="-8188.31" width="0.61" height="32766" filterUnits="userSpaceOnUse" color-interpolation-filters="sRGB"><feFlood flood-color="#fff" result="bg"/><feBlend in="SourceGraphic" in2="bg"/></filter><mask id="mask-11" x="3.28" y="-8188.31" width="0.61" height="32766" maskUnits="userSpaceOnUse"><g class="cls-75"/></mask><linearGradient id="linear-gradient-11" x1="1729.03" y1="0.04" x2="1729.5" y2="0.62" xlink:href="#linear-gradient"/><filter id="luminosity-noclip-12" x="1.78" y="-8188.31" width="3.78" height="32766" filterUnits="userSpaceOnUse" color-interpolation-filters="sRGB"><feFlood flood-color="#fff" result="bg"/><feBlend in="SourceGraphic" in2="bg"/></filter><mask id="mask-12" x="1.78" y="-8188.31" width="3.78" height="32766" maskUnits="userSpaceOnUse"><g class="cls-74"/></mask><linearGradient id="linear-gradient-12" x1="1727.87" y1="1.63" x2="1730.78" y2="1.63" xlink:href="#linear-gradient"/><linearGradient id="linear-gradient-13" x1="1726.93" y1="11.77" x2="1731.51" y2="11.77" gradientTransform="translate(-1725.62)" gradientUnits="userSpaceOnUse"><stop offset="0" stop-color="#e2e2e2"/><stop offset="0.09" stop-color="#d8d8d8"/><stop offset="0.27" stop-color="#c8c8c8"/><stop offset="0.42" stop-color="#c3c3c3"/><stop offset="0.85" stop-color="#b9b8b9"/></linearGradient><filter id="luminosity-noclip-13" x="0.75" y="10.86" width="5.78" height="1.84" filterUnits="userSpaceOnUse" color-interpolation-filters="sRGB"><feFlood flood-color="#fff" result="bg"/><feBlend in="SourceGraphic" in2="bg"/></filter><mask id="mask-13" x="0.75" y="10.86" width="5.78" height="1.84" maskUnits="userSpaceOnUse"><g class="cls-1"><polygon class="cls-2" points="5.28 11.15 4.42 10.86 4.15 11.12 3.64 11.12 3.13 11.12 2.61 10.9 2.01 11.15 0.75 12.43 3.7 12.69 6.53 12.43 5.28 11.15"/></g></mask><linearGradient id="linear-gradient-14" x1="1726.48" y1="11.77" x2="1729.83" y2="11.77" gradientTransform="translate(-1725.62)" gradientUnits="userSpaceOnUse"><stop offset="0" stop-color="#fff"/><stop offset="0.48" stop-color="#e0e0e0"/><stop offset="0.88" stop-color="#c3c3c3"/></linearGradient><filter id="luminosity-noclip-14" x="1.24" y="11.05" width="1.51" height="1.49" filterUnits="userSpaceOnUse" color-interpolation-filters="sRGB"><feFlood flood-color="#fff" result="bg"/><feBlend in="SourceGraphic" in2="bg"/></filter><mask id="mask-14" x="1.24" y="11.05" width="1.51" height="1.49" maskUnits="userSpaceOnUse"><g class="cls-13"><path class="cls-14" d="M2.28,11.05c-.36.45-1,1.36-1,1.42l.86.08c.06-.1.47-1.05.65-1.49Z"/></g></mask><linearGradient id="linear-gradient-15" x1="1727.61" y1="12.4" x2="1727.61" y2="10.96" xlink:href="#linear-gradient-14"/><linearGradient id="linear-gradient-16" x1="1726.37" y1="12.9" x2="1732.16" y2="12.9" gradientTransform="translate(-1725.62)" gradientUnits="userSpaceOnUse"><stop offset="0" stop-color="#e2e2e2"/><stop offset="0.01" stop-color="#dadada"/><stop offset="0.04" stop-color="#cdcdcd"/><stop offset="0.09" stop-color="#c5c5c5"/><stop offset="0.17" stop-color="#c3c3c3"/><stop offset="0.44" stop-color="#bdbcbd"/><stop offset="0.85" stop-color="#b9b8b9"/></linearGradient><linearGradient id="linear-gradient-17" x1="1725.68" y1="13.48" x2="1729.96" y2="13.48" xlink:href="#linear-gradient-13"/><linearGradient id="linear-gradient-18" x1="1725.62" y1="14.25" x2="1732.91" y2="14.25" xlink:href="#linear-gradient-13"/><linearGradient id="linear-gradient-19" x1="1729.04" y1="0.03" x2="1729.5" y2="0.61" xlink:href="#linear-gradient-13"/><filter id="luminosity-noclip-15" x="3.28" y="0" width="0.77" height="0.68" filterUnits="userSpaceOnUse" color-interpolation-filters="sRGB"><feFlood flood-color="#fff" result="bg"/><feBlend in="SourceGraphic" in2="bg"/></filter><mask id="mask-15" x="3.28" y="0" width="0.77" height="0.68" maskUnits="userSpaceOnUse"><g class="cls-19"><path class="cls-20" d="M4.05.34a.36.36,0,0,1-.38.34A.37.37,0,0,1,3.28.34.37.37,0,0,1,3.67,0,.36.36,0,0,1,4.05.34Z"/></g></mask><linearGradient id="linear-gradient-20" x1="1729.04" y1="0.03" x2="1729.5" y2="0.61" xlink:href="#linear-gradient-14"/><filter id="luminosity-noclip-16" x="3.28" y="0" width="0.61" height="0.51" filterUnits="userSpaceOnUse" color-interpolation-filters="sRGB"><feFlood flood-color="#fff" result="bg"/><feBlend in="SourceGraphic" in2="bg"/></filter><mask id="mask-16" x="3.28" y="0" width="0.61" height="0.51" maskUnits="userSpaceOnUse"><g class="cls-21"><path class="cls-22" d="M3.74.47a.27.27,0,0,0,0-.45L3.67,0a.37.37,0,0,0-.39.34v0C3.31.52,3.6.54,3.74.47Z"/></g></mask><linearGradient id="linear-gradient-21" x1="1729.03" y1="0.04" x2="1729.5" y2="0.62" xlink:href="#linear-gradient-14"/><linearGradient id="linear-gradient-22" x1="1729.04" y1="0.03" x2="1729.72" y2="0.88" xlink:href="#linear-gradient-13"/><linearGradient id="linear-gradient-23" x1="1729.29" y1="0.47" x2="1729.29" y2="1.79" xlink:href="#linear-gradient-13"/><filter id="luminosity-noclip-17" x="1.78" y="0.62" width="3.78" height="2.02" filterUnits="userSpaceOnUse" color-interpolation-filters="sRGB"><feFlood flood-color="#fff" result="bg"/><feBlend in="SourceGraphic" in2="bg"/></filter><mask id="mask-17" x="1.78" y="0.62" width="3.78" height="2.02" maskUnits="userSpaceOnUse"><g class="cls-23"><path class="cls-24" d="M5.56,1.63c0,.56-.84,1-1.89,1s-1.89-.45-1.89-1,.85-1,1.89-1S5.56,1.07,5.56,1.63Z"/></g></mask><linearGradient id="linear-gradient-24" x1="1727.87" y1="1.63" x2="1730.78" y2="1.63" xlink:href="#linear-gradient-14"/><linearGradient id="linear-gradient-25" x1="1728.48" y1="0.47" x2="1728.48" y2="1.77" xlink:href="#linear-gradient-13"/><linearGradient id="linear-gradient-26" x1="1729.83" y1="0.47" x2="1729.83" y2="1.79" xlink:href="#linear-gradient-13"/><linearGradient id="linear-gradient-27" x1="1727.59" y1="2.51" x2="1731.17" y2="2.51" xlink:href="#linear-gradient-13"/><filter id="luminosity-noclip-18" x="1.44" y="0.77" width="4.41" height="3.48" filterUnits="userSpaceOnUse" color-interpolation-filters="sRGB"><feFlood flood-color="#fff" result="bg"/><feBlend in="SourceGraphic" in2="bg"/></filter><mask id="mask-18" x="1.44" y="0.77" width="4.41" height="3.48" maskUnits="userSpaceOnUse"><g class="cls-3"><path class="cls-4" d="M5.85,1.18a.6.6,0,0,1-.53.35A.58.58,0,0,1,4.74,1h0a.57.57,0,0,1-.52.34A.59.59,0,0,1,3.64.77h0a.58.58,0,0,1-.57.53A.56.56,0,0,1,2.55,1h0A.58.58,0,0,1,2,1.52a.57.57,0,0,1-.52-.34h0l1,3.07h2.4l1-3.07Z"/></g></mask><linearGradient id="linear-gradient-28" x1="1727.57" y1="2.51" x2="1729.57" y2="2.51" xlink:href="#linear-gradient-14"/><filter id="luminosity-noclip-19" x="2.03" y="1.03" width="1.01" height="3.22" filterUnits="userSpaceOnUse" color-interpolation-filters="sRGB"><feFlood flood-color="#fff" result="bg"/><feBlend in="SourceGraphic" in2="bg"/></filter><mask id="mask-19" x="2.03" y="1.03" width="1.01" height="3.22" maskUnits="userSpaceOnUse"><g class="cls-5"><path class="cls-6" d="M3,4.16c0-.23,0-1.91,0-2.52a.37.37,0,0,1-.29-.22c0-.09-.08-.17-.11-.25l0-.14a.62.62,0,0,1,0,.13.78.78,0,0,1,0,.21v0A.46.46,0,0,1,2,1.75c.17.62.64,2.26.68,2.5H3Z"/></g></mask><linearGradient id="linear-gradient-29" x1="1728.07" y1="1.39" x2="1728.95" y2="5.93" xlink:href="#linear-gradient-14"/><linearGradient id="linear-gradient-30" x1="1727.06" y1="1.29" x2="1731.47" y2="1.29" xlink:href="#linear-gradient-13"/><linearGradient id="linear-gradient-31" x1="1727.06" y1="1.37" x2="1731.47" y2="1.37" xlink:href="#linear-gradient-13"/><linearGradient id="linear-gradient-32" x1="1727.7" y1="4.38" x2="1730.32" y2="4.38" gradientTransform="translate(-1725.62)" gradientUnits="userSpaceOnUse"><stop offset="0" stop-color="#e2e2e2"/><stop offset="0" stop-color="#e1e1e1"/><stop offset="0.08" stop-color="#cfcfcf"/><stop offset="0.18" stop-color="#c2c2c2"/><stop offset="0.3" stop-color="#bbbabb"/><stop offset="0.56" stop-color="#b9b8b9"/></linearGradient><linearGradient id="linear-gradient-33" x1="1727.63" y1="8.03" x2="1731.93" y2="8.03" xlink:href="#linear-gradient-13"/><filter id="luminosity-noclip-20" x="1.49" y="5.23" width="4.3" height="5.6" filterUnits="userSpaceOnUse" color-interpolation-filters="sRGB"><feFlood flood-color="#fff" result="bg"/><feBlend in="SourceGraphic" in2="bg"/></filter><mask id="mask-20" x="1.49" y="5.23" width="4.3" height="5.6" maskUnits="userSpaceOnUse"><g class="cls-7"><path class="cls-8" d="M4.87,5.23H2.42s1.07,1.4-.93,5.44l2,.16h.38l1.93-.16C3.79,6.63,4.87,5.23,4.87,5.23Z"/></g></mask><linearGradient id="linear-gradient-34" x1="1727.55" y1="8.03" x2="1729.65" y2="8.03" xlink:href="#linear-gradient-14"/><filter id="luminosity-noclip-21" x="1.81" y="5.22" width="1.44" height="5.53" filterUnits="userSpaceOnUse" color-interpolation-filters="sRGB"><feFlood flood-color="#fff" result="bg"/><feBlend in="SourceGraphic" in2="bg"/></filter><mask id="mask-21" x="1.81" y="5.22" width="1.44" height="5.53" maskUnits="userSpaceOnUse"><g class="cls-9"><path class="cls-10" d="M1.81,10.68l.94.07a26.05,26.05,0,0,0,.47-2.93,5.62,5.62,0,0,0-.29-2.6H2.64c.33.21.4,1.89.09,3A9.42,9.42,0,0,1,1.81,10.68Z"/></g></mask><linearGradient id="linear-gradient-35" x1="1728.15" y1="11.58" x2="1728.15" y2="4.43" xlink:href="#linear-gradient-14"/><linearGradient id="linear-gradient-36" x1="1727.9" y1="4.69" x2="1730.63" y2="4.69" xlink:href="#linear-gradient-16"/><filter id="luminosity-noclip-22" x="2.48" y="4.5" width="0.51" height="0.37" filterUnits="userSpaceOnUse" color-interpolation-filters="sRGB"><feFlood flood-color="#fff" result="bg"/><feBlend in="SourceGraphic" in2="bg"/></filter><mask id="mask-22" x="2.48" y="4.5" width="0.51" height="0.37" maskUnits="userSpaceOnUse"><g class="cls-11"><path class="cls-12" d="M2.9,4.82A.26.26,0,0,1,3,4.5H2.63c-.1,0-.19.13-.13.26a.26.26,0,0,0,.07.11h.37A.1.1,0,0,1,2.9,4.82Z"/></g></mask><linearGradient id="linear-gradient-37" x1="1728.36" y1="4.43" x2="1728.36" y2="4.88" xlink:href="#linear-gradient-14"/><linearGradient id="linear-gradient-38" x1="1727.9" y1="4.78" x2="1730.63" y2="4.78" xlink:href="#linear-gradient-16"/><linearGradient id="linear-gradient-39" x1="1727.88" y1="5.05" x2="1730.65" y2="5.05" xlink:href="#linear-gradient-16"/><filter id="luminosity-noclip-23" x="2.44" y="4.87" width="0.5" height="0.37" filterUnits="userSpaceOnUse" color-interpolation-filters="sRGB"><feFlood flood-color="#fff" result="bg"/><feBlend in="SourceGraphic" in2="bg"/></filter><mask id="mask-23" x="2.44" y="4.87" width="0.5" height="0.37" maskUnits="userSpaceOnUse"><g class="cls-15"><path class="cls-16" d="M2.84,5.13a.33.33,0,0,1,0-.17.24.24,0,0,1,.08-.09H2.55c-.17.09-.13.26,0,.37h.38A.28.28,0,0,1,2.84,5.13Z"/></g></mask><linearGradient id="linear-gradient-40" x1="1728.3" y1="4.79" x2="1728.3" y2="5.32" xlink:href="#linear-gradient-14"/><linearGradient id="linear-gradient-41" x1="1727.88" y1="5.15" x2="1730.65" y2="5.15" xlink:href="#linear-gradient-16"/><linearGradient id="linear-gradient-42" x1="1727.11" y1="10.91" x2="1731.41" y2="10.91" xlink:href="#linear-gradient-16"/><filter id="luminosity-noclip-24" x="0.49" y="13.62" width="1.67" height="1.21" filterUnits="userSpaceOnUse" color-interpolation-filters="sRGB"><feFlood flood-color="#fff" result="bg"/><feBlend in="SourceGraphic" in2="bg"/></filter><mask id="mask-24" x="0.49" y="13.62" width="1.67" height="1.21" maskUnits="userSpaceOnUse"><g class="cls-17"><path class="cls-18" d="M1.37,13.62a1.5,1.5,0,0,0-.88,1.21H1.81a1.85,1.85,0,0,1,.34-1.21Z"/></g></mask><linearGradient id="linear-gradient-43" x1="1726.92" y1="14.93" x2="1726.98" y2="12.78" gradientTransform="translate(-1725.62)" gradientUnits="userSpaceOnUse"><stop offset="0.08" stop-color="#fff"/><stop offset="0.74" stop-color="#fff"/></linearGradient></defs><title>Asset 5</title><g class="cls-25"><g id="Layer_2" data-name="Layer 2"><g id="Layer_1-2" data-name="Layer 1"><polygon class="cls-26" points="5.28 11.15 4.42 10.86 4.15 11.12 3.64 11.12 3.13 11.12 2.61 10.9 2.01 11.15 0.75 12.43 3.7 12.69 6.53 12.43 5.28 11.15"/><g class="cls-27"><polygon class="cls-28" points="5.28 11.15 4.42 10.86 4.15 11.12 3.64 11.12 3.13 11.12 2.61 10.9 2.01 11.15 0.75 12.43 3.7 12.69 6.53 12.43 5.28 11.15"/></g><g class="cls-29"><path class="cls-30" d="M2.28,11.05c-.36.45-1,1.36-1,1.42l.86.08c.06-.1.47-1.05.65-1.49Z"/></g><path class="cls-31" d="M5.21,12.55l1.32-.12L5.28,11.15l-.67-.23A3.07,3.07,0,0,1,5.21,12.55Z"/><polygon class="cls-32" points="0.75 12.43 0.75 12.43 1.18 13.28 3.13 13.38 4.15 13.38 6.11 13.28 6.54 12.43 6.53 12.43 0.75 12.43"/><path class="cls-31" d="M6.53,12.43H5.21a2.9,2.9,0,0,1-1.06.72,4.23,4.23,0,0,1-.87.2l-.2,0H4.15l1.95-.1.44-.85Z"/><path class="cls-33" d="M6.37,13.57a.29.29,0,0,0-.28-.3H1.19a.3.3,0,0,0-.28.3.41.41,0,0,0,0,.11H6.37A.34.34,0,0,0,6.37,13.57Z"/><g class="cls-34"><path class="cls-35" d="M6.37,13.52H.91v.05a.41.41,0,0,0,0,.11H6.37a.34.34,0,0,0,0-.1Z"/></g><path class="cls-36" d="M7.28,14.85a1.09,1.09,0,0,0-.93-1.21H.93A1.1,1.1,0,0,0,0,14.85H7.28Z"/><path class="cls-31" d="M6.35,13.64H5.14a4,4,0,0,1-1.74.9,8,8,0,0,1-1.47.32H7.28A1.09,1.09,0,0,0,6.35,13.64Z"/><path class="cls-37" d="M4.05.34a.36.36,0,0,1-.38.34A.37.37,0,0,1,3.28.34.37.37,0,0,1,3.67,0,.36.36,0,0,1,4.05.34Z"/><g class="cls-38"><path class="cls-39" d="M4.05.34a.36.36,0,0,1-.38.34A.37.37,0,0,1,3.28.34.37.37,0,0,1,3.67,0,.36.36,0,0,1,4.05.34Z"/></g><g class="cls-40"><path class="cls-41" d="M3.74.47a.27.27,0,0,0,0-.45L3.67,0a.37.37,0,0,0-.39.34v0C3.31.52,3.6.54,3.74.47Z"/></g><path class="cls-42" d="M3.84,0h0a.32.32,0,0,1,0,.46.57.57,0,0,1-.25.11H3.47s-.08,0-.1,0a.4.4,0,0,0,.3.13A.36.36,0,0,0,4.05.34.36.36,0,0,0,3.84,0Z"/><path class="cls-43" d="M5.56,1.63c0,.56-.84,1-1.89,1s-1.89-.45-1.89-1,.85-1,1.89-1S5.56,1.07,5.56,1.63Z"/><g class="cls-44"><path class="cls-45" d="M5.56,1.63c0,.56-.84,1-1.89,1s-1.89-.45-1.89-1,.85-1,1.89-1S5.56,1.07,5.56,1.63Z"/></g><g class="cls-46"><path class="cls-47" d="M2.48,1.61c0-.51.56-.93,1.26-1H3.59C2.81.62,2,1.16,2,1.7s.84.89,1.62.89h.15C3,2.53,2.48,2.11,2.48,1.61Z"/></g><g class="cls-34"><path class="cls-48" d="M3.74.62c.64.16,1.08.51,1.08.91,0,.56-.84,1-1.89,1H2.86a3.45,3.45,0,0,0,.81.1c1,0,1.89-.45,1.89-1S4.75.64,3.74.62Z"/></g><path class="cls-49" d="M5.85,1.18a.6.6,0,0,1-.53.35A.58.58,0,0,1,4.74,1h0a.57.57,0,0,1-.52.34A.59.59,0,0,1,3.64.77h0a.58.58,0,0,1-.57.53A.56.56,0,0,1,2.55,1h0A.58.58,0,0,1,2,1.52a.57.57,0,0,1-.52-.34h0l1,3.07h2.4l1-3.07Z"/><g class="cls-50"><path class="cls-51" d="M5.85,1.18a.6.6,0,0,1-.53.35A.58.58,0,0,1,4.74,1h0a.57.57,0,0,1-.52.34A.59.59,0,0,1,3.64.77h0a.58.58,0,0,1-.57.53A.56.56,0,0,1,2.55,1h0A.58.58,0,0,1,2,1.52a.57.57,0,0,1-.52-.34h0l1,3.07h2.4l1-3.07Z"/></g><g class="cls-52"><path class="cls-53" d="M3,4.16c0-.23,0-1.91,0-2.52a.37.37,0,0,1-.29-.22c0-.09-.08-.17-.11-.25l0-.14a.62.62,0,0,1,0,.13.78.78,0,0,1,0,.21v0A.46.46,0,0,1,2,1.75c.17.62.64,2.26.68,2.5H3Z"/></g><path class="cls-31" d="M5.85,1.18a.6.6,0,0,1-.53.35A.59.59,0,0,1,4.74,1a2.44,2.44,0,0,1-.07.46c-.06.3-.13.6-.21.89a3.27,3.27,0,0,1-.75,1.51,1.69,1.69,0,0,1-.77.41h1.9l1-3.07Z"/><path class="cls-54" d="M3.13,1.65c.45,0,.5-.58.5-.8,0,0,.07.76.53.79S4.73,1,4.73,1s0,.66.37.77.61-.33.72-.54l0-.08h0a.6.6,0,0,1-.53.35A.58.58,0,0,1,4.74,1h0a.57.57,0,0,1-.52.34A.59.59,0,0,1,3.64.77h0a.58.58,0,0,1-.57.53A.56.56,0,0,1,2.55,1S2.61,1.71,3.13,1.65Z"/><path class="cls-55" d="M2,1.76c.41,0,.54-.42.51-.79h0A.58.58,0,0,1,2,1.52a.57.57,0,0,1-.52-.34h0C1.53,1.39,1.74,1.77,2,1.76Z"/><path class="cls-56" d="M4.84,4.25H2.46a.15.15,0,0,1,0,.26H4.84A.14.14,0,0,1,4.84,4.25Z"/><path class="cls-57" d="M4.87,5.23H2.42s1.07,1.4-.93,5.44l2,.16h.38l1.93-.16C3.79,6.63,4.87,5.23,4.87,5.23Z"/><g class="cls-58"><path class="cls-59" d="M4.87,5.23H2.42s1.07,1.4-.93,5.44l2,.16h.38l1.93-.16C3.79,6.63,4.87,5.23,4.87,5.23Z"/></g><g class="cls-60"><path class="cls-61" d="M1.81,10.68l.94.07a26.05,26.05,0,0,0,.47-2.93,5.62,5.62,0,0,0-.29-2.6H2.64c.33.21.4,1.89.09,3A9.42,9.42,0,0,1,1.81,10.68Z"/></g><path class="cls-31" d="M4.26,5.23a2.22,2.22,0,0,0-.19.27,2.22,2.22,0,0,0-.27.94,5.53,5.53,0,0,0,.4,2.27,4.51,4.51,0,0,1,.51,2l1.08-.09c-2-4-.92-5.44-.92-5.44Z"/><path class="cls-62" d="M4.82,4.87H2.46a.18.18,0,0,1-.18-.18.19.19,0,0,1,.18-.19H4.82A.2.2,0,0,1,5,4.69.19.19,0,0,1,4.82,4.87Z"/><g class="cls-63"><path class="cls-64" d="M2.9,4.82A.26.26,0,0,1,3,4.5H2.63c-.1,0-.19.13-.13.26a.26.26,0,0,0,.07.11h.37A.1.1,0,0,1,2.9,4.82Z"/></g><path class="cls-65" d="M2.28,4.69h0a.18.18,0,0,0,.18.18H4.82A.19.19,0,0,0,5,4.69H2.28Z"/><path class="cls-66" d="M4.84,5.24H2.44a.19.19,0,0,1-.18-.19.18.18,0,0,1,.18-.18h2.4A.19.19,0,0,1,5,5.05.2.2,0,0,1,4.84,5.24Z"/><g class="cls-67"><path class="cls-68" d="M2.84,5.13a.33.33,0,0,1,0-.17.24.24,0,0,1,.08-.09H2.55c-.17.09-.13.26,0,.37h.38A.28.28,0,0,1,2.84,5.13Z"/></g><path class="cls-69" d="M2.33,5.07H2.26a.19.19,0,0,0,.18.18h2.4A.18.18,0,0,0,5,5.07Z"/><polygon class="cls-70" points="5.28 11.15 2.01 11.15 1.49 10.67 5.79 10.67 5.28 11.15"/><path class="cls-31" d="M4.72,10.67a3.2,3.2,0,0,1-1,.48H5.28l.51-.48Z"/><g class="cls-71"><g class="cls-72"><path class="cls-73" d="M1.37,13.62a1.5,1.5,0,0,0-.88,1.21H1.81a1.85,1.85,0,0,1,.34-1.21Z"/></g></g></g></g></g></svg>