<svg xmlns="http://www.w3.org/2000/svg" xmlns:xlink="http://www.w3.org/1999/xlink" viewBox="0 0 10.16 13.47"><defs><style>.cls-1{mask:url(#mask);filter:url(#luminosity-noclip-7);}.cls-10,.cls-12,.cls-17,.cls-19,.cls-2,.cls-4,.cls-6,.cls-8{mix-blend-mode:multiply;}.cls-2{fill:url(#linear-gradient);}.cls-3{mask:url(#mask-2);filter:url(#luminosity-noclip-12);}.cls-4{fill:url(#linear-gradient-2);}.cls-5{mask:url(#mask-3);filter:url(#luminosity-noclip-8);}.cls-6{fill:url(#linear-gradient-3);}.cls-7{mask:url(#mask-4);filter:url(#luminosity-noclip-9);}.cls-8{fill:url(#linear-gradient-4);}.cls-9{mask:url(#mask-5);filter:url(#luminosity-noclip-10);}.cls-10{fill:url(#linear-gradient-5);}.cls-11{mask:url(#mask-6);filter:url(#luminosity-noclip-11);}.cls-12{fill:url(#linear-gradient-6);}.cls-13{isolation:isolate;}.cls-14{fill:url(#linear-gradient-7);}.cls-15{mask:url(#mask-7);}.cls-16,.cls-17,.cls-19,.cls-45,.cls-48,.cls-50,.cls-52,.cls-53{opacity:0.5;}.cls-16,.cls-45,.cls-48,.cls-50,.cls-52,.cls-53{mix-blend-mode:screen;}.cls-16{fill:url(#linear-gradient-8);}.cls-17{fill:#d0d0d1;}.cls-18{fill:url(#linear-gradient-9);}.cls-20{fill:#b9b8b9;}.cls-21{fill:url(#linear-gradient-10);}.cls-22{fill:#aeaeaf;}.cls-23{fill:url(#linear-gradient-11);}.cls-24{fill:url(#linear-gradient-12);}.cls-25{fill:url(#linear-gradient-13);}.cls-26{fill:url(#linear-gradient-14);}.cls-27{fill:url(#linear-gradient-15);}.cls-28{fill:url(#linear-gradient-16);}.cls-29{fill:url(#linear-gradient-17);}.cls-30{fill:url(#linear-gradient-18);}.cls-31{fill:url(#linear-gradient-19);}.cls-32{fill:url(#linear-gradient-20);}.cls-33{fill:url(#linear-gradient-21);}.cls-34{fill:url(#linear-gradient-22);}.cls-35{fill:url(#linear-gradient-23);}.cls-36{fill:url(#linear-gradient-24);}.cls-37{fill:url(#linear-gradient-25);}.cls-38{fill:url(#linear-gradient-26);}.cls-39{fill:url(#linear-gradient-27);}.cls-40{fill:url(#linear-gradient-28);}.cls-41{fill:url(#linear-gradient-29);}.cls-42{fill:url(#linear-gradient-30);}.cls-43{fill:url(#linear-gradient-31);}.cls-44{mask:url(#mask-8);}.cls-45{fill:url(#linear-gradient-32);}.cls-46{fill:url(#linear-gradient-33);}.cls-47{mask:url(#mask-9);}.cls-48{fill:url(#linear-gradient-34);}.cls-49{mask:url(#mask-10);}.cls-50{fill:url(#linear-gradient-35);}.cls-51{mask:url(#mask-11);}.cls-52{fill:url(#linear-gradient-36);}.cls-54{mask:url(#mask-12);}.cls-55{fill:url(#linear-gradient-37);}.cls-56{filter:url(#luminosity-noclip-6);}.cls-57{filter:url(#luminosity-noclip-5);}.cls-58{filter:url(#luminosity-noclip-4);}.cls-59{filter:url(#luminosity-noclip-3);}.cls-60{filter:url(#luminosity-noclip-2);}.cls-61{filter:url(#luminosity-noclip);}</style><filter id="luminosity-noclip" x="2.1" y="-8186.92" width="1.31" height="32766" filterUnits="userSpaceOnUse" color-interpolation-filters="sRGB"><feFlood flood-color="#fff" result="bg"/><feBlend in="SourceGraphic" in2="bg"/></filter><mask id="mask" x="2.1" y="-8186.92" width="1.31" height="32766" maskUnits="userSpaceOnUse"><g class="cls-61"/></mask><linearGradient id="linear-gradient" x1="1728.37" y1="10.55" x2="1728.37" y2="12.17" gradientTransform="translate(-1725.62)" gradientUnits="userSpaceOnUse"><stop offset="0.1" stop-color="#fff"/><stop offset="0.44" stop-color="#9a9a9a"/><stop offset="0.93"/></linearGradient><filter id="luminosity-noclip-2" x="1.53" y="-8186.92" width="1.67" height="32766" filterUnits="userSpaceOnUse" color-interpolation-filters="sRGB"><feFlood flood-color="#fff" result="bg"/><feBlend in="SourceGraphic" in2="bg"/></filter><mask id="mask-2" x="1.53" y="-8186.92" width="1.67" height="32766" maskUnits="userSpaceOnUse"><g class="cls-60"/></mask><linearGradient id="linear-gradient-2" x1="1727.96" y1="13.57" x2="1728.02" y2="11.41" gradientTransform="translate(-1725.62)" gradientUnits="userSpaceOnUse"><stop offset="0.08" stop-color="#fff"/><stop offset="0.15" stop-color="#dbdbdb"/><stop offset="0.27" stop-color="#9a9a9a"/><stop offset="0.39" stop-color="#636363"/><stop offset="0.5" stop-color="#383838"/><stop offset="0.6" stop-color="#191919"/><stop offset="0.68" stop-color="#070707"/><stop offset="0.74"/></linearGradient><filter id="luminosity-noclip-3" x="2.42" y="-8186.92" width="3.71" height="32766" filterUnits="userSpaceOnUse" color-interpolation-filters="sRGB"><feFlood flood-color="#fff" result="bg"/><feBlend in="SourceGraphic" in2="bg"/></filter><mask id="mask-3" x="2.42" y="-8186.92" width="3.71" height="32766" maskUnits="userSpaceOnUse"><g class="cls-59"/></mask><linearGradient id="linear-gradient-3" x1="1729.89" y1="4.55" x2="1729.89" y2="9.77" xlink:href="#linear-gradient"/><filter id="luminosity-noclip-4" x="3.58" y="-8186.92" width="1.58" height="32766" filterUnits="userSpaceOnUse" color-interpolation-filters="sRGB"><feFlood flood-color="#fff" result="bg"/><feBlend in="SourceGraphic" in2="bg"/></filter><mask id="mask-4" x="3.58" y="-8186.92" width="1.58" height="32766" maskUnits="userSpaceOnUse"><g class="cls-58"/></mask><linearGradient id="linear-gradient-4" x1="1729.99" y1="2.04" x2="1729.99" y2="4.73" xlink:href="#linear-gradient"/><filter id="luminosity-noclip-5" x="5.1" y="-8186.92" width="2.42" height="32766" filterUnits="userSpaceOnUse" color-interpolation-filters="sRGB"><feFlood flood-color="#fff" result="bg"/><feBlend in="SourceGraphic" in2="bg"/></filter><mask id="mask-5" x="5.1" y="-8186.92" width="2.42" height="32766" maskUnits="userSpaceOnUse"><g class="cls-57"/></mask><linearGradient id="linear-gradient-5" x1="1731.14" y1="2.12" x2="1733.37" y2="4.88" gradientTransform="translate(-1725.62)" gradientUnits="userSpaceOnUse"><stop offset="0.1" stop-color="#fff"/><stop offset="0.11" stop-color="#fafafa"/><stop offset="0.25" stop-color="#b9b9b9"/><stop offset="0.38" stop-color="gray"/><stop offset="0.51" stop-color="#525252"/><stop offset="0.63" stop-color="#2f2f2f"/><stop offset="0.74" stop-color="#151515"/><stop offset="0.84" stop-color="#050505"/><stop offset="0.93"/></linearGradient><filter id="luminosity-noclip-6" x="0" y="-8186.92" width="5.06" height="32766" filterUnits="userSpaceOnUse" color-interpolation-filters="sRGB"><feFlood flood-color="#fff" result="bg"/><feBlend in="SourceGraphic" in2="bg"/></filter><mask id="mask-6" x="0" y="-8186.92" width="5.06" height="32766" maskUnits="userSpaceOnUse"><g class="cls-56"/></mask><linearGradient id="linear-gradient-6" x1="1727.82" y1="2.65" x2="1729.4" y2="4.23" xlink:href="#linear-gradient"/><linearGradient id="linear-gradient-7" x1="1727.43" y1="11.19" x2="1732.85" y2="11.19" gradientTransform="translate(-1725.62)" gradientUnits="userSpaceOnUse"><stop offset="0" stop-color="#e2e2e2"/><stop offset="0.06" stop-color="#d8d8d8"/><stop offset="0.19" stop-color="#c8c8c8"/><stop offset="0.29" stop-color="#c3c3c3"/><stop offset="0.64" stop-color="#b9b8b9"/></linearGradient><filter id="luminosity-noclip-7" x="2.1" y="10.42" width="1.31" height="1.54" filterUnits="userSpaceOnUse" color-interpolation-filters="sRGB"><feFlood flood-color="#fff" result="bg"/><feBlend in="SourceGraphic" in2="bg"/></filter><mask id="mask-7" x="2.1" y="10.42" width="1.31" height="1.54" maskUnits="userSpaceOnUse"><g class="cls-1"><path class="cls-2" d="M2.88,12h.51a1.53,1.53,0,0,0,0-.31.71.71,0,0,0-.09-.38c-.07-.12-.18-.19-.25-.31a.56.56,0,0,1,0-.44s0-.09,0-.09h-1a1.5,1.5,0,0,0,0,.3.6.6,0,0,0,.41.46.65.65,0,0,1,.33.43S3,12,2.88,12Z"/></g></mask><linearGradient id="linear-gradient-8" x1="1728.37" y1="10.55" x2="1728.37" y2="12.17" gradientTransform="translate(-1725.62)" gradientUnits="userSpaceOnUse"><stop offset="0.1" stop-color="#fff"/><stop offset="0.93" stop-color="#fff"/></linearGradient><linearGradient id="linear-gradient-9" x1="1726.64" y1="12.09" x2="1730.91" y2="12.09" gradientTransform="translate(-1725.62)" gradientUnits="userSpaceOnUse"><stop offset="0" stop-color="#e2e2e2"/><stop offset="0.09" stop-color="#d8d8d8"/><stop offset="0.27" stop-color="#c8c8c8"/><stop offset="0.42" stop-color="#c3c3c3"/><stop offset="0.85" stop-color="#b9b8b9"/></linearGradient><linearGradient id="linear-gradient-10" x1="1726.58" y1="12.86" x2="1733.86" y2="12.86" xlink:href="#linear-gradient-9"/><linearGradient id="linear-gradient-11" x1="1727.53" y1="0.97" x2="1728.28" y2="1.89" gradientTransform="translate(-1725.62)" gradientUnits="userSpaceOnUse"><stop offset="0.09" stop-color="#e2e2e2"/><stop offset="0.18" stop-color="#deddde"/><stop offset="0.99" stop-color="#b9b8b9"/></linearGradient><linearGradient id="linear-gradient-12" x1="1728.13" y1="0.71" x2="1728.6" y2="1.69" xlink:href="#linear-gradient-11"/><linearGradient id="linear-gradient-13" x1="1728.68" y1="0.45" x2="1729.15" y2="1.43" xlink:href="#linear-gradient-11"/><linearGradient id="linear-gradient-14" x1="1729.21" y1="0.19" x2="1729.68" y2="1.18" xlink:href="#linear-gradient-11"/><linearGradient id="linear-gradient-15" x1="1730.21" y1="0.1" x2="1730.06" y2="1.28" xlink:href="#linear-gradient-11"/><linearGradient id="linear-gradient-16" x1="1731.84" y1="0.37" x2="1731.45" y2="1.59" gradientTransform="translate(-1725.62)" gradientUnits="userSpaceOnUse"><stop offset="0.09" stop-color="#e2e2e2"/><stop offset="0.52" stop-color="#c3c3c3"/><stop offset="0.85" stop-color="#b9b8b9"/></linearGradient><linearGradient id="linear-gradient-17" x1="1732.66" y1="0.78" x2="1731.95" y2="1.79" xlink:href="#linear-gradient-16"/><linearGradient id="linear-gradient-18" x1="1733.4" y1="1.29" x2="1732.69" y2="2.31" xlink:href="#linear-gradient-16"/><linearGradient id="linear-gradient-19" x1="1734.14" y1="2.07" x2="1733.01" y2="2.81" xlink:href="#linear-gradient-16"/><linearGradient id="linear-gradient-20" x1="1734.61" y1="2.8" x2="1733.49" y2="3.54" xlink:href="#linear-gradient-16"/><linearGradient id="linear-gradient-21" x1="1735.47" y1="4.09" x2="1734.34" y2="4.83" xlink:href="#linear-gradient-16"/><linearGradient id="linear-gradient-22" x1="1735.61" y1="5.27" x2="1734.25" y2="5.58" xlink:href="#linear-gradient-16"/><linearGradient id="linear-gradient-23" x1="1735.45" y1="6.32" x2="1733.99" y2="5.93" xlink:href="#linear-gradient-16"/><linearGradient id="linear-gradient-24" x1="1734.25" y1="7" x2="1733.31" y2="6.38" xlink:href="#linear-gradient-16"/><linearGradient id="linear-gradient-25" x1="1733.3" y1="7.64" x2="1732.53" y2="6.83" xlink:href="#linear-gradient-16"/><linearGradient id="linear-gradient-26" x1="1733.11" y1="8.29" x2="1731.61" y2="7.93" xlink:href="#linear-gradient-16"/><linearGradient id="linear-gradient-27" x1="1733.22" y1="8.39" x2="1731.89" y2="9.15" xlink:href="#linear-gradient-16"/><linearGradient id="linear-gradient-28" x1="1733.74" y1="9.31" x2="1732.41" y2="10.07" xlink:href="#linear-gradient-16"/><linearGradient id="linear-gradient-29" x1="1735.03" y1="3.42" x2="1733.91" y2="4.17" xlink:href="#linear-gradient-16"/><linearGradient id="linear-gradient-30" x1="1731.06" y1="0.21" x2="1730.92" y2="1.39" xlink:href="#linear-gradient-11"/><linearGradient id="linear-gradient-31" x1="1728.76" y1="2.86" x2="1732.27" y2="9.56" xlink:href="#linear-gradient-16"/><filter id="luminosity-noclip-8" x="2.42" y="4.57" width="3.71" height="5.1" filterUnits="userSpaceOnUse" color-interpolation-filters="sRGB"><feFlood flood-color="#fff" result="bg"/><feBlend in="SourceGraphic" in2="bg"/></filter><mask id="mask-8" x="2.42" y="4.57" width="3.71" height="5.1" maskUnits="userSpaceOnUse"><g class="cls-5"><path class="cls-6" d="M4,7.31c.23-.24.47-.46.67-.68A7.35,7.35,0,0,0,6.13,4.57,4.88,4.88,0,0,1,5,5.78c-.22.22-.47.42-.71.62L3.6,7c-.21.18-.42.36-.62.56a2.24,2.24,0,0,0-.48.66.91.91,0,0,0,.08.89c.13.21.31.37.44.58a2.63,2.63,0,0,1,.11-1.12A3.67,3.67,0,0,1,4,7.31Z"/></g></mask><linearGradient id="linear-gradient-32" x1="1729.89" y1="4.55" x2="1729.89" y2="9.77" xlink:href="#linear-gradient-8"/><linearGradient id="linear-gradient-33" x1="1726.41" y1="10.35" x2="1732.14" y2="10.35" gradientTransform="translate(-1725.62)" gradientUnits="userSpaceOnUse"><stop offset="0" stop-color="#e2e2e2"/><stop offset="0.06" stop-color="#dcdcdd"/><stop offset="0.36" stop-color="#c3c3c4"/><stop offset="0.63" stop-color="#b3b3b4"/><stop offset="0.85" stop-color="#aeaeaf"/></linearGradient><filter id="luminosity-noclip-9" x="3.58" y="2.15" width="1.58" height="2.18" filterUnits="userSpaceOnUse" color-interpolation-filters="sRGB"><feFlood flood-color="#fff" result="bg"/><feBlend in="SourceGraphic" in2="bg"/></filter><mask id="mask-9" x="3.58" y="2.15" width="1.58" height="2.18" maskUnits="userSpaceOnUse"><g class="cls-7"><path class="cls-8" d="M4,3.25c.17.11,0,.34-.07.45A3.65,3.65,0,0,1,3.73,4c0,.06-.15.16-.15.24s.22,0,.24,0a.82.82,0,0,1,.27,0,1.32,1.32,0,0,0,.81,0c.54-.28.1-1-.13-1.32a3.36,3.36,0,0,1-.43-.79.19.19,0,0,1,0,.08,1.24,1.24,0,0,1-.11.43,1,1,0,0,1-.31.43l-.15.1A.54.54,0,0,1,4,3.25Z"/></g></mask><linearGradient id="linear-gradient-34" x1="1729.99" y1="2.04" x2="1729.99" y2="4.73" xlink:href="#linear-gradient-8"/><filter id="luminosity-noclip-10" x="5.1" y="2.05" width="2.42" height="3.05" filterUnits="userSpaceOnUse" color-interpolation-filters="sRGB"><feFlood flood-color="#fff" result="bg"/><feBlend in="SourceGraphic" in2="bg"/></filter><mask id="mask-10" x="5.1" y="2.05" width="2.42" height="3.05" maskUnits="userSpaceOnUse"><g class="cls-9"><path class="cls-10" d="M7.53,5.1a6,6,0,0,0-1-2.18,2.11,2.11,0,0,0-1.09-.81L5.1,2.05A5.17,5.17,0,0,1,7.53,5.1Z"/></g></mask><linearGradient id="linear-gradient-35" x1="1731.14" y1="2.12" x2="1733.37" y2="4.88" xlink:href="#linear-gradient-8"/><filter id="luminosity-noclip-11" x="0" y="0.02" width="5.06" height="6.25" filterUnits="userSpaceOnUse" color-interpolation-filters="sRGB"><feFlood flood-color="#fff" result="bg"/><feBlend in="SourceGraphic" in2="bg"/></filter><mask id="mask-11" x="0" y="0.02" width="5.06" height="6.25" maskUnits="userSpaceOnUse"><g class="cls-11"><path class="cls-12" d="M4.84.16h0l-.13.1A7.5,7.5,0,0,0,3.85,1c-.17.19-.12.23-.06.32A4.33,4.33,0,0,0,2.56,2a3.22,3.22,0,0,0-.39.3h0v0H2.3a2.47,2.47,0,0,0,.34.15A8.77,8.77,0,0,0,.43,5h0c-.45.07-.49.24-.38.67a2,2,0,0,0,.27.59,1.47,1.47,0,0,1-.07-.46c0-.14,0-.36.2-.41a.69.69,0,0,1,.32,0,1.27,1.27,0,0,0,.43,0c1,0,1.08-1.18,1.29-1.89a1.74,1.74,0,0,1,.58-1,1.32,1.32,0,0,1,.72-.24c.21,0,.55,0,.51-.31s-.34-.66,0-1,.4-.28.54-.48A2.37,2.37,0,0,0,5.06,0,1.64,1.64,0,0,0,4.84.16Z"/></g></mask><linearGradient id="linear-gradient-36" x1="1727.82" y1="2.65" x2="1729.4" y2="4.23" xlink:href="#linear-gradient-8"/><filter id="luminosity-noclip-12" x="1.53" y="12.26" width="1.67" height="1.21" filterUnits="userSpaceOnUse" color-interpolation-filters="sRGB"><feFlood flood-color="#fff" result="bg"/><feBlend in="SourceGraphic" in2="bg"/></filter><mask id="mask-12" x="1.53" y="12.26" width="1.67" height="1.21" maskUnits="userSpaceOnUse"><g class="cls-3"><path class="cls-4" d="M2.41,12.26a1.47,1.47,0,0,0-.88,1.21H2.84a1.88,1.88,0,0,1,.35-1.21Z"/></g></mask><linearGradient id="linear-gradient-37" x1="1727.96" y1="13.57" x2="1728.02" y2="11.41" gradientTransform="translate(-1725.62)" gradientUnits="userSpaceOnUse"><stop offset="0.08" stop-color="#fff"/><stop offset="0.74" stop-color="#fff"/></linearGradient></defs><title>Asset 1</title><g class="cls-13"><g id="Layer_2" data-name="Layer 2"><g id="Layer_1-2" data-name="Layer 1"><path class="cls-14" d="M4.6,10.39l-2.7-.05v.44a.65.65,0,0,0,.37.43.33.33,0,0,1,.15.51c-.13.14-.18.16-.18.32H7c0-.16,0-.18-.17-.32s-.1-.38.15-.51a.66.66,0,0,0,.36-.43v-.44Z"/><g class="cls-15"><path class="cls-16" d="M2.88,12h.51a1.53,1.53,0,0,0,0-.31.71.71,0,0,0-.09-.38c-.07-.12-.18-.19-.25-.31a.56.56,0,0,1,0-.44s0-.09,0-.09h-1a1.5,1.5,0,0,0,0,.3.6.6,0,0,0,.41.46.65.65,0,0,1,.33.43S3,12,2.88,12Z"/></g><path class="cls-17" d="M5.8,10.37c-.21.44-.26.71-.77.83a14.69,14.69,0,0,1-1.91,0c-.41,0-1,.07-1.18-.34a.71.71,0,0,0,.33.31.33.33,0,0,1,.15.51c-.13.14-.18.16-.18.32H7c0-.16,0-.18-.17-.32s-.1-.38.15-.51a.66.66,0,0,0,.36-.43v-.44Z"/><path class="cls-18" d="M7.33,12.18a.29.29,0,0,0-.28-.29H2.15a.28.28,0,0,0-.28.29.41.41,0,0,0,0,.11H7.32A.34.34,0,0,0,7.33,12.18Z"/><g class="cls-19"><path class="cls-20" d="M7.33,12.14H1.87v0a.41.41,0,0,0,0,.11H7.32a.34.34,0,0,0,0-.1Z"/></g><path class="cls-21" d="M8.24,13.46a1.1,1.1,0,0,0-.93-1.2H1.89A1.09,1.09,0,0,0,1,13.46H8.24Z"/><path class="cls-17" d="M7.31,12.26H6.1a4.22,4.22,0,0,1-1.74.9,8.92,8.92,0,0,1-1.47.31H8.24A1.1,1.1,0,0,0,7.31,12.26Z"/><path class="cls-22" d="M2.65,2.06s-.53-.6-.74-.81S2,.9,2.45.72A6.56,6.56,0,0,1,3.66.33a5.2,5.2,0,0,1,2-.12A3.78,3.78,0,0,1,7.37,1,7,7,0,0,1,9.44,3.55,7.32,7.32,0,0,1,10,5.12c.18.88.29,1,0,1.17S9.1,6.72,8.68,7a6,6,0,0,0-1.17.83c-.34.36.22,1,.43,1.23s.14.23,0,.38-.19.2-.28.3-.43.35-.43.52-.49-.32-.49-.29-1-1.2-1-1.2a3.4,3.4,0,0,1,.84-1.56c.71-.78,2-1.34,2-1.54A4.13,4.13,0,0,0,7.1,2.44c-1.47-1.09-2-.6-2.14-1.11S3,1.92,2.65,2.06Z"/><path class="cls-23" d="M2.43,1.33c-.1-.11-.17-.25-.28-.35A.16.16,0,0,0,2,.93c-.16.1-.22.2-.09.32s.74.81.74.81l.24-.12Z"/><path class="cls-24" d="M3,1.27c-.07-.15-.14-.3-.2-.45S2.73.63,2.62.65L2.45.72h0L2.4.76a.45.45,0,0,0,.06.29,2.75,2.75,0,0,0,.15.36l.11.19a1.6,1.6,0,0,1,.21.32l.31-.16A2.26,2.26,0,0,1,3,1.27Z"/><path class="cls-25" d="M3.48.75c0-.11-.06-.36-.23-.31A1.06,1.06,0,0,1,3.06.5.18.18,0,0,0,3,.59a.67.67,0,0,0,0,.2,2,2,0,0,0,.13.42,2.75,2.75,0,0,0,.23.49l.35-.17C3.63,1.27,3.55,1,3.48.75Z"/><path class="cls-26" d="M4.07.83A1.83,1.83,0,0,0,4,.36.1.1,0,0,0,4,.27l-.2,0a.24.24,0,0,0-.13.2,1.35,1.35,0,0,0,.08.4c0,.19.09.38.14.56l.24-.1C4.08,1.19,4.08,1,4.07.83Z"/><path class="cls-27" d="M4.73,1.2c0-.12,0-.24,0-.36s0-.29,0-.44,0-.19-.08-.23-.26,0-.39,0a.38.38,0,0,0-.07.22c0,.15,0,.3,0,.45a2.87,2.87,0,0,0,0,.41A1.23,1.23,0,0,1,4.73,1.2Z"/><path class="cls-28" d="M6.29,1c.08-.18.23-.46,0-.62l-.06,0L6.1.31H6c-.1,0-.15.13-.17.23a5.23,5.23,0,0,0-.12.54c0,.2-.07.41-.1.61l.32.1Z"/><path class="cls-29" d="M7,1.37c.07-.11.28-.31.19-.46l0-.06L6.87.67h0c-.13,0-.2,0-.25.17l-.24.5c-.08.18-.16.35-.25.52a3.13,3.13,0,0,1,.44.23C6.7,1.84,6.85,1.6,7,1.37Z"/><path class="cls-30" d="M7.21,2.53c.1-.13.21-.25.32-.37l.33-.37c.07-.08.14-.17.08-.27l0-.05L7.6,1.2h0a.26.26,0,0,0-.24.1c-.1.11-.18.24-.27.36s-.19.29-.28.43a.61.61,0,0,0-.07.1c.12.07.24.16.37.25Z"/><path class="cls-31" d="M7.77,3.09c.15-.13.31-.24.46-.38a1.33,1.33,0,0,0,.35-.36.2.2,0,0,0,0-.15l-.32-.37h0c-.12-.07-.2,0-.28.1l-.4.44a3.11,3.11,0,0,0-.23.28A4.37,4.37,0,0,1,7.77,3.09Z"/><path class="cls-32" d="M8.64,3.33a2.09,2.09,0,0,0,.28-.24A.32.32,0,0,0,9,2.92a.25.25,0,0,0,0-.17.22.22,0,0,0-.12-.09.29.29,0,0,0-.22,0,2.62,2.62,0,0,0-.34.24,4.27,4.27,0,0,0-.38.36,3,3,0,0,1,.24.38A3.27,3.27,0,0,0,8.64,3.33Z"/><path class="cls-33" d="M8.77,5a3.31,3.31,0,0,0,.42-.12l.32-.14c.08,0,.22-.09.24-.19a.91.91,0,0,0-.05-.33c0-.05,0-.15-.08-.17h0a.9.9,0,0,0-.45.13c-.14.07-.29.13-.43.21l-.21.12A4.56,4.56,0,0,1,8.65,5Z"/><path class="cls-34" d="M8.56,5.76a2.69,2.69,0,0,0,.4,0l.47,0,.41,0a.29.29,0,0,0,.18,0,.18.18,0,0,0,.07-.09L10,5.12c0-.06,0-.12,0-.18h0A.86.86,0,0,0,9.44,5c-.26.07-.5.18-.75.26a1.06,1.06,0,0,1,0,.37A.3.3,0,0,1,8.56,5.76Z"/><path class="cls-35" d="M9.64,5.94,9,5.92a1.39,1.39,0,0,1-.5-.09h0l-.37.24c.27.13.56.23.84.35a.85.85,0,0,0,.54.1l.09,0,.39-.2.07,0a.25.25,0,0,0,0-.08C10,5.94,9.81,6,9.64,5.94Z"/><path class="cls-36" d="M8.84,6.68a.76.76,0,0,0-.34-.24,5,5,0,0,0-.65-.22l-.48.33,0,0a4,4,0,0,1,.31.27,1,1,0,0,0,.41.29.53.53,0,0,0,.28,0L8.68,7l.17-.09A.16.16,0,0,0,8.84,6.68Z"/><path class="cls-37" d="M6.78,7.35,7,7.6a1.44,1.44,0,0,0,.32.23l.12,0s0,0,0-.06A3.13,3.13,0,0,1,8,7.38a.14.14,0,0,0,0-.06.75.75,0,0,0-.22-.25c-.18-.14-.38-.26-.56-.39a3.7,3.7,0,0,0-.55.49l0,0Z"/><path class="cls-38" d="M6,8.43l.25,0,.51,0h.47a.28.28,0,0,0,.26-.1.66.66,0,0,1-.06-.2A.62.62,0,0,0,7.23,8l-.36-.22-.41-.24-.08,0a3.68,3.68,0,0,0-.49.93Z"/><path class="cls-39" d="M6.71,9.57a4,4,0,0,0,.46-.24l.39-.22c.12-.08.22-.18.21-.31l-.13-.17a.46.46,0,0,0-.26,0c-.2,0-.39,0-.59,0s-.65.07-1,.1h0l.71.9Z"/><path class="cls-40" d="M7.72,9.12l-.4.22c-.24.14-.46.29-.7.42l.15.17s.49.46.49.29.32-.41.43-.52.2-.2.28-.3a.22.22,0,0,0,0-.3C7.91,9,7.81,9.07,7.72,9.12Z"/><path class="cls-41" d="M8.66,4.22c.14-.07.27-.15.41-.21s.33-.11.39-.23a.29.29,0,0,0,0-.16l0-.07-.09-.17-.06-.09-.06,0c-.1,0-.19,0-.28,0l-.44.32-.27.22a3.44,3.44,0,0,1,.21.49Z"/><path class="cls-42" d="M5.57.19l-.2,0H5.26l0,0c-.07.07-.06.22-.06.32s0,.39,0,.59a3.67,3.67,0,0,0,0,.46l.27.07,0-.12c.06-.25.1-.5.14-.75a1.14,1.14,0,0,0,0-.53A.16.16,0,0,0,5.57.19Z"/><path class="cls-43" d="M2.24,10.23s.2-.57-.54-1.29A3.16,3.16,0,0,1,2.8,7.21c1-1,1.86-1.91,1.86-1.91a2.8,2.8,0,0,0-1.8.19,9.73,9.73,0,0,1-.21,1.08S1.18,6.92,1,6.93.88,6.74.94,6.58c0,0-.68.27-.49-.13a2.17,2.17,0,0,1-.4-.77C-.06,5.25,0,5.08.43,5A8.86,8.86,0,0,1,2.64,2.54s-.54-.19-.47-.29a5.14,5.14,0,0,1,1.62-.92.17.17,0,0,1,0-.25A6.57,6.57,0,0,1,5.09,0a7.83,7.83,0,0,1,.33,1.37S8.49,1.87,9,5.8c0,0-2.39,1-2.83,2.75a5.58,5.58,0,0,1,1.14,1.58v.14Z"/><g class="cls-44"><path class="cls-45" d="M4,7.31c.23-.24.47-.46.67-.68A7.35,7.35,0,0,0,6.13,4.57,4.88,4.88,0,0,1,5,5.78c-.22.22-.47.42-.71.62L3.6,7c-.21.18-.42.36-.62.56a2.24,2.24,0,0,0-.48.66.91.91,0,0,0,.08.89c.13.21.31.37.44.58a2.63,2.63,0,0,1,.11-1.12A3.67,3.67,0,0,1,4,7.31Z"/></g><path class="cls-17" d="M3.41,10.24A1.74,1.74,0,0,1,2.85,10c-.17-.12-.22-.35-.33-.51a1.69,1.69,0,0,0-.27-.32A1.61,1.61,0,0,1,2,9c-.12-.15,0-.38,0-.52a7.33,7.33,0,0,1,.45-.64A4.26,4.26,0,0,1,3,7.17a2.61,2.61,0,0,1,.23-.24c.16-.17.33-.34.5-.49.43-.38.88-.73,1.32-1.1.21-.18.43-.37.63-.56s.22-.21.32-.32.23-.23.26-.37-.1-.24-.19-.33l-.3-.29a2.54,2.54,0,0,0-.36-.29l-.17-.11v0a1.8,1.8,0,0,1,.36.7.58.58,0,0,1-.32.6,1.25,1.25,0,0,1-.73.17,7.43,7.43,0,0,0-.94-.07c-.09,0-.36,0-.32-.13a.68.68,0,0,1,.15-.26l.25-.33A4.09,4.09,0,0,1,4,3.44a6.65,6.65,0,0,0-.73.43,2.3,2.3,0,0,0-.47.35,1.22,1.22,0,0,0-.22.46c-.1.36-.16.73-.24,1.09a.91.91,0,0,1-.14.42.32.32,0,0,1-.28.1s0,0,0,0S2,6.09,2.05,6s-.14-.24-.25-.29-.25.09-.37.18A.82.82,0,0,1,1.07,6a0,0,0,0,1,0,0A.48.48,0,0,0,1,5.78,1.19,1.19,0,0,0,.7,5.65C.58,5.59.46,5.52.45,5.36a1.48,1.48,0,0,1,.44-.93,10.17,10.17,0,0,1,1-1A3.9,3.9,0,0,1,2.38,3a5.4,5.4,0,0,0,.47-.3.44.44,0,0,0,.09-.11.52.52,0,0,0-.28,0H2.58A9,9,0,0,0,.43,5c-.45.07-.49.24-.38.67a2.17,2.17,0,0,0,.4.77c-.19.4.49.13.49.13-.06.16,0,.37.09.35s1.58-.32,1.62-.36a9.73,9.73,0,0,0,.21-1.08,2.8,2.8,0,0,1,1.8-.19s-.82.87-1.86,1.91A3.16,3.16,0,0,0,1.7,8.94c.74.72.54,1.29.54,1.29Z"/><path class="cls-17" d="M6.12,8.55C6.56,6.75,9,5.8,9,5.8,8.49,1.87,5.42,1.37,5.42,1.37A7.83,7.83,0,0,0,5.09,0,6.57,6.57,0,0,0,3.78,1.08a.17.17,0,0,0,0,.25,5.14,5.14,0,0,0-1.62.92s.12.14.27.21c-.14-.23.43-.56.6-.62a1.31,1.31,0,0,1,1.08,0v0A2,2,0,0,1,4,1.37a1,1,0,0,1,.3-.71A2.4,2.4,0,0,1,5,.09s0,0,0,0a1.55,1.55,0,0,1,.08.64,2,2,0,0,1-.1.59A1.76,1.76,0,0,1,4.56,2l0,.07h0l.1,0L4.8,2h.31a2.13,2.13,0,0,1,.6.16,2.47,2.47,0,0,1,1,.79,4.74,4.74,0,0,1,.74,1.45L7.65,5a.81.81,0,0,1,.08.38v0c0,.1-.15.12-.23.16l-.42.27a8,8,0,0,0-.8.61,5.47,5.47,0,0,0-.66.7c-.2.26-.39.52-.56.79,0,0-.28.43-.22.46a.84.84,0,0,1,.24.22,3.36,3.36,0,0,1,.48.74,2.6,2.6,0,0,1,.19.74c0,.05,0,.1,0,.15h1.5v-.14A5.58,5.58,0,0,0,6.12,8.55Z"/><path class="cls-22" d="M2.78,3.36a2,2,0,0,1,.06-.31A.57.57,0,0,1,3,2.84H2.9a1.38,1.38,0,0,1,.49-.18,1.19,1.19,0,0,1,.5.05h0a.47.47,0,0,0,.13,0,.91.91,0,0,1-.2.16c-.1.06-.15.17-.23.26a.36.36,0,0,1-.28.08l-.23,0a.3.3,0,0,0-.16,0C2.83,3.23,2.78,3.36,2.78,3.36Z"/><path class="cls-22" d="M.42,5.57a.71.71,0,0,1,.2.34c0,.21.11.3.14.22S1,5.84.88,5.8.42,5.57.42,5.57Z"/><path class="cls-22" d="M.94,6.57l0,0a.35.35,0,0,1,.08-.12.67.67,0,0,1,.14-.16.35.35,0,0,1,.09-.07l.11-.06.11,0,.1,0L1.78,6l.06,0a.09.09,0,0,0,0-.06,0,0,0,0,0,0,0h0v0a.15.15,0,0,1,0,.06L1.8,6,1.71,6l-.09.05-.11,0-.11,0-.1,0-.09.07-.15.14L1,6.53Z"/><path class="cls-22" d="M1.77,5.69A.55.55,0,0,1,2,5.75s0,.11,0,.11L2,5.83A.18.18,0,0,1,1.9,6a.18.18,0,0,0-.09-.16.18.18,0,0,1-.1-.14.14.14,0,0,0,.08,0Z"/><path class="cls-22" d="M4.84.77s-.36.76-.43,1,0-.26-.19-.37.22-.19.46-.49S4.86.72,4.84.77Z"/><path class="cls-22" d="M3.79,1.33l0,0,0,.07L4,1.65l.07.11.06.1,0,0s0,0,0,0l0,0,0,0,0,0,0,0,0,0,0-.05-.08-.11-.06-.12a.54.54,0,0,1,0-.11.24.24,0,0,0,0-.07Z"/><path class="cls-22" d="M4.6,2l.15-.08.15-.09a1,1,0,0,0,.17-.1l.09-.06.07-.05.07-.06,0-.06a.21.21,0,0,0,0-.06s0,0,0-.05a0,0,0,0,1,0,0h0v0a.14.14,0,0,1,0,.06.09.09,0,0,1,0,.06l0,.07-.06.06-.16.13a1.51,1.51,0,0,1-.18.09L4.76,2,4.65,2Z"/><path class="cls-46" d="M7.26,10.58H1.93a.23.23,0,1,1,0-.45H7.26a.23.23,0,1,1,0,.45Z"/><path class="cls-17" d="M7.26,10.13h-3a.28.28,0,0,1,0,.45H7.26a.23.23,0,1,0,0-.45Z"/><g class="cls-47"><path class="cls-48" d="M4,3.25c.17.11,0,.34-.07.45A3.65,3.65,0,0,1,3.73,4c0,.06-.15.16-.15.24s.22,0,.24,0a.82.82,0,0,1,.27,0,1.32,1.32,0,0,0,.81,0c.54-.28.1-1-.13-1.32a3.36,3.36,0,0,1-.43-.79.19.19,0,0,1,0,.08,1.24,1.24,0,0,1-.11.43,1,1,0,0,1-.31.43l-.15.1A.54.54,0,0,1,4,3.25Z"/></g><g class="cls-49"><path class="cls-50" d="M7.53,5.1a6,6,0,0,0-1-2.18,2.11,2.11,0,0,0-1.09-.81L5.1,2.05A5.17,5.17,0,0,1,7.53,5.1Z"/></g><g class="cls-51"><path class="cls-52" d="M4.84.16h0l-.13.1A7.5,7.5,0,0,0,3.85,1c-.17.19-.12.23-.06.32A4.33,4.33,0,0,0,2.56,2a3.22,3.22,0,0,0-.39.3h0v0H2.3a2.47,2.47,0,0,0,.34.15A8.77,8.77,0,0,0,.43,5h0c-.45.07-.49.24-.38.67a2,2,0,0,0,.27.59,1.47,1.47,0,0,1-.07-.46c0-.14,0-.36.2-.41a.69.69,0,0,1,.32,0,1.27,1.27,0,0,0,.43,0c1,0,1.08-1.18,1.29-1.89a1.74,1.74,0,0,1,.58-1,1.32,1.32,0,0,1,.72-.24c.21,0,.55,0,.51-.31s-.34-.66,0-1,.4-.28.54-.48A2.37,2.37,0,0,0,5.06,0,1.64,1.64,0,0,0,4.84.16Z"/></g><g class="cls-53"><g class="cls-54"><path class="cls-55" d="M2.41,12.26a1.47,1.47,0,0,0-.88,1.21H2.84a1.88,1.88,0,0,1,.35-1.21Z"/></g></g></g></g></g></svg>