<svg xmlns="http://www.w3.org/2000/svg" xmlns:xlink="http://www.w3.org/1999/xlink" viewBox="0 0 7.29 11.97"><defs><style>.cls-1{mask:url(#mask);filter:url(#luminosity-noclip-8);}.cls-10,.cls-12,.cls-14,.cls-17,.cls-2,.cls-22,.cls-27,.cls-4,.cls-50,.cls-52,.cls-6,.cls-8{mix-blend-mode:multiply;}.cls-2{fill:url(#linear-gradient);}.cls-3{mask:url(#mask-2);filter:url(#luminosity-noclip-13);}.cls-4{fill:url(#linear-gradient-2);}.cls-5{mask:url(#mask-3);filter:url(#luminosity-noclip-14);}.cls-6{fill:url(#linear-gradient-3);}.cls-7{mask:url(#mask-4);filter:url(#luminosity-noclip-9);}.cls-8{fill:url(#linear-gradient-4);}.cls-9{mask:url(#mask-5);filter:url(#luminosity-noclip-10);}.cls-10{fill:url(#linear-gradient-5);}.cls-11{mask:url(#mask-6);filter:url(#luminosity-noclip-11);}.cls-12{fill:url(#linear-gradient-6);}.cls-13{mask:url(#mask-7);filter:url(#luminosity-noclip-12);}.cls-14{fill:url(#linear-gradient-7);}.cls-15{isolation:isolate;}.cls-16{fill:url(#linear-gradient-8);}.cls-17{fill:#d0d0d1;}.cls-17,.cls-19,.cls-25,.cls-27,.cls-39,.cls-41,.cls-43,.cls-45,.cls-46,.cls-50,.cls-52{opacity:0.5;}.cls-18{mask:url(#mask-8);}.cls-19,.cls-25,.cls-39,.cls-41,.cls-43,.cls-45,.cls-46{mix-blend-mode:screen;}.cls-19{fill:url(#linear-gradient-9);}.cls-20{fill:#aeaeaf;}.cls-21{fill:url(#linear-gradient-10);}.cls-22{fill:url(#linear-gradient-11);}.cls-23{fill:url(#linear-gradient-12);}.cls-24{mask:url(#mask-9);}.cls-25{fill:url(#linear-gradient-13);}.cls-26{fill:url(#linear-gradient-14);}.cls-28{fill:#b9b8b9;}.cls-29{fill:url(#linear-gradient-15);}.cls-30{fill:url(#linear-gradient-16);}.cls-31{fill:url(#linear-gradient-17);}.cls-32{fill:url(#linear-gradient-18);}.cls-33{fill:url(#linear-gradient-19);}.cls-34{fill:url(#linear-gradient-20);}.cls-35{fill:url(#linear-gradient-21);}.cls-36{fill:url(#linear-gradient-22);}.cls-37{fill:url(#linear-gradient-23);}.cls-38{mask:url(#mask-10);}.cls-39{fill:url(#linear-gradient-24);}.cls-40{mask:url(#mask-11);}.cls-41{fill:url(#linear-gradient-25);}.cls-42{mask:url(#mask-12);}.cls-43{fill:url(#linear-gradient-26);}.cls-44{mask:url(#mask-13);}.cls-45{fill:url(#linear-gradient-27);}.cls-47{mask:url(#mask-14);}.cls-48{fill:url(#linear-gradient-28);}.cls-49{fill:url(#linear-gradient-29);}.cls-50{fill:url(#linear-gradient-30);}.cls-51{fill:url(#linear-gradient-31);}.cls-52{fill:url(#linear-gradient-32);}.cls-53{filter:url(#luminosity-noclip-7);}.cls-54{filter:url(#luminosity-noclip-6);}.cls-55{filter:url(#luminosity-noclip-5);}.cls-56{filter:url(#luminosity-noclip-4);}.cls-57{filter:url(#luminosity-noclip-3);}.cls-58{filter:url(#luminosity-noclip-2);}.cls-59{filter:url(#luminosity-noclip);}</style><filter id="luminosity-noclip" x="1.83" y="-8185.42" width="3.63" height="32766" filterUnits="userSpaceOnUse" color-interpolation-filters="sRGB"><feFlood flood-color="#fff" result="bg"/><feBlend in="SourceGraphic" in2="bg"/></filter><mask id="mask" x="1.83" y="-8185.42" width="3.63" height="32766" maskUnits="userSpaceOnUse"><g class="cls-59"/></mask><linearGradient id="linear-gradient" x1="1727.47" y1="5.44" x2="1731.06" y2="5.44" gradientTransform="translate(-1725.62)" gradientUnits="userSpaceOnUse"><stop offset="0.1" stop-color="#fff"/><stop offset="0.16" stop-color="#dbdbdb"/><stop offset="0.29" stop-color="#9a9a9a"/><stop offset="0.4" stop-color="#636363"/><stop offset="0.51" stop-color="#383838"/><stop offset="0.6" stop-color="#191919"/><stop offset="0.68" stop-color="#070707"/><stop offset="0.74"/></linearGradient><filter id="luminosity-noclip-2" x="1.03" y="-8185.42" width="1.9" height="32766" filterUnits="userSpaceOnUse" color-interpolation-filters="sRGB"><feFlood flood-color="#fff" result="bg"/><feBlend in="SourceGraphic" in2="bg"/></filter><mask id="mask-2" x="1.03" y="-8185.42" width="1.9" height="32766" maskUnits="userSpaceOnUse"><g class="cls-58"/></mask><linearGradient id="linear-gradient-2" x1="1727.6" y1="10.01" x2="1727.6" y2="8.45" gradientTransform="translate(-1725.62)" gradientUnits="userSpaceOnUse"><stop offset="0.08" stop-color="#fff"/><stop offset="0.15" stop-color="#dbdbdb"/><stop offset="0.27" stop-color="#9a9a9a"/><stop offset="0.39" stop-color="#636363"/><stop offset="0.5" stop-color="#383838"/><stop offset="0.6" stop-color="#191919"/><stop offset="0.68" stop-color="#070707"/><stop offset="0.74"/></linearGradient><filter id="luminosity-noclip-3" x="0.43" y="-8185.42" width="1.67" height="32766" filterUnits="userSpaceOnUse" color-interpolation-filters="sRGB"><feFlood flood-color="#fff" result="bg"/><feBlend in="SourceGraphic" in2="bg"/></filter><mask id="mask-3" x="0.43" y="-8185.42" width="1.67" height="32766" maskUnits="userSpaceOnUse"><g class="cls-57"/></mask><linearGradient id="linear-gradient-3" x1="1726.87" y1="12.07" x2="1726.93" y2="9.91" xlink:href="#linear-gradient-2"/><filter id="luminosity-noclip-4" x="0.7" y="-8185.42" width="5.88" height="32766" filterUnits="userSpaceOnUse" color-interpolation-filters="sRGB"><feFlood flood-color="#fff" result="bg"/><feBlend in="SourceGraphic" in2="bg"/></filter><mask id="mask-4" x="0.7" y="-8185.42" width="5.88" height="32766" maskUnits="userSpaceOnUse"><g class="cls-56"/></mask><linearGradient id="linear-gradient-4" x1="1726.61" y1="9.21" x2="1731.35" y2="9.21" xlink:href="#linear-gradient-2"/><filter id="luminosity-noclip-5" x="1.29" y="-8185.42" width="4.71" height="32766" filterUnits="userSpaceOnUse" color-interpolation-filters="sRGB"><feFlood flood-color="#fff" result="bg"/><feBlend in="SourceGraphic" in2="bg"/></filter><mask id="mask-5" x="1.29" y="-8185.42" width="4.71" height="32766" maskUnits="userSpaceOnUse"><g class="cls-55"/></mask><linearGradient id="linear-gradient-5" x1="1730.09" y1="2.4" x2="1728.43" y2="-0.1" gradientTransform="translate(-1725.62)" gradientUnits="userSpaceOnUse"><stop offset="0.12"/><stop offset="0.21" stop-color="#252525"/><stop offset="0.46" stop-color="#818181"/><stop offset="0.66" stop-color="#c5c5c5"/><stop offset="0.81" stop-color="#efefef"/><stop offset="0.88" stop-color="#fff"/></linearGradient><filter id="luminosity-noclip-6" x="1.61" y="-8185.42" width="1.22" height="32766" filterUnits="userSpaceOnUse" color-interpolation-filters="sRGB"><feFlood flood-color="#fff" result="bg"/><feBlend in="SourceGraphic" in2="bg"/></filter><mask id="mask-6" x="1.61" y="-8185.42" width="1.22" height="32766" maskUnits="userSpaceOnUse"><g class="cls-54"/></mask><linearGradient id="linear-gradient-6" x1="1727.84" y1="2.13" x2="1727.84" y2="0.03" xlink:href="#linear-gradient-5"/><filter id="luminosity-noclip-7" x="2.16" y="-8185.42" width="1.27" height="32766" filterUnits="userSpaceOnUse" color-interpolation-filters="sRGB"><feFlood flood-color="#fff" result="bg"/><feBlend in="SourceGraphic" in2="bg"/></filter><mask id="mask-7" x="2.16" y="-8185.42" width="1.27" height="32766" maskUnits="userSpaceOnUse"><g class="cls-53"/></mask><linearGradient id="linear-gradient-7" x1="1728.41" y1="8.6" x2="1728.41" y2="2.01" gradientTransform="translate(-1725.62)" gradientUnits="userSpaceOnUse"><stop offset="0.1" stop-color="#fff"/><stop offset="0.44" stop-color="#9a9a9a"/><stop offset="0.93"/></linearGradient><linearGradient id="linear-gradient-8" x1="1727.34" y1="5.44" x2="1730.52" y2="5.44" gradientTransform="translate(-1725.62)" gradientUnits="userSpaceOnUse"><stop offset="0" stop-color="#e2e2e2"/><stop offset="0.09" stop-color="#d8d8d8"/><stop offset="0.27" stop-color="#c8c8c8"/><stop offset="0.42" stop-color="#c3c3c3"/><stop offset="0.85" stop-color="#b9b8b9"/></linearGradient><filter id="luminosity-noclip-8" x="1.83" y="2.45" width="3.63" height="5.97" filterUnits="userSpaceOnUse" color-interpolation-filters="sRGB"><feFlood flood-color="#fff" result="bg"/><feBlend in="SourceGraphic" in2="bg"/></filter><mask id="mask-8" x="1.83" y="2.45" width="3.63" height="5.97" maskUnits="userSpaceOnUse"><g class="cls-1"><path class="cls-2" d="M4.6,3.48c-.16-.92.55-.92.55-.92V2.45h-3v.11s.71,0,.56.92-.86,4.8-.86,4.8v.14H5.46V8.28S4.76,4.4,4.6,3.48Z"/></g></mask><linearGradient id="linear-gradient-9" x1="1727.47" y1="5.44" x2="1731.06" y2="5.44" gradientTransform="translate(-1725.62)" gradientUnits="userSpaceOnUse"><stop offset="0.1" stop-color="#fff"/><stop offset="0.13" stop-color="#fbfbfb"/><stop offset="0.38" stop-color="#dcdcdc"/><stop offset="0.59" stop-color="#cacaca"/><stop offset="0.74" stop-color="#c3c3c3"/></linearGradient><linearGradient id="linear-gradient-10" x1="1724.05" y1="10.11" x2="1728.76" y2="10.11" gradientTransform="translate(-1725.62)" gradientUnits="userSpaceOnUse"><stop offset="0.01" stop-color="#c3c3c3"/><stop offset="0.4" stop-color="#bdbcbd"/><stop offset="1" stop-color="#b9b8b9"/></linearGradient><linearGradient id="linear-gradient-11" x1="1724.05" y1="10.33" x2="1728.76" y2="10.33" xlink:href="#linear-gradient-10"/><linearGradient id="linear-gradient-12" x1="1726.04" y1="9.21" x2="1731.17" y2="9.21" xlink:href="#linear-gradient-8"/><filter id="luminosity-noclip-9" x="0.7" y="8.42" width="5.88" height="1.57" filterUnits="userSpaceOnUse" color-interpolation-filters="sRGB"><feFlood flood-color="#fff" result="bg"/><feBlend in="SourceGraphic" in2="bg"/></filter><mask id="mask-9" x="0.7" y="8.42" width="5.88" height="1.57" maskUnits="userSpaceOnUse"><g class="cls-7"><path class="cls-8" d="M5.41,8.42l-1.77.05L1.87,8.42A3.11,3.11,0,0,1,.7,10H6.58A3.11,3.11,0,0,1,5.41,8.42Z"/></g></mask><linearGradient id="linear-gradient-13" x1="1726.61" y1="9.21" x2="1731.35" y2="9.21" gradientTransform="translate(-1725.62)" gradientUnits="userSpaceOnUse"><stop offset="0.08" stop-color="#fff"/><stop offset="0.12" stop-color="#fbfbfb"/><stop offset="0.37" stop-color="#dcdcdc"/><stop offset="0.59" stop-color="#cacaca"/><stop offset="0.74" stop-color="#c3c3c3"/></linearGradient><linearGradient id="linear-gradient-14" x1="1725.68" y1="10.6" x2="1729.96" y2="10.6" xlink:href="#linear-gradient-8"/><linearGradient id="linear-gradient-15" x1="1725.62" y1="11.37" x2="1732.91" y2="11.37" xlink:href="#linear-gradient-8"/><linearGradient id="linear-gradient-16" x1="1727.67" y1="0.72" x2="1727.84" y2="0.72" gradientTransform="translate(-1725.62)" gradientUnits="userSpaceOnUse"><stop offset="0.15" stop-color="#b9b8b9"/><stop offset="0.58" stop-color="#c3c3c3"/><stop offset="0.73" stop-color="#c8c8c8"/><stop offset="0.91" stop-color="#d8d8d8"/><stop offset="1" stop-color="#e2e2e2"/></linearGradient><linearGradient id="linear-gradient-17" x1="1727.95" y1="1.11" x2="1727.95" y2="1.34" xlink:href="#linear-gradient-8"/><linearGradient id="linear-gradient-18" x1="1728.91" y1="0.69" x2="1729.09" y2="0.69" xlink:href="#linear-gradient-16"/><linearGradient id="linear-gradient-19" x1="1729.45" y1="0.69" x2="1729.62" y2="0.69" xlink:href="#linear-gradient-8"/><linearGradient id="linear-gradient-20" x1="1729.25" y1="1.11" x2="1729.25" y2="1.36" xlink:href="#linear-gradient-8"/><linearGradient id="linear-gradient-21" x1="1730.69" y1="0.72" x2="1730.86" y2="0.72" xlink:href="#linear-gradient-8"/><linearGradient id="linear-gradient-22" x1="1730.58" y1="1.11" x2="1730.58" y2="1.35" xlink:href="#linear-gradient-8"/><linearGradient id="linear-gradient-23" x1="1725.89" y1="1.05" x2="1731.02" y2="1.05" gradientTransform="translate(-1725.62)" gradientUnits="userSpaceOnUse"><stop offset="0" stop-color="#e2e2e2"/><stop offset="0.04" stop-color="#d8d8d8"/><stop offset="0.13" stop-color="#c8c8c8"/><stop offset="0.2" stop-color="#c3c3c3"/><stop offset="0.71" stop-color="#b9b8b9"/></linearGradient><filter id="luminosity-noclip-10" x="1.29" y="0" width="4.71" height="2.1" filterUnits="userSpaceOnUse" color-interpolation-filters="sRGB"><feFlood flood-color="#fff" result="bg"/><feBlend in="SourceGraphic" in2="bg"/></filter><mask id="mask-10" x="1.29" y="0" width="4.71" height="2.1" maskUnits="userSpaceOnUse"><g class="cls-9"><path class="cls-10" d="M5.23.1V1.34H4.68V.09A.93.93,0,0,0,4,.05V1.34H3.29V.05a1,1,0,0,0-.69,0V1.34H2.05V.1a1.11,1.11,0,0,0-.76.09V2.1H6V.19A1.14,1.14,0,0,0,5.23.1Z"/></g></mask><linearGradient id="linear-gradient-24" x1="1730.09" y1="2.4" x2="1728.43" y2="-0.1" gradientTransform="translate(-1725.62)" gradientUnits="userSpaceOnUse"><stop offset="0.12" stop-color="#c3c3c3"/><stop offset="0.14" stop-color="#c5c5c5"/><stop offset="0.63" stop-color="#efefef"/><stop offset="0.88" stop-color="#fff"/></linearGradient><filter id="luminosity-noclip-11" x="1.61" y="0.01" width="1.22" height="2.09" filterUnits="userSpaceOnUse" color-interpolation-filters="sRGB"><feFlood flood-color="#fff" result="bg"/><feBlend in="SourceGraphic" in2="bg"/></filter><mask id="mask-11" x="1.61" y="0.01" width="1.22" height="2.09" maskUnits="userSpaceOnUse"><g class="cls-11"><path class="cls-12" d="M2.6.09V1.34H2.05V.1a1.37,1.37,0,0,0-.44,0v2H2.83V0A1,1,0,0,0,2.6.09Z"/></g></mask><linearGradient id="linear-gradient-25" x1="1727.84" y1="2.13" x2="1727.84" y2="0.03" gradientTransform="translate(-1725.62)" gradientUnits="userSpaceOnUse"><stop offset="0.12" stop-color="#fff"/><stop offset="0.88" stop-color="#fff"/></linearGradient><filter id="luminosity-noclip-12" x="2.16" y="2.36" width="1.27" height="6.06" filterUnits="userSpaceOnUse" color-interpolation-filters="sRGB"><feFlood flood-color="#fff" result="bg"/><feBlend in="SourceGraphic" in2="bg"/></filter><mask id="mask-12" x="2.16" y="2.36" width="1.27" height="6.06" maskUnits="userSpaceOnUse"><g class="cls-13"><path class="cls-14" d="M3,2.36l-.11.09-.37,0c.38.09.45.57.35,1.15-.19,1.06-.51,3.62-.74,4.79H3c.14-1.22.31-3.87.45-4.95S3.22,2.39,3,2.36Z"/></g></mask><linearGradient id="linear-gradient-26" x1="1728.41" y1="8.6" x2="1728.41" y2="2.01" gradientTransform="translate(-1725.62)" gradientUnits="userSpaceOnUse"><stop offset="0.1" stop-color="#fff"/><stop offset="0.93" stop-color="#fff"/></linearGradient><filter id="luminosity-noclip-13" x="1.03" y="8.43" width="1.9" height="1.56" filterUnits="userSpaceOnUse" color-interpolation-filters="sRGB"><feFlood flood-color="#fff" result="bg"/><feBlend in="SourceGraphic" in2="bg"/></filter><mask id="mask-13" x="1.03" y="8.43" width="1.9" height="1.56" maskUnits="userSpaceOnUse"><g class="cls-3"><path class="cls-4" d="M2.93,8.45l-.77,0A2.74,2.74,0,0,1,1,10H2.28A2,2,0,0,0,2.93,8.45Z"/></g></mask><linearGradient id="linear-gradient-27" x1="1727.6" y1="10.01" x2="1727.6" y2="8.45" gradientTransform="translate(-1725.62)" gradientUnits="userSpaceOnUse"><stop offset="0.08" stop-color="#fff"/><stop offset="0.74" stop-color="#fff"/></linearGradient><filter id="luminosity-noclip-14" x="0.43" y="10.76" width="1.67" height="1.21" filterUnits="userSpaceOnUse" color-interpolation-filters="sRGB"><feFlood flood-color="#fff" result="bg"/><feBlend in="SourceGraphic" in2="bg"/></filter><mask id="mask-14" x="0.43" y="10.76" width="1.67" height="1.21" maskUnits="userSpaceOnUse"><g class="cls-5"><path class="cls-6" d="M1.31,10.76A1.52,1.52,0,0,0,.43,12H1.75a1.85,1.85,0,0,1,.35-1.21Z"/></g></mask><linearGradient id="linear-gradient-28" x1="1726.87" y1="12.07" x2="1726.93" y2="9.91" xlink:href="#linear-gradient-27"/><linearGradient id="linear-gradient-29" x1="1726.2" y1="2.44" x2="1730.92" y2="2.44" gradientTransform="translate(-1725.62)" gradientUnits="userSpaceOnUse"><stop offset="0" stop-color="#e2e2e2"/><stop offset="0.01" stop-color="#dadada"/><stop offset="0.04" stop-color="#cdcdcd"/><stop offset="0.09" stop-color="#c5c5c5"/><stop offset="0.17" stop-color="#c3c3c3"/><stop offset="0.44" stop-color="#bdbcbd"/><stop offset="0.85" stop-color="#b9b8b9"/></linearGradient><linearGradient id="linear-gradient-30" x1="1726.2" y1="2.49" x2="1730.92" y2="2.49" xlink:href="#linear-gradient-29"/><linearGradient id="linear-gradient-31" x1="1729.26" y1="8.09" x2="1729.26" y2="8.64" xlink:href="#linear-gradient-8"/><linearGradient id="linear-gradient-32" x1="1729.26" y1="8.09" x2="1729.26" y2="8.64" xlink:href="#linear-gradient-8"/></defs><title>Asset 2</title><g class="cls-15"><g id="Layer_2" data-name="Layer 2"><g id="Layer_1-2" data-name="Layer 1"><path class="cls-16" d="M4.6,3.48c-.16-.92.55-.92.55-.92V2.45h-3v.11s.71,0,.56.92-.86,4.8-.86,4.8v.14H5.46V8.28S4.76,4.4,4.6,3.48Z"/><path class="cls-17" d="M4,3.26c.06.35.36,4.43.58,5l.08.18h.81V8.28s-.7-3.88-.86-4.8.55-.92.55-.92V2.45H4.26C3.89,2.53,4,3,4,3.26Z"/><g class="cls-18"><path class="cls-19" d="M4.6,3.48c-.16-.92.55-.92.55-.92V2.45h-3v.11s.71,0,.56.92-.86,4.8-.86,4.8v.14H5.46V8.28S4.76,4.4,4.6,3.48Z"/></g><polygon class="cls-20" points="3.64 1.79 1.29 2.1 1.51 2.32 2.37 2.32 4.92 2.32 5.78 2.32 6 2.1 3.64 1.79"/><path class="cls-21" d="M.7,10h0l.56.48H6L6.6,10h0l-3-.24Z"/><polygon class="cls-22" points="0.9 10.19 1.25 10.48 6.04 10.48 6.38 10.19 0.9 10.19"/><path class="cls-23" d="M5.41,8.42l-1.77.05L1.87,8.42A3.11,3.11,0,0,1,.7,10H6.58A3.11,3.11,0,0,1,5.41,8.42Z"/><path class="cls-17" d="M5.17,10l0,0H6.58A3.11,3.11,0,0,1,5.41,8.42l-.73,0A4,4,0,0,0,5.17,10Z"/><g class="cls-24"><path class="cls-25" d="M5.41,8.42l-1.77.05L1.87,8.42A3.11,3.11,0,0,1,.7,10H6.58A3.11,3.11,0,0,1,5.41,8.42Z"/></g><path class="cls-26" d="M6.37,10.69a.28.28,0,0,0-.28-.3H1.19a.29.29,0,0,0-.28.3s0,.08,0,.11H6.37Z"/><g class="cls-27"><path class="cls-28" d="M6.37,10.64H.92a.09.09,0,0,0,0,0s0,.08,0,.11H6.37v-.15Z"/></g><path class="cls-29" d="M7.29,12a1.1,1.1,0,0,0-.94-1.21H.93A1.1,1.1,0,0,0,0,12H7.29Z"/><path class="cls-17" d="M6.35,10.76H5.15a4.08,4.08,0,0,1-1.75.9A7.25,7.25,0,0,1,1.93,12H7.29A1.1,1.1,0,0,0,6.35,10.76Z"/><polygon class="cls-30" points="2.22 0.34 2.05 0.1 2.05 1.34 2.22 1.15 2.22 0.34"/><polygon class="cls-31" points="2.22 1.15 2.05 1.34 2.6 1.34 2.6 1.15 2.22 1.15"/><polygon class="cls-32" points="3.47 0.29 3.29 0.05 3.29 1.34 3.47 1.15 3.47 0.29"/><polygon class="cls-33" points="3.83 0.29 4 0.05 4 1.34 3.83 1.15 3.83 0.29"/><polygon class="cls-34" points="3.47 1.15 3.26 1.36 4 1.34 3.83 1.15 3.47 1.15"/><polygon class="cls-35" points="5.07 0.34 5.24 0.1 5.24 1.34 5.07 1.15 5.07 0.34"/><polygon class="cls-36" points="5.07 1.15 5.24 1.35 4.67 1.35 4.67 1.15 5.07 1.15"/><path class="cls-37" d="M5.23.1V1.34H4.68V.09A.93.93,0,0,0,4,.05V1.34H3.29V.05a1,1,0,0,0-.69,0V1.34H2.05V.1a1.11,1.11,0,0,0-.76.09V2.1H6V.19A1.14,1.14,0,0,0,5.23.1Z"/><path class="cls-17" d="M5.42.07a3.16,3.16,0,0,1,0,.87,1.17,1.17,0,0,1-.48.91,1.7,1.7,0,0,1-.55.25H6V.19A1,1,0,0,0,5.42.07Z"/><g class="cls-38"><path class="cls-39" d="M5.23.1V1.34H4.68V.09A.93.93,0,0,0,4,.05V1.34H3.29V.05a1,1,0,0,0-.69,0V1.34H2.05V.1a1.11,1.11,0,0,0-.76.09V2.1H6V.19A1.14,1.14,0,0,0,5.23.1Z"/></g><g class="cls-40"><path class="cls-41" d="M2.6.09V1.34H2.05V.1a1.37,1.37,0,0,0-.44,0v2H2.83V0A1,1,0,0,0,2.6.09Z"/></g><g class="cls-42"><path class="cls-43" d="M3,2.36l-.11.09-.37,0c.38.09.45.57.35,1.15-.19,1.06-.51,3.62-.74,4.79H3c.14-1.22.31-3.87.45-4.95S3.22,2.39,3,2.36Z"/></g><g class="cls-44"><path class="cls-45" d="M2.93,8.45l-.77,0A2.74,2.74,0,0,1,1,10H2.28A2,2,0,0,0,2.93,8.45Z"/></g><g class="cls-46"><g class="cls-47"><path class="cls-48" d="M1.31,10.76A1.52,1.52,0,0,0,.43,12H1.75a1.85,1.85,0,0,1,.35-1.21Z"/></g></g><path class="cls-49" d="M5.79,2.56H1.5a.13.13,0,0,1-.13-.12.13.13,0,0,1,.13-.13H5.79a.12.12,0,0,1,.12.13A.12.12,0,0,1,5.79,2.56Z"/><path class="cls-50" d="M1.4,2.42h0v0a.13.13,0,0,0,.13.12H5.79a.12.12,0,0,0,.12-.12v0Z"/><path class="cls-51" d="M5.48,8.63H1.8a.21.21,0,1,1,0-.41H5.48a.21.21,0,0,1,.21.21A.2.2,0,0,1,5.48,8.63Z"/><path class="cls-52" d="M1.6,8.4v0a.21.21,0,0,0,.21.2H5.48a.2.2,0,0,0,.21-.2v0Z"/></g></g></g></svg>