<svg xmlns="http://www.w3.org/2000/svg" xmlns:xlink="http://www.w3.org/1999/xlink" viewBox="0 0 6.78 16.53"><defs><style>.cls-1{mask:url(#mask);filter:url(#luminosity-noclip-17);}.cls-10,.cls-12,.cls-14,.cls-16,.cls-18,.cls-2,.cls-20,.cls-22,.cls-24,.cls-26,.cls-28,.cls-30,.cls-32,.cls-35,.cls-4,.cls-48,.cls-56,.cls-6,.cls-60,.cls-71,.cls-8{mix-blend-mode:multiply;}.cls-2{fill:url(#linear-gradient);}.cls-3{mask:url(#mask-2);filter:url(#luminosity-noclip-22);}.cls-4{fill:url(#linear-gradient-2);}.cls-5{mask:url(#mask-3);filter:url(#luminosity-noclip-23);}.cls-6{fill:url(#linear-gradient-3);}.cls-7{mask:url(#mask-4);filter:url(#luminosity-noclip-24);}.cls-8{fill:url(#linear-gradient-4);}.cls-9{mask:url(#mask-5);filter:url(#luminosity-noclip-25);}.cls-10{fill:url(#linear-gradient-5);}.cls-11{mask:url(#mask-6);filter:url(#luminosity-noclip-26);}.cls-12{fill:url(#linear-gradient-6);}.cls-13{mask:url(#mask-7);filter:url(#luminosity-noclip-18);}.cls-14{fill:url(#linear-gradient-7);}.cls-15{mask:url(#mask-8);filter:url(#luminosity-noclip-27);}.cls-16{fill:url(#linear-gradient-8);}.cls-17{mask:url(#mask-9);filter:url(#luminosity-noclip-28);}.cls-18{fill:url(#linear-gradient-9);}.cls-19{mask:url(#mask-10);filter:url(#luminosity-noclip-29);}.cls-20{fill:url(#linear-gradient-10);}.cls-21{mask:url(#mask-11);filter:url(#luminosity-noclip-30);}.cls-22{fill:url(#linear-gradient-11);}.cls-23{mask:url(#mask-12);filter:url(#luminosity-noclip-31);}.cls-24{fill:url(#linear-gradient-12);}.cls-25{mask:url(#mask-13);filter:url(#luminosity-noclip-32);}.cls-26{fill:url(#linear-gradient-13);}.cls-27{mask:url(#mask-14);filter:url(#luminosity-noclip-19);}.cls-28{fill:url(#linear-gradient-14);}.cls-29{mask:url(#mask-15);filter:url(#luminosity-noclip-20);}.cls-30{fill:url(#linear-gradient-15);}.cls-31{mask:url(#mask-16);filter:url(#luminosity-noclip-21);}.cls-32{fill:url(#linear-gradient-16);}.cls-33{isolation:isolate;}.cls-34{fill:url(#linear-gradient-17);}.cls-35{fill:#d0d0d1;}.cls-35,.cls-37,.cls-39,.cls-43,.cls-45,.cls-48,.cls-52,.cls-55,.cls-60,.cls-62,.cls-67,.cls-70,.cls-74,.cls-77,.cls-79,.cls-82,.cls-83{opacity:0.5;}.cls-36{mask:url(#mask-17);}.cls-37,.cls-39,.cls-43,.cls-45,.cls-52,.cls-55,.cls-59,.cls-62,.cls-65,.cls-67,.cls-70,.cls-74,.cls-77,.cls-79,.cls-82,.cls-83{mix-blend-mode:screen;}.cls-37{fill:url(#linear-gradient-18);}.cls-38{mask:url(#mask-18);}.cls-39{fill:url(#linear-gradient-19);}.cls-40{fill:url(#linear-gradient-20);}.cls-41{fill:url(#linear-gradient-21);}.cls-42{mask:url(#mask-19);}.cls-43{fill:url(#linear-gradient-22);}.cls-44{mask:url(#mask-20);}.cls-45{fill:url(#linear-gradient-23);}.cls-46{fill:url(#linear-gradient-24);}.cls-47{fill:url(#linear-gradient-25);}.cls-49,.cls-60,.cls-71{fill:#b9b8b9;}.cls-50{fill:url(#linear-gradient-26);}.cls-51{mask:url(#mask-21);}.cls-52{fill:url(#linear-gradient-27);}.cls-53{fill:url(#linear-gradient-28);}.cls-54{mask:url(#mask-22);}.cls-55{fill:url(#linear-gradient-29);}.cls-56{opacity:0.3;}.cls-57{fill:url(#linear-gradient-30);}.cls-58{mask:url(#mask-23);}.cls-59{fill:url(#linear-gradient-31);}.cls-61{mask:url(#mask-24);}.cls-62{fill:url(#linear-gradient-32);}.cls-63{fill:url(#linear-gradient-33);}.cls-64{mask:url(#mask-25);}.cls-65{fill:url(#linear-gradient-34);}.cls-66{mask:url(#mask-26);}.cls-67{fill:url(#linear-gradient-35);}.cls-68{fill:url(#linear-gradient-36);}.cls-69{mask:url(#mask-27);}.cls-70{fill:url(#linear-gradient-37);}.cls-72{fill:url(#linear-gradient-38);}.cls-73{mask:url(#mask-28);}.cls-74{fill:url(#linear-gradient-39);}.cls-75{fill:url(#linear-gradient-40);}.cls-76{mask:url(#mask-29);}.cls-77{fill:url(#linear-gradient-41);}.cls-78{mask:url(#mask-30);}.cls-79{fill:url(#linear-gradient-42);}.cls-80{fill:url(#linear-gradient-43);}.cls-81{mask:url(#mask-31);}.cls-82{fill:url(#linear-gradient-44);}.cls-84{mask:url(#mask-32);}.cls-85{fill:url(#linear-gradient-45);}.cls-86{filter:url(#luminosity-noclip-16);}.cls-87{filter:url(#luminosity-noclip-15);}.cls-88{filter:url(#luminosity-noclip-14);}.cls-89{filter:url(#luminosity-noclip-13);}.cls-90{filter:url(#luminosity-noclip-12);}.cls-91{filter:url(#luminosity-noclip-11);}.cls-92{filter:url(#luminosity-noclip-10);}.cls-93{filter:url(#luminosity-noclip-9);}.cls-94{filter:url(#luminosity-noclip-8);}.cls-95{filter:url(#luminosity-noclip-7);}.cls-96{filter:url(#luminosity-noclip-6);}.cls-97{filter:url(#luminosity-noclip-5);}.cls-98{filter:url(#luminosity-noclip-4);}.cls-99{filter:url(#luminosity-noclip-3);}.cls-100{filter:url(#luminosity-noclip-2);}.cls-101{filter:url(#luminosity-noclip);}</style><filter id="luminosity-noclip" x="0.5" y="-8189.98" width="3.81" height="32766" filterUnits="userSpaceOnUse" color-interpolation-filters="sRGB"><feFlood flood-color="#fff" result="bg"/><feBlend in="SourceGraphic" in2="bg"/></filter><mask id="mask" x="0.5" y="-8189.98" width="3.81" height="32766" maskUnits="userSpaceOnUse"><g class="cls-101"/></mask><linearGradient id="linear-gradient" x1="1726.28" y1="12.84" x2="1731.54" y2="12.84" gradientTransform="translate(-1725.62)" gradientUnits="userSpaceOnUse"><stop offset="0" stop-color="#fff"/><stop offset="0.1" stop-color="#e0e0e0"/><stop offset="0.32" stop-color="#909090"/><stop offset="0.64" stop-color="#111"/><stop offset="0.68"/><stop offset="0.85"/></linearGradient><filter id="luminosity-noclip-2" x="2.63" y="-8189.98" width="0.41" height="32766" filterUnits="userSpaceOnUse" color-interpolation-filters="sRGB"><feFlood flood-color="#fff" result="bg"/><feBlend in="SourceGraphic" in2="bg"/></filter><mask id="mask-2" x="2.63" y="-8189.98" width="0.41" height="32766" maskUnits="userSpaceOnUse"><g class="cls-100"/></mask><linearGradient id="linear-gradient-2" x1="1728.46" y1="1.65" x2="1728.46" y2="2.63" gradientTransform="translate(-1725.62)" gradientUnits="userSpaceOnUse"><stop offset="0" stop-color="#fff"/><stop offset="0.13" stop-color="#e0e0e0"/><stop offset="0.41" stop-color="#909090"/><stop offset="0.83" stop-color="#111"/><stop offset="0.88"/></linearGradient><filter id="luminosity-noclip-3" x="2.76" y="-8189.98" width="1" height="32766" filterUnits="userSpaceOnUse" color-interpolation-filters="sRGB"><feFlood flood-color="#fff" result="bg"/><feBlend in="SourceGraphic" in2="bg"/></filter><mask id="mask-3" x="2.76" y="-8189.98" width="1" height="32766" maskUnits="userSpaceOnUse"><g class="cls-99"/></mask><linearGradient id="linear-gradient-3" x1="1728.88" y1="-0.02" x2="1728.88" y2="2.45" gradientTransform="translate(-1725.62)" gradientUnits="userSpaceOnUse"><stop offset="0" stop-color="#fff"/><stop offset="0.08" stop-color="#e0e0e0"/><stop offset="0.27" stop-color="#909090"/><stop offset="0.54" stop-color="#111"/><stop offset="0.58"/><stop offset="0.85"/></linearGradient><filter id="luminosity-noclip-4" x="2.76" y="-8189.98" width="0.53" height="32766" filterUnits="userSpaceOnUse" color-interpolation-filters="sRGB"><feFlood flood-color="#fff" result="bg"/><feBlend in="SourceGraphic" in2="bg"/></filter><mask id="mask-4" x="2.76" y="-8189.98" width="0.53" height="32766" maskUnits="userSpaceOnUse"><g class="cls-98"/></mask><linearGradient id="linear-gradient-4" x1="1728.86" y1="0.66" x2="1728.39" y2="0.14" gradientTransform="translate(-1725.62)" gradientUnits="userSpaceOnUse"><stop offset="0" stop-color="#fff"/><stop offset="0.08" stop-color="#e0e0e0"/><stop offset="0.27" stop-color="#909090"/><stop offset="0.54" stop-color="#111"/><stop offset="0.58"/></linearGradient><filter id="luminosity-noclip-5" x="3.41" y="-8189.98" width="0.62" height="32766" filterUnits="userSpaceOnUse" color-interpolation-filters="sRGB"><feFlood flood-color="#fff" result="bg"/><feBlend in="SourceGraphic" in2="bg"/></filter><mask id="mask-5" x="3.41" y="-8189.98" width="0.62" height="32766" maskUnits="userSpaceOnUse"><g class="cls-97"/></mask><linearGradient id="linear-gradient-5" x1="1729.34" y1="0.15" x2="1729.34" y2="1.86" xlink:href="#linear-gradient-3"/><filter id="luminosity-noclip-6" x="3.51" y="-8189.98" width="0.52" height="32766" filterUnits="userSpaceOnUse" color-interpolation-filters="sRGB"><feFlood flood-color="#fff" result="bg"/><feBlend in="SourceGraphic" in2="bg"/></filter><mask id="mask-6" x="3.51" y="-8189.98" width="0.52" height="32766" maskUnits="userSpaceOnUse"><g class="cls-96"/></mask><linearGradient id="linear-gradient-6" x1="1729.11" y1="0.69" x2="1729.59" y2="0.2" xlink:href="#linear-gradient-4"/><filter id="luminosity-noclip-7" x="0.65" y="-8189.98" width="2.18" height="32766" filterUnits="userSpaceOnUse" color-interpolation-filters="sRGB"><feFlood flood-color="#fff" result="bg"/><feBlend in="SourceGraphic" in2="bg"/></filter><mask id="mask-7" x="0.65" y="-8189.98" width="2.18" height="32766" maskUnits="userSpaceOnUse"><g class="cls-95"/></mask><linearGradient id="linear-gradient-7" x1="1727.14" y1="13.88" x2="1727.68" y2="11.35" xlink:href="#linear-gradient"/><filter id="luminosity-noclip-8" x="2.75" y="-8189.98" width="0.36" height="32766" filterUnits="userSpaceOnUse" color-interpolation-filters="sRGB"><feFlood flood-color="#fff" result="bg"/><feBlend in="SourceGraphic" in2="bg"/></filter><mask id="mask-8" x="2.75" y="-8189.98" width="0.36" height="32766" maskUnits="userSpaceOnUse"><g class="cls-94"/></mask><linearGradient id="linear-gradient-8" x1="1728.55" y1="1.6" x2="1728.55" y2="2.18" xlink:href="#linear-gradient-2"/><filter id="luminosity-noclip-9" x="2.38" y="-8189.98" width="0.45" height="32766" filterUnits="userSpaceOnUse" color-interpolation-filters="sRGB"><feFlood flood-color="#fff" result="bg"/><feBlend in="SourceGraphic" in2="bg"/></filter><mask id="mask-9" x="2.38" y="-8189.98" width="0.45" height="32766" maskUnits="userSpaceOnUse"><g class="cls-93"/></mask><linearGradient id="linear-gradient-9" x1="1728.22" y1="7.15" x2="1728.22" y2="7.59" xlink:href="#linear-gradient-2"/><filter id="luminosity-noclip-10" x="1.17" y="-8189.98" width="3.74" height="32766" filterUnits="userSpaceOnUse" color-interpolation-filters="sRGB"><feFlood flood-color="#fff" result="bg"/><feBlend in="SourceGraphic" in2="bg"/></filter><mask id="mask-10" x="1.17" y="-8189.98" width="3.74" height="32766" maskUnits="userSpaceOnUse"><g class="cls-92"/></mask><linearGradient id="linear-gradient-10" x1="1726.51" y1="4.41" x2="1730.57" y2="4.46" gradientTransform="translate(-1725.62)" gradientUnits="userSpaceOnUse"><stop offset="0" stop-color="#fff"/><stop offset="0.08" stop-color="#ededed"/><stop offset="0.24" stop-color="#bfbfbf"/><stop offset="0.46" stop-color="#737373"/><stop offset="0.74" stop-color="#0d0d0d"/><stop offset="0.77"/></linearGradient><filter id="luminosity-noclip-11" x="1.67" y="-8189.98" width="1.29" height="32766" filterUnits="userSpaceOnUse" color-interpolation-filters="sRGB"><feFlood flood-color="#fff" result="bg"/><feBlend in="SourceGraphic" in2="bg"/></filter><mask id="mask-11" x="1.67" y="-8189.98" width="1.29" height="32766" maskUnits="userSpaceOnUse"><g class="cls-91"/></mask><linearGradient id="linear-gradient-11" x1="1727.83" y1="2.28" x2="1728.75" y2="6.88" gradientTransform="translate(-1725.62)" gradientUnits="userSpaceOnUse"><stop offset="0" stop-color="#fff"/><stop offset="0.09" stop-color="#ededed"/><stop offset="0.28" stop-color="#bfbfbf"/><stop offset="0.55" stop-color="#737373"/><stop offset="0.87" stop-color="#0d0d0d"/><stop offset="0.92"/></linearGradient><filter id="luminosity-noclip-12" x="2.23" y="-8189.98" width="0.63" height="32766" filterUnits="userSpaceOnUse" color-interpolation-filters="sRGB"><feFlood flood-color="#fff" result="bg"/><feBlend in="SourceGraphic" in2="bg"/></filter><mask id="mask-12" x="2.23" y="-8189.98" width="0.63" height="32766" maskUnits="userSpaceOnUse"><g class="cls-90"/></mask><linearGradient id="linear-gradient-12" x1="1728.17" y1="6.46" x2="1728.17" y2="7.04" xlink:href="#linear-gradient-2"/><filter id="luminosity-noclip-13" x="0.63" y="-8189.98" width="1.67" height="32766" filterUnits="userSpaceOnUse" color-interpolation-filters="sRGB"><feFlood flood-color="#fff" result="bg"/><feBlend in="SourceGraphic" in2="bg"/></filter><mask id="mask-13" x="0.63" y="-8189.98" width="1.67" height="32766" maskUnits="userSpaceOnUse"><g class="cls-89"/></mask><linearGradient id="linear-gradient-13" x1="1727.07" y1="16.6" x2="1727.13" y2="14.45" gradientTransform="translate(-1725.62)" gradientUnits="userSpaceOnUse"><stop offset="0.08" stop-color="#fff"/><stop offset="0.15" stop-color="#dbdbdb"/><stop offset="0.27" stop-color="#9a9a9a"/><stop offset="0.39" stop-color="#636363"/><stop offset="0.5" stop-color="#383838"/><stop offset="0.6" stop-color="#191919"/><stop offset="0.68" stop-color="#070707"/><stop offset="0.74"/></linearGradient><filter id="luminosity-noclip-14" x="1.66" y="-8189.98" width="2.62" height="32766" filterUnits="userSpaceOnUse" color-interpolation-filters="sRGB"><feFlood flood-color="#fff" result="bg"/><feBlend in="SourceGraphic" in2="bg"/></filter><mask id="mask-14" x="1.66" y="-8189.98" width="2.62" height="32766" maskUnits="userSpaceOnUse"><g class="cls-88"/></mask><linearGradient id="linear-gradient-14" x1="1727.28" y1="9.5" x2="1729.9" y2="9.5" gradientTransform="translate(-1725.62)" gradientUnits="userSpaceOnUse"><stop offset="0.19" stop-color="#fff"/><stop offset="0.28" stop-color="#e0e0e0"/><stop offset="0.47" stop-color="#909090"/><stop offset="0.76" stop-color="#111"/><stop offset="0.8"/><stop offset="0.98"/></linearGradient><filter id="luminosity-noclip-15" x="1.99" y="-8189.98" width="1.08" height="32766" filterUnits="userSpaceOnUse" color-interpolation-filters="sRGB"><feFlood flood-color="#fff" result="bg"/><feBlend in="SourceGraphic" in2="bg"/></filter><mask id="mask-15" x="1.99" y="-8189.98" width="1.08" height="32766" maskUnits="userSpaceOnUse"><g class="cls-87"/></mask><linearGradient id="linear-gradient-15" x1="1728.15" y1="11.96" x2="1728.15" y2="6.64" xlink:href="#linear-gradient-14"/><filter id="luminosity-noclip-16" x="0" y="-8189.98" width="3.23" height="32766" filterUnits="userSpaceOnUse" color-interpolation-filters="sRGB"><feFlood flood-color="#fff" result="bg"/><feBlend in="SourceGraphic" in2="bg"/></filter><mask id="mask-16" x="0" y="-8189.98" width="3.23" height="32766" maskUnits="userSpaceOnUse"><g class="cls-86"/></mask><linearGradient id="linear-gradient-16" x1="1725.62" y1="15.92" x2="1728.85" y2="15.92" xlink:href="#linear-gradient-3"/><linearGradient id="linear-gradient-17" x1="1726.1" y1="12.84" x2="1729.96" y2="12.84" gradientTransform="translate(-1725.62)" gradientUnits="userSpaceOnUse"><stop offset="0" stop-color="#e2e2e2"/><stop offset="0.09" stop-color="#d8d8d8"/><stop offset="0.27" stop-color="#c8c8c8"/><stop offset="0.42" stop-color="#c3c3c3"/><stop offset="0.85" stop-color="#b9b8b9"/></linearGradient><filter id="luminosity-noclip-17" x="0.5" y="11.91" width="3.81" height="1.86" filterUnits="userSpaceOnUse" color-interpolation-filters="sRGB"><feFlood flood-color="#fff" result="bg"/><feBlend in="SourceGraphic" in2="bg"/></filter><mask id="mask-17" x="0.5" y="11.91" width="3.81" height="1.86" maskUnits="userSpaceOnUse"><g class="cls-1"><path class="cls-2" d="M4.07,13.51c-.13-1.52-.85-1.58-.85-1.58-.25,0-1.12-.06-1.29.13-.51.57-1,1.21-1.38,1.65l0,0,0,0h3.8C4.22,13.7,4.08,13.63,4.07,13.51Z"/></g></mask><linearGradient id="linear-gradient-18" x1="1726.28" y1="12.84" x2="1731.54" y2="12.84" gradientTransform="translate(-1725.62)" gradientUnits="userSpaceOnUse"><stop offset="0" stop-color="#fff"/><stop offset="0.37" stop-color="#e0e0e0"/><stop offset="0.68" stop-color="#c3c3c3"/><stop offset="0.85" stop-color="#b9b8b9"/></linearGradient><filter id="luminosity-noclip-18" x="0.65" y="11.92" width="2.18" height="1.85" filterUnits="userSpaceOnUse" color-interpolation-filters="sRGB"><feFlood flood-color="#fff" result="bg"/><feBlend in="SourceGraphic" in2="bg"/></filter><mask id="mask-18" x="0.65" y="11.92" width="2.18" height="1.85" maskUnits="userSpaceOnUse"><g class="cls-13"><path class="cls-14" d="M2.82,11.94a3.49,3.49,0,0,0-.56,0c-.14.24-1.46,1.7-1.61,1.84H1.71C1.77,13.69,2.7,12.22,2.82,11.94Z"/></g></mask><linearGradient id="linear-gradient-19" x1="1727.14" y1="13.88" x2="1727.68" y2="11.35" xlink:href="#linear-gradient-18"/><linearGradient id="linear-gradient-20" x1="1724.95" y1="14.36" x2="1732.16" y2="14.36" gradientTransform="translate(-1725.62)" gradientUnits="userSpaceOnUse"><stop offset="0" stop-color="#e7e7e7"/><stop offset="0.02" stop-color="#e5e5e5"/><stop offset="0.36" stop-color="#c7c7c7"/><stop offset="0.66" stop-color="#b5b5b5"/><stop offset="0.87" stop-color="#aeaeaf"/></linearGradient><linearGradient id="linear-gradient-21" x1="1726.65" y1="9.53" x2="1729.58" y2="9.53" xlink:href="#linear-gradient-17"/><filter id="luminosity-noclip-19" x="1.66" y="7.16" width="2.62" height="4.69" filterUnits="userSpaceOnUse" color-interpolation-filters="sRGB"><feFlood flood-color="#fff" result="bg"/><feBlend in="SourceGraphic" in2="bg"/></filter><mask id="mask-19" x="1.66" y="7.16" width="2.62" height="4.69" maskUnits="userSpaceOnUse"><g class="cls-27"><path class="cls-28" d="M3.69,11a11.12,11.12,0,0,1-.07-1.83c0-.3,0-1.35-.08-1.65-.09-.56-.86-.28-.85.08a11.65,11.65,0,0,1-.18,1.81,9.25,9.25,0,0,1-.85,2.48H4.28A1.87,1.87,0,0,1,3.69,11Z"/></g></mask><linearGradient id="linear-gradient-22" x1="1727.28" y1="9.5" x2="1729.9" y2="9.5" gradientTransform="translate(-1725.62)" gradientUnits="userSpaceOnUse"><stop offset="0.19" stop-color="#fff"/><stop offset="0.52" stop-color="#e0e0e0"/><stop offset="0.8" stop-color="#c3c3c3"/><stop offset="0.98" stop-color="#b9b8b9"/></linearGradient><filter id="luminosity-noclip-20" x="1.99" y="7.17" width="1.08" height="4.67" filterUnits="userSpaceOnUse" color-interpolation-filters="sRGB"><feFlood flood-color="#fff" result="bg"/><feBlend in="SourceGraphic" in2="bg"/></filter><mask id="mask-20" x="1.99" y="7.17" width="1.08" height="4.67" maskUnits="userSpaceOnUse"><g class="cls-29"><path class="cls-30" d="M3,9.76c0-.48.1-2.44.09-2.59a.44.44,0,0,0-.16.06c0,.15-.05.08-.06.23A10.08,10.08,0,0,1,2,11.84h.83C2.87,11.15,2.94,10.46,3,9.76Z"/></g></mask><linearGradient id="linear-gradient-23" x1="1728.15" y1="11.96" x2="1728.15" y2="6.64" xlink:href="#linear-gradient-22"/><linearGradient id="linear-gradient-24" x1="1726.19" y1="11.96" x2="1729.75" y2="11.96" xlink:href="#linear-gradient-20"/><linearGradient id="linear-gradient-25" x1="1724.82" y1="15.14" x2="1729.74" y2="15.14" xlink:href="#linear-gradient-20"/><linearGradient id="linear-gradient-26" x1="1724.78" y1="15.92" x2="1731.19" y2="15.92" xlink:href="#linear-gradient-20"/><filter id="luminosity-noclip-21" x="0" y="15.31" width="3.23" height="1.21" filterUnits="userSpaceOnUse" color-interpolation-filters="sRGB"><feFlood flood-color="#fff" result="bg"/><feBlend in="SourceGraphic" in2="bg"/></filter><mask id="mask-21" x="0" y="15.31" width="3.23" height="1.21" maskUnits="userSpaceOnUse"><g class="cls-31"><path class="cls-32" d="M2.79,16.22c-.28-.29-.48-.72-.9-.84a1.94,1.94,0,0,0-.59-.06,2,2,0,0,0-.6,0,.77.77,0,0,0-.27.16,1.28,1.28,0,0,0-.43,1H3.23A1.15,1.15,0,0,1,2.79,16.22Z"/></g></mask><linearGradient id="linear-gradient-27" x1="1725.62" y1="15.92" x2="1728.85" y2="15.92" gradientTransform="translate(-1725.62)" gradientUnits="userSpaceOnUse"><stop offset="0" stop-color="#fff"/><stop offset="0.32" stop-color="#e0e0e0"/><stop offset="0.58" stop-color="#c3c3c3"/><stop offset="0.85" stop-color="#b9b8b9"/></linearGradient><linearGradient id="linear-gradient-28" x1="1729.01" y1="1.65" x2="1729.01" y2="2.63" gradientTransform="translate(-1725.62)" gradientUnits="userSpaceOnUse"><stop offset="0" stop-color="#b9b8b9"/><stop offset="0.2" stop-color="#e2e2e2"/><stop offset="0.29" stop-color="#d8d8d8"/><stop offset="0.46" stop-color="#c8c8c8"/><stop offset="0.6" stop-color="#c3c3c3"/><stop offset="1" stop-color="#b9b8b9"/></linearGradient><filter id="luminosity-noclip-22" x="2.63" y="2.03" width="0.41" height="0.57" filterUnits="userSpaceOnUse" color-interpolation-filters="sRGB"><feFlood flood-color="#fff" result="bg"/><feBlend in="SourceGraphic" in2="bg"/></filter><mask id="mask-22" x="2.63" y="2.03" width="0.41" height="0.57" maskUnits="userSpaceOnUse"><g class="cls-3"><path class="cls-4" d="M2.94,2.41A.72.72,0,0,1,3,2a.86.86,0,0,0-.17,0,.48.48,0,0,0-.21.25.64.64,0,0,0,0,.2A1.63,1.63,0,0,0,3,2.6.4.4,0,0,1,2.94,2.41Z"/></g></mask><linearGradient id="linear-gradient-29" x1="1728.46" y1="1.65" x2="1728.46" y2="2.63" gradientTransform="translate(-1725.62)" gradientUnits="userSpaceOnUse"><stop offset="0" stop-color="#fff"/><stop offset="0.48" stop-color="#e0e0e0"/><stop offset="0.88" stop-color="#c3c3c3"/></linearGradient><linearGradient id="linear-gradient-30" x1="1728.37" y1="0.92" x2="1729.12" y2="0.92" xlink:href="#linear-gradient-17"/><filter id="luminosity-noclip-23" x="2.76" y="0" width="1" height="1.02" filterUnits="userSpaceOnUse" color-interpolation-filters="sRGB"><feFlood flood-color="#fff" result="bg"/><feBlend in="SourceGraphic" in2="bg"/></filter><mask id="mask-23" x="2.76" y="0" width="1" height="1.02" maskUnits="userSpaceOnUse"><g class="cls-5"><path class="cls-6" d="M2.76.83A.34.34,0,0,0,3.08,1,.59.59,0,0,0,3.59.65,2.15,2.15,0,0,0,3.76,0H3l.17.63L2.76.5Z"/></g></mask><linearGradient id="linear-gradient-31" x1="1728.88" y1="-0.02" x2="1728.88" y2="2.45" xlink:href="#linear-gradient-27"/><filter id="luminosity-noclip-24" x="2.76" y="0" width="0.53" height="0.74" filterUnits="userSpaceOnUse" color-interpolation-filters="sRGB"><feFlood flood-color="#fff" result="bg"/><feBlend in="SourceGraphic" in2="bg"/></filter><mask id="mask-24" x="2.76" y="0" width="0.53" height="0.74" maskUnits="userSpaceOnUse"><g class="cls-7"><path class="cls-8" d="M3.26.73C3.38.68,3,0,3,0l.17.63L2.76.5S3.14.78,3.26.73Z"/></g></mask><linearGradient id="linear-gradient-32" x1="1728.86" y1="0.66" x2="1728.39" y2="0.14" gradientTransform="translate(-1725.62)" gradientUnits="userSpaceOnUse"><stop offset="0" stop-color="#fff"/><stop offset="0.32" stop-color="#e0e0e0"/><stop offset="0.58" stop-color="#c3c3c3"/></linearGradient><linearGradient id="linear-gradient-33" x1="1729.73" y1="0.92" x2="1728.95" y2="0.92" xlink:href="#linear-gradient-17"/><filter id="luminosity-noclip-25" x="3.41" y="0" width="0.62" height="1.02" filterUnits="userSpaceOnUse" color-interpolation-filters="sRGB"><feFlood flood-color="#fff" result="bg"/><feBlend in="SourceGraphic" in2="bg"/></filter><mask id="mask-25" x="3.41" y="0" width="0.62" height="1.02" maskUnits="userSpaceOnUse"><g class="cls-9"><path class="cls-10" d="M3.63,1A.49.49,0,0,0,4,.91V.5l-.4.13L3.81,0h-.4V.9A.26.26,0,0,0,3.63,1Z"/></g></mask><linearGradient id="linear-gradient-34" x1="1729.34" y1="0.15" x2="1729.34" y2="1.86" xlink:href="#linear-gradient-27"/><filter id="luminosity-noclip-26" x="3.51" y="0" width="0.52" height="0.75" filterUnits="userSpaceOnUse" color-interpolation-filters="sRGB"><feFlood flood-color="#fff" result="bg"/><feBlend in="SourceGraphic" in2="bg"/></filter><mask id="mask-26" x="3.51" y="0" width="0.52" height="0.75" maskUnits="userSpaceOnUse"><g class="cls-11"><path class="cls-12" d="M3.81,0s-.43.8-.26.75A4.75,4.75,0,0,0,4,.5l-.4.13Z"/></g></mask><linearGradient id="linear-gradient-35" x1="1729.11" y1="0.69" x2="1729.59" y2="0.2" xlink:href="#linear-gradient-32"/><linearGradient id="linear-gradient-36" x1="1729.01" y1="1.6" x2="1729.01" y2="2.18" xlink:href="#linear-gradient-28"/><filter id="luminosity-noclip-27" x="2.75" y="1.73" width="0.36" height="0.37" filterUnits="userSpaceOnUse" color-interpolation-filters="sRGB"><feFlood flood-color="#fff" result="bg"/><feBlend in="SourceGraphic" in2="bg"/></filter><mask id="mask-27" x="2.75" y="1.73" width="0.36" height="0.37" maskUnits="userSpaceOnUse"><g class="cls-15"><path class="cls-16" d="M3,1.94a.23.23,0,0,1,.11-.21H2.87a.22.22,0,0,0-.07.33.1.1,0,0,0,.05,0h.22A.24.24,0,0,1,3,1.94Z"/></g></mask><linearGradient id="linear-gradient-37" x1="1728.55" y1="1.6" x2="1728.55" y2="2.18" xlink:href="#linear-gradient-29"/><linearGradient id="linear-gradient-38" x1="1727.65" y1="7.3" x2="1730.11" y2="7.3" xlink:href="#linear-gradient-20"/><filter id="luminosity-noclip-28" x="2.38" y="7.05" width="0.45" height="0.5" filterUnits="userSpaceOnUse" color-interpolation-filters="sRGB"><feFlood flood-color="#fff" result="bg"/><feBlend in="SourceGraphic" in2="bg"/></filter><mask id="mask-28" x="2.38" y="7.05" width="0.45" height="0.5" maskUnits="userSpaceOnUse"><g class="cls-17"><path class="cls-18" d="M2.68,7.35a.34.34,0,0,1,.13-.3H2.53a.32.32,0,0,0,0,.51h.34A.3.3,0,0,1,2.68,7.35Z"/></g></mask><linearGradient id="linear-gradient-39" x1="1728.22" y1="7.15" x2="1728.22" y2="7.59" xlink:href="#linear-gradient-29"/><linearGradient id="linear-gradient-40" x1="1726.62" y1="4.38" x2="1729.94" y2="4.38" xlink:href="#linear-gradient-17"/><filter id="luminosity-noclip-29" x="1.17" y="2.28" width="3.74" height="4.31" filterUnits="userSpaceOnUse" color-interpolation-filters="sRGB"><feFlood flood-color="#fff" result="bg"/><feBlend in="SourceGraphic" in2="bg"/></filter><mask id="mask-29" x="1.17" y="2.28" width="3.74" height="4.31" maskUnits="userSpaceOnUse"><g class="cls-19"><path class="cls-20" d="M2.31,6.47c.07.19,1.27.12,1.49.06.71-.21.71-1.86.9-2.52a5.56,5.56,0,0,0,.2-1.14c0-.11,0-.44-.13-.47l-.26,0a7.79,7.79,0,0,0-1.28-.07,3,3,0,0,0-.42,0,7.89,7.89,0,0,0-.85.1,2.85,2.85,0,0,0-.39.11c-.28.11-.5.37-.36.89C1.43,4.24,2,5.46,2.31,6.47Z"/></g></mask><linearGradient id="linear-gradient-41" x1="1726.51" y1="4.41" x2="1730.57" y2="4.46" gradientTransform="translate(-1725.62)" gradientUnits="userSpaceOnUse"><stop offset="0" stop-color="#fff"/><stop offset="0.27" stop-color="#ededed"/><stop offset="0.77" stop-color="#c3c3c3"/></linearGradient><filter id="luminosity-noclip-30" x="1.67" y="2.3" width="1.29" height="4.3" filterUnits="userSpaceOnUse" color-interpolation-filters="sRGB"><feFlood flood-color="#fff" result="bg"/><feBlend in="SourceGraphic" in2="bg"/></filter><mask id="mask-30" x="1.67" y="2.3" width="1.29" height="4.3" maskUnits="userSpaceOnUse"><g class="cls-21"><path class="cls-22" d="M1.89,2.58a1.19,1.19,0,0,0-.16,1.08c.08.34.59,2.64.69,2.88a1.71,1.71,0,0,0,.5,0c-.06-.55-.13-1.1-.2-1.65,0-.31-.07-.61-.1-.92A9.65,9.65,0,0,1,2.53,3c0-.39.13-.57.43-.65H2.81a5.51,5.51,0,0,0-.57.06A.53.53,0,0,0,1.89,2.58Z"/></g></mask><linearGradient id="linear-gradient-42" x1="1727.83" y1="2.28" x2="1728.75" y2="6.88" gradientTransform="translate(-1725.62)" gradientUnits="userSpaceOnUse"><stop offset="0" stop-color="#fff"/><stop offset="0.32" stop-color="#ededed"/><stop offset="0.92" stop-color="#c3c3c3"/></linearGradient><linearGradient id="linear-gradient-43" x1="1727.29" y1="6.76" x2="1730.15" y2="6.76" xlink:href="#linear-gradient-20"/><filter id="luminosity-noclip-31" x="2.23" y="6.47" width="0.63" height="0.59" filterUnits="userSpaceOnUse" color-interpolation-filters="sRGB"><feFlood flood-color="#fff" result="bg"/><feBlend in="SourceGraphic" in2="bg"/></filter><mask id="mask-31" x="2.23" y="6.47" width="0.63" height="0.59" maskUnits="userSpaceOnUse"><g class="cls-23"><path class="cls-24" d="M2.73,6.89a.46.46,0,0,1,.12-.42H2.42s-.13.09-.15.12a.3.3,0,0,0,0,.26A.34.34,0,0,0,2.31,7s.07.09.1.09h.45A.31.31,0,0,1,2.73,6.89Z"/></g></mask><linearGradient id="linear-gradient-44" x1="1728.17" y1="6.46" x2="1728.17" y2="7.04" xlink:href="#linear-gradient-29"/><filter id="luminosity-noclip-32" x="0.63" y="15.29" width="1.67" height="1.21" filterUnits="userSpaceOnUse" color-interpolation-filters="sRGB"><feFlood flood-color="#fff" result="bg"/><feBlend in="SourceGraphic" in2="bg"/></filter><mask id="mask-32" x="0.63" y="15.29" width="1.67" height="1.21" maskUnits="userSpaceOnUse"><g class="cls-25"><path class="cls-26" d="M1.51,15.29A1.52,1.52,0,0,0,.63,16.5H2a1.8,1.8,0,0,1,.35-1.21Z"/></g></mask><linearGradient id="linear-gradient-45" x1="1727.07" y1="16.6" x2="1727.13" y2="14.45" gradientTransform="translate(-1725.62)" gradientUnits="userSpaceOnUse"><stop offset="0.08" stop-color="#fff"/><stop offset="0.74" stop-color="#fff"/></linearGradient></defs><title>Asset 4</title><g class="cls-33"><g id="Layer_2" data-name="Layer 2"><g id="Layer_1-2" data-name="Layer 1"><polygon class="cls-34" points="4.85 12.07 4.78 11.9 3.39 11.92 2 11.9 1.91 12.07 0.49 13.78 2.57 13.78 4.22 13.78 6.29 13.78 4.85 12.07"/><path class="cls-35" d="M4.35,13a.94.94,0,0,1,0,.68l0,.07h2L4.85,12.07l-.07-.16h-1A4.2,4.2,0,0,1,4.35,13Z"/><g class="cls-36"><path class="cls-37" d="M4.07,13.51c-.13-1.52-.85-1.58-.85-1.58-.25,0-1.12-.06-1.29.13-.51.57-1,1.21-1.38,1.65l0,0,0,0h3.8C4.22,13.7,4.08,13.63,4.07,13.51Z"/></g><g class="cls-38"><path class="cls-39" d="M2.82,11.94a3.49,3.49,0,0,0-.56,0c-.14.24-1.46,1.7-1.61,1.84H1.71C1.77,13.69,2.7,12.22,2.82,11.94Z"/></g><polygon class="cls-40" points="3.39 13.77 0.49 13.77 1.17 14.95 2.47 14.95 4.32 14.95 5.61 14.95 6.29 13.77 3.39 13.77"/><path class="cls-41" d="M4.11,7.22l-.72.09-.72-.09a9.48,9.48,0,0,1-1,4.62H5.13A9.56,9.56,0,0,1,4.11,7.22Z"/><path class="cls-35" d="M4.11,7.22H4s-.47,0-.47,0a7,7,0,0,0,0,1.41,9.75,9.75,0,0,0,.23,1.86,6.35,6.35,0,0,0,.51,1.31h.84A9.56,9.56,0,0,1,4.11,7.22Z"/><g class="cls-42"><path class="cls-43" d="M3.69,11a11.12,11.12,0,0,1-.07-1.83c0-.3,0-1.35-.08-1.65-.09-.56-.86-.28-.85.08a11.65,11.65,0,0,1-.18,1.81,9.25,9.25,0,0,1-.85,2.48H4.28A1.87,1.87,0,0,1,3.69,11Z"/></g><g class="cls-44"><path class="cls-45" d="M3,9.76c0-.48.1-2.44.09-2.59a.44.44,0,0,0-.16.06c0,.15-.05.08-.06.23A10.08,10.08,0,0,1,2,11.84h.83C2.87,11.15,2.94,10.46,3,9.76Z"/></g><polygon class="cls-46" points="1.66 11.84 1.91 12.07 4.84 12.07 5.13 11.84 1.66 11.84"/><path class="cls-47" d="M5.87,15.23a.28.28,0,0,0-.28-.29H1.19a.29.29,0,0,0-.28.29s0,.09,0,.12h5Z"/><g class="cls-48"><path class="cls-49" d="M5.87,15.19H.92a.08.08,0,0,0,0,0s0,.09,0,.12h5v-.15Z"/></g><path class="cls-50" d="M6.78,16.52a1.09,1.09,0,0,0-.93-1.21H.93A1.1,1.1,0,0,0,0,16.52H6.78Z"/><path class="cls-35" d="M5.85,15.31H4a1.47,1.47,0,0,1-.45.3A11.57,11.57,0,0,1,0,16.53H6.78A1.09,1.09,0,0,0,5.85,15.31Z"/><g class="cls-51"><path class="cls-52" d="M2.79,16.22c-.28-.29-.48-.72-.9-.84a1.94,1.94,0,0,0-.59-.06,2,2,0,0,0-.6,0,.77.77,0,0,0-.27.16,1.28,1.28,0,0,0-.43,1H3.23A1.15,1.15,0,0,1,2.79,16.22Z"/></g><path class="cls-53" d="M4.29,2.32c0,.16-.4.3-.9.3s-.89-.14-.89-.3S2.9,2,3.39,2,4.29,2.15,4.29,2.32Z"/><g class="cls-54"><path class="cls-55" d="M2.94,2.41A.72.72,0,0,1,3,2a.86.86,0,0,0-.17,0,.48.48,0,0,0-.21.25.64.64,0,0,0,0,.2A1.63,1.63,0,0,0,3,2.6.4.4,0,0,1,2.94,2.41Z"/></g><g class="cls-56"><path class="cls-49" d="M4.09,2.13A1.92,1.92,0,0,0,3.39,2a1.93,1.93,0,0,0-.71.12,2.9,2.9,0,0,0,.71,0A2.75,2.75,0,0,0,4.09,2.13Z"/></g><g class="cls-48"><path class="cls-49" d="M4.18,2.17c.08.14-.42.08-.8.08s-.9,0-.78-.07a.19.19,0,0,0-.1.14c0,.16.4.3.89.3s.9-.14.9-.3S4.25,2.22,4.18,2.17Z"/></g><polygon class="cls-57" points="4.03 0.5 3.63 0.63 3.81 0 3.5 0 3.28 0 2.98 0 3.15 0.63 2.75 0.5 2.75 1.37 3.09 1.15 2.87 1.85 3.92 1.85 3.69 1.15 4.03 1.37 4.03 0.5"/><g class="cls-58"><path class="cls-59" d="M2.76.83A.34.34,0,0,0,3.08,1,.59.59,0,0,0,3.59.65,2.15,2.15,0,0,0,3.76,0H3l.17.63L2.76.5Z"/></g><path class="cls-60" d="M4,.86c-.21,0-.41,0-.61,0h0a2.1,2.1,0,0,1-.16.62c0,.09-.2.23-.29.08H3l-.09.28h1l-.22-.7L4,1.37Z"/><g class="cls-61"><path class="cls-62" d="M3.26.73C3.38.68,3,0,3,0l.17.63L2.76.5S3.14.78,3.26.73Z"/></g><polygon class="cls-63" points="4.03 0.5 3.63 0.63 3.81 0 3.41 0 3.41 1.85 3.92 1.85 3.69 1.15 4.03 1.37 4.03 0.5"/><g class="cls-64"><path class="cls-65" d="M3.63,1A.49.49,0,0,0,4,.91V.5l-.4.13L3.81,0h-.4V.9A.26.26,0,0,0,3.63,1Z"/></g><path class="cls-60" d="M3.84,1.61c-.17.11-.4-.09-.43-.65v.89h.51Z"/><g class="cls-66"><path class="cls-67" d="M3.81,0s-.43.8-.26.75A4.75,4.75,0,0,0,4,.5l-.4.13Z"/></g><path class="cls-68" d="M4,2.1H2.81a.18.18,0,0,1-.19-.18.19.19,0,0,1,.19-.19H4a.19.19,0,0,1,.18.19A.18.18,0,0,1,4,2.1Z"/><g class="cls-69"><path class="cls-70" d="M3,1.94a.23.23,0,0,1,.11-.21H2.87a.22.22,0,0,0-.07.33.1.1,0,0,0,.05,0h.22A.24.24,0,0,1,3,1.94Z"/></g><g class="cls-48"><path class="cls-71" d="M4,2H2.81a.18.18,0,0,1-.18-.13s0,0,0,.06a.18.18,0,0,0,.19.18H4a.18.18,0,0,0,.18-.18.13.13,0,0,0,0-.06A.17.17,0,0,1,4,2Z"/></g><path class="cls-72" d="M4.29,7.56H2.49a.26.26,0,0,1,0-.51h1.8a.26.26,0,0,1,0,.51Z"/><g class="cls-73"><path class="cls-74" d="M2.68,7.35a.34.34,0,0,1,.13-.3H2.53a.32.32,0,0,0,0,.51h.34A.3.3,0,0,1,2.68,7.35Z"/></g><path class="cls-60" d="M4.51,7.19a.25.25,0,0,0-.22-.14H2.49a.25.25,0,0,0-.22.14Z"/><path class="cls-60" d="M2.26,7.39a.24.24,0,0,0,.23.17h1.8a.26.26,0,0,0,.24-.17Z"/><path class="cls-75" d="M5.21,2.52a2.74,2.74,0,0,0-.7-.16,7.79,7.79,0,0,0-1.28-.07,3,3,0,0,0-.42,0,7.89,7.89,0,0,0-.85.1,2.85,2.85,0,0,0-.39.11c-.48.19-.48.63-.26,1.23l1,2.72H4.47l1-2.72C5.69,3.15,5.7,2.71,5.21,2.52Z"/><path class="cls-35" d="M5.21,2.52a2.74,2.74,0,0,0-.7-.16L4,2.3a1.66,1.66,0,0,1,.16.21c.2.29.2.58,0,1.41-.14.63-.31,1.26-.45,1.89,0,.22-.1.44-.16.66h.92l1-2.72C5.69,3.15,5.7,2.71,5.21,2.52Z"/><g class="cls-76"><path class="cls-77" d="M2.31,6.47c.07.19,1.27.12,1.49.06.71-.21.71-1.86.9-2.52a5.56,5.56,0,0,0,.2-1.14c0-.11,0-.44-.13-.47l-.26,0a7.79,7.79,0,0,0-1.28-.07,3,3,0,0,0-.42,0,7.89,7.89,0,0,0-.85.1,2.85,2.85,0,0,0-.39.11c-.28.11-.5.37-.36.89C1.43,4.24,2,5.46,2.31,6.47Z"/></g><g class="cls-78"><path class="cls-79" d="M1.89,2.58a1.19,1.19,0,0,0-.16,1.08c.08.34.59,2.64.69,2.88a1.71,1.71,0,0,0,.5,0c-.06-.55-.13-1.1-.2-1.65,0-.31-.07-.61-.1-.92A9.65,9.65,0,0,1,2.53,3c0-.39.13-.57.43-.65H2.81a5.51,5.51,0,0,0-.57.06A.53.53,0,0,0,1.89,2.58Z"/></g><path class="cls-80" d="M4.43,7.06H2.34a.3.3,0,0,1-.29-.3.29.29,0,0,1,.29-.29H4.43a.29.29,0,0,1,.29.29A.3.3,0,0,1,4.43,7.06Z"/><g class="cls-81"><path class="cls-82" d="M2.73,6.89a.46.46,0,0,1,.12-.42H2.42s-.13.09-.15.12a.3.3,0,0,0,0,.26A.34.34,0,0,0,2.31,7s.07.09.1.09h.45A.31.31,0,0,1,2.73,6.89Z"/></g><path class="cls-60" d="M2.07,6.88a.31.31,0,0,0,.27.18H4.43a.3.3,0,0,0,.27-.18Z"/><g class="cls-83"><g class="cls-84"><path class="cls-85" d="M1.51,15.29A1.52,1.52,0,0,0,.63,16.5H2a1.8,1.8,0,0,1,.35-1.21Z"/></g></g></g></g></g></svg>