<svg xmlns="http://www.w3.org/2000/svg" xmlns:xlink="http://www.w3.org/1999/xlink" viewBox="0 0 10.16 13.47"><defs><style>.cls-1{mask:url(#mask);filter:url(#luminosity-noclip-9);}.cls-10,.cls-12,.cls-14,.cls-16,.cls-2,.cls-23,.cls-4,.cls-51,.cls-53,.cls-6,.cls-8{mix-blend-mode:multiply;}.cls-2{fill:url(#linear-gradient);}.cls-3{mask:url(#mask-2);}.cls-4{fill:url(#linear-gradient-2);}.cls-5{mask:url(#mask-3);filter:url(#luminosity-noclip-12);}.cls-6{fill:url(#linear-gradient-3);}.cls-7{mask:url(#mask-4);filter:url(#luminosity-noclip-13);}.cls-8{fill:url(#linear-gradient-4);}.cls-9{mask:url(#mask-5);}.cls-10{fill:url(#linear-gradient-5);}.cls-11{mask:url(#mask-6);filter:url(#luminosity-noclip-10);}.cls-12{fill:url(#linear-gradient-6);}.cls-13{mask:url(#mask-7);filter:url(#luminosity-noclip-11);}.cls-14{fill:url(#linear-gradient-7);}.cls-15{mask:url(#mask-8);}.cls-16{fill:url(#linear-gradient-8);}.cls-17{isolation:isolate;}.cls-18{fill:url(#linear-gradient-9);}.cls-19{mask:url(#mask-9);}.cls-20,.cls-21,.cls-23,.cls-49,.cls-56,.cls-58,.cls-60,.cls-61{opacity:0.5;}.cls-20,.cls-49,.cls-56,.cls-58,.cls-60,.cls-61{mix-blend-mode:screen;}.cls-20{fill:url(#linear-gradient-10);}.cls-21,.cls-26{fill:#020202;}.cls-22{fill:url(#linear-gradient-11);}.cls-24{fill:#221f1f;}.cls-25{fill:url(#linear-gradient-12);}.cls-27{fill:url(#linear-gradient-13);}.cls-28{fill:url(#linear-gradient-14);}.cls-29{fill:url(#linear-gradient-15);}.cls-30{fill:url(#linear-gradient-16);}.cls-31{fill:url(#linear-gradient-17);}.cls-32{fill:url(#linear-gradient-18);}.cls-33{fill:url(#linear-gradient-19);}.cls-34{fill:url(#linear-gradient-20);}.cls-35{fill:url(#linear-gradient-21);}.cls-36{fill:url(#linear-gradient-22);}.cls-37{fill:url(#linear-gradient-23);}.cls-38{fill:url(#linear-gradient-24);}.cls-39{fill:url(#linear-gradient-25);}.cls-40{fill:url(#linear-gradient-26);}.cls-41{fill:url(#linear-gradient-27);}.cls-42{fill:url(#linear-gradient-28);}.cls-43{fill:url(#linear-gradient-29);}.cls-44{fill:url(#linear-gradient-30);}.cls-45{fill:url(#linear-gradient-31);}.cls-46{fill:url(#linear-gradient-32);}.cls-47{fill:url(#linear-gradient-33);}.cls-48{mask:url(#mask-10);}.cls-49{fill:url(#linear-gradient-34);}.cls-50{mask:url(#mask-11);}.cls-51{fill:url(#linear-gradient-35);}.cls-52{mask:url(#mask-12);}.cls-53{fill:url(#linear-gradient-36);}.cls-54{fill:url(#linear-gradient-37);}.cls-55{mask:url(#mask-13);}.cls-56{fill:url(#linear-gradient-38);}.cls-57{mask:url(#mask-14);}.cls-58{fill:url(#linear-gradient-39);}.cls-59{mask:url(#mask-15);}.cls-60{fill:url(#linear-gradient-40);}.cls-62{mask:url(#mask-16);}.cls-63{fill:url(#linear-gradient-41);}.cls-64{filter:url(#luminosity-noclip-8);}.cls-65{filter:url(#luminosity-noclip-7);}.cls-66{filter:url(#luminosity-noclip-6);}.cls-67{filter:url(#luminosity-noclip-5);}.cls-68{filter:url(#luminosity-noclip-4);}.cls-69{filter:url(#luminosity-noclip-3);}.cls-70{filter:url(#luminosity-noclip-2);}.cls-71{filter:url(#luminosity-noclip);}</style><filter id="luminosity-noclip" x="2.1" y="-8169.04" width="1.31" height="32766" filterUnits="userSpaceOnUse" color-interpolation-filters="sRGB"><feFlood flood-color="#fff" result="bg"/><feBlend in="SourceGraphic" in2="bg"/></filter><mask id="mask" x="2.1" y="-8169.04" width="1.31" height="32766" maskUnits="userSpaceOnUse"><g class="cls-71"/></mask><linearGradient id="linear-gradient" x1="2.75" y1="10.55" x2="2.75" y2="12.17" gradientUnits="userSpaceOnUse"><stop offset="0.1" stop-color="#fff"/><stop offset="0.44" stop-color="#9a9a9a"/><stop offset="0.93"/></linearGradient><filter id="luminosity-noclip-2" x="5.1" y="-8169.04" width="2.42" height="32766" filterUnits="userSpaceOnUse" color-interpolation-filters="sRGB"><feFlood flood-color="#fff" result="bg"/><feBlend in="SourceGraphic" in2="bg"/></filter><mask id="mask-2" x="5.1" y="-8169.04" width="2.42" height="32766" maskUnits="userSpaceOnUse"><g class="cls-70"/></mask><linearGradient id="linear-gradient-2" x1="5.52" y1="2.12" x2="7.75" y2="4.88" gradientUnits="userSpaceOnUse"><stop offset="0.1" stop-color="#fff"/><stop offset="0.11" stop-color="#fafafa"/><stop offset="0.25" stop-color="#b9b9b9"/><stop offset="0.38" stop-color="gray"/><stop offset="0.51" stop-color="#525252"/><stop offset="0.63" stop-color="#2f2f2f"/><stop offset="0.74" stop-color="#151515"/><stop offset="0.84" stop-color="#050505"/><stop offset="0.93"/></linearGradient><filter id="luminosity-noclip-3" x="0" y="-8169.04" width="5.06" height="32766" filterUnits="userSpaceOnUse" color-interpolation-filters="sRGB"><feFlood flood-color="#fff" result="bg"/><feBlend in="SourceGraphic" in2="bg"/></filter><mask id="mask-3" x="0" y="-8169.04" width="5.06" height="32766" maskUnits="userSpaceOnUse"><g class="cls-69"/></mask><linearGradient id="linear-gradient-3" x1="2.2" y1="2.66" x2="3.78" y2="4.24" xlink:href="#linear-gradient"/><filter id="luminosity-noclip-4" x="1.53" y="-8169.04" width="1.67" height="32766" filterUnits="userSpaceOnUse" color-interpolation-filters="sRGB"><feFlood flood-color="#fff" result="bg"/><feBlend in="SourceGraphic" in2="bg"/></filter><mask id="mask-4" x="1.53" y="-8169.04" width="1.67" height="32766" maskUnits="userSpaceOnUse"><g class="cls-68"/></mask><linearGradient id="linear-gradient-4" x1="2.34" y1="13.57" x2="2.4" y2="11.41" gradientUnits="userSpaceOnUse"><stop offset="0.08" stop-color="#fff"/><stop offset="0.15" stop-color="#dbdbdb"/><stop offset="0.27" stop-color="#9a9a9a"/><stop offset="0.39" stop-color="#636363"/><stop offset="0.5" stop-color="#383838"/><stop offset="0.6" stop-color="#191919"/><stop offset="0.68" stop-color="#070707"/><stop offset="0.74"/></linearGradient><filter id="luminosity-noclip-5" x="2.42" y="-8169.04" width="3.71" height="32766" filterUnits="userSpaceOnUse" color-interpolation-filters="sRGB"><feFlood flood-color="#fff" result="bg"/><feBlend in="SourceGraphic" in2="bg"/></filter><mask id="mask-5" x="2.42" y="-8169.04" width="3.71" height="32766" maskUnits="userSpaceOnUse"><g class="cls-67"/></mask><linearGradient id="linear-gradient-5" x1="4.27" y1="4.55" x2="4.27" y2="9.77" xlink:href="#linear-gradient"/><filter id="luminosity-noclip-6" x="0" y="-8169.04" width="6.27" height="32766" filterUnits="userSpaceOnUse" color-interpolation-filters="sRGB"><feFlood flood-color="#fff" result="bg"/><feBlend in="SourceGraphic" in2="bg"/></filter><mask id="mask-6" x="0" y="-8169.04" width="6.27" height="32766" maskUnits="userSpaceOnUse"><g class="cls-66"/></mask><linearGradient id="linear-gradient-6" x1="-0.87" y1="6.41" x2="6.06" y2="6.41" gradientUnits="userSpaceOnUse"><stop offset="0"/><stop offset="0.02" stop-color="#0d0d0d"/><stop offset="0.14" stop-color="#555"/><stop offset="0.26" stop-color="#929292"/><stop offset="0.36" stop-color="#c1c1c1"/><stop offset="0.45" stop-color="#e3e3e3"/><stop offset="0.53" stop-color="#f8f8f8"/><stop offset="0.58" stop-color="#fff"/><stop offset="0.85" stop-color="#fff"/></linearGradient><filter id="luminosity-noclip-7" x="2.16" y="-8169.04" width="6.79" height="32766" filterUnits="userSpaceOnUse" color-interpolation-filters="sRGB"><feFlood flood-color="#fff" result="bg"/><feBlend in="SourceGraphic" in2="bg"/></filter><mask id="mask-7" x="2.16" y="-8169.04" width="6.79" height="32766" maskUnits="userSpaceOnUse"><g class="cls-65"/></mask><linearGradient id="linear-gradient-7" x1="5.56" y1="-0.24" x2="5.56" y2="9.84" gradientUnits="userSpaceOnUse"><stop offset="0"/><stop offset="0.02" stop-color="#0d0d0d"/><stop offset="0.11" stop-color="#555"/><stop offset="0.2" stop-color="#929292"/><stop offset="0.28" stop-color="#c1c1c1"/><stop offset="0.34" stop-color="#e3e3e3"/><stop offset="0.4" stop-color="#f8f8f8"/><stop offset="0.44" stop-color="#fff"/><stop offset="0.85" stop-color="#fff"/></linearGradient><filter id="luminosity-noclip-8" x="3.58" y="-8169.04" width="1.58" height="32766" filterUnits="userSpaceOnUse" color-interpolation-filters="sRGB"><feFlood flood-color="#fff" result="bg"/><feBlend in="SourceGraphic" in2="bg"/></filter><mask id="mask-8" x="3.58" y="-8169.04" width="1.58" height="32766" maskUnits="userSpaceOnUse"><g class="cls-64"/></mask><linearGradient id="linear-gradient-8" x1="4.37" y1="2.04" x2="4.37" y2="4.73" xlink:href="#linear-gradient"/><linearGradient id="linear-gradient-9" x1="1.81" y1="11.19" x2="7.23" y2="11.19" gradientUnits="userSpaceOnUse"><stop offset="0" stop-color="#a4a6a9"/><stop offset="0.03" stop-color="#939598"/><stop offset="0.11" stop-color="#717375"/><stop offset="0.18" stop-color="#585a5b"/><stop offset="0.24" stop-color="#484a4b"/><stop offset="0.29" stop-color="#434546"/><stop offset="0.45" stop-color="#323232"/><stop offset="0.64" stop-color="#221f1f"/></linearGradient><filter id="luminosity-noclip-9" x="2.1" y="10.42" width="1.31" height="1.54" filterUnits="userSpaceOnUse" color-interpolation-filters="sRGB"><feFlood flood-color="#fff" result="bg"/><feBlend in="SourceGraphic" in2="bg"/></filter><mask id="mask-9" x="2.1" y="10.42" width="1.31" height="1.54" maskUnits="userSpaceOnUse"><g class="cls-1"><path class="cls-2" d="M2.88,12H3.4s0-.28,0-.31a.71.71,0,0,0-.09-.38c-.07-.12-.18-.19-.25-.31A.61.61,0,0,1,3,10.52s0-.09.07-.09h-1a1.5,1.5,0,0,0,0,.3.63.63,0,0,0,.41.47.61.61,0,0,1,.33.42S3,12,2.88,12Z"/></g></mask><linearGradient id="linear-gradient-10" x1="2.75" y1="10.55" x2="2.75" y2="12.17" gradientUnits="userSpaceOnUse"><stop offset="0.1" stop-color="#fff"/><stop offset="0.93" stop-color="#fff"/></linearGradient><linearGradient id="linear-gradient-11" x1="1.02" y1="12.09" x2="5.29" y2="12.09" gradientUnits="userSpaceOnUse"><stop offset="0" stop-color="#a4a6a9"/><stop offset="0.04" stop-color="#939598"/><stop offset="0.15" stop-color="#717375"/><stop offset="0.26" stop-color="#585a5b"/><stop offset="0.35" stop-color="#484a4b"/><stop offset="0.42" stop-color="#434546"/><stop offset="0.77" stop-color="#292727"/><stop offset="0.85" stop-color="#221f1f"/></linearGradient><linearGradient id="linear-gradient-12" x1="0.96" y1="12.86" x2="8.24" y2="12.86" xlink:href="#linear-gradient-11"/><linearGradient id="linear-gradient-13" x1="1.91" y1="0.97" x2="2.66" y2="1.89" gradientUnits="userSpaceOnUse"><stop offset="0.09" stop-color="#a4a6a9"/><stop offset="0.12" stop-color="#9fa1a4"/><stop offset="0.72" stop-color="#464445"/><stop offset="0.99" stop-color="#221f1f"/></linearGradient><linearGradient id="linear-gradient-14" x1="2.51" y1="0.71" x2="2.98" y2="1.69" xlink:href="#linear-gradient-13"/><linearGradient id="linear-gradient-15" x1="3.06" y1="0.45" x2="3.53" y2="1.43" xlink:href="#linear-gradient-13"/><linearGradient id="linear-gradient-16" x1="3.59" y1="0.19" x2="4.06" y2="1.18" xlink:href="#linear-gradient-13"/><linearGradient id="linear-gradient-17" x1="4.59" y1="0.1" x2="4.44" y2="1.28" xlink:href="#linear-gradient-13"/><linearGradient id="linear-gradient-18" x1="6.22" y1="0.37" x2="5.83" y2="1.59" gradientUnits="userSpaceOnUse"><stop offset="0.09" stop-color="#a4a6a9"/><stop offset="0.34" stop-color="#686a6c"/><stop offset="0.52" stop-color="#434546"/><stop offset="0.79" stop-color="#292727"/><stop offset="0.85" stop-color="#221f1f"/></linearGradient><linearGradient id="linear-gradient-19" x1="7.04" y1="0.78" x2="6.33" y2="1.79" xlink:href="#linear-gradient-18"/><linearGradient id="linear-gradient-20" x1="7.77" y1="1.3" x2="7.07" y2="2.31" xlink:href="#linear-gradient-18"/><linearGradient id="linear-gradient-21" x1="8.51" y1="2.07" x2="7.39" y2="2.81" xlink:href="#linear-gradient-18"/><linearGradient id="linear-gradient-22" x1="8.99" y1="2.8" x2="7.87" y2="3.54" xlink:href="#linear-gradient-18"/><linearGradient id="linear-gradient-23" x1="9.85" y1="4.09" x2="8.72" y2="4.83" xlink:href="#linear-gradient-18"/><linearGradient id="linear-gradient-24" x1="9.99" y1="5.27" x2="8.63" y2="5.58" xlink:href="#linear-gradient-18"/><linearGradient id="linear-gradient-25" x1="9.83" y1="6.32" x2="8.36" y2="5.93" xlink:href="#linear-gradient-18"/><linearGradient id="linear-gradient-26" x1="8.62" y1="7" x2="7.69" y2="6.38" xlink:href="#linear-gradient-18"/><linearGradient id="linear-gradient-27" x1="7.68" y1="7.64" x2="6.91" y2="6.83" xlink:href="#linear-gradient-18"/><linearGradient id="linear-gradient-28" x1="7.49" y1="8.29" x2="5.99" y2="7.93" xlink:href="#linear-gradient-18"/><linearGradient id="linear-gradient-29" x1="7.6" y1="8.39" x2="6.27" y2="9.15" xlink:href="#linear-gradient-18"/><linearGradient id="linear-gradient-30" x1="8.12" y1="9.31" x2="6.79" y2="10.07" xlink:href="#linear-gradient-18"/><linearGradient id="linear-gradient-31" x1="9.41" y1="3.43" x2="8.29" y2="4.17" xlink:href="#linear-gradient-18"/><linearGradient id="linear-gradient-32" x1="5.44" y1="0.21" x2="5.3" y2="1.39" xlink:href="#linear-gradient-13"/><linearGradient id="linear-gradient-33" x1="3.14" y1="2.86" x2="6.65" y2="9.56" xlink:href="#linear-gradient-18"/><mask id="mask-10" x="2.42" y="4.57" width="3.71" height="5.1" maskUnits="userSpaceOnUse"><g class="cls-9"><path class="cls-10" d="M4,7.31c.23-.24.47-.46.67-.68A7.15,7.15,0,0,0,6.13,4.57,4.88,4.88,0,0,1,5,5.78c-.22.22-.47.42-.71.62L3.6,7A8.09,8.09,0,0,0,3,7.54a2.27,2.27,0,0,0-.49.66.91.91,0,0,0,.08.89c.13.21.32.37.44.58a2.63,2.63,0,0,1,.11-1.12A3.67,3.67,0,0,1,4,7.31Z"/></g></mask><linearGradient id="linear-gradient-34" x1="4.27" y1="4.55" x2="4.27" y2="9.77" xlink:href="#linear-gradient-10"/><filter id="luminosity-noclip-10" x="0" y="2.57" width="6.27" height="7.67" filterUnits="userSpaceOnUse" color-interpolation-filters="sRGB"><feFlood flood-color="#fff" result="bg"/><feBlend in="SourceGraphic" in2="bg"/></filter><mask id="mask-11" x="0" y="2.57" width="6.27" height="7.67" maskUnits="userSpaceOnUse"><g class="cls-11"><path class="cls-12" d="M3.41,10.24A1.74,1.74,0,0,1,2.85,10c-.17-.12-.22-.35-.33-.51a2.08,2.08,0,0,0-.27-.32A2.5,2.5,0,0,1,2,9c-.11-.15,0-.38.06-.52a7.33,7.33,0,0,1,.45-.64A4.26,4.26,0,0,1,3,7.17a2.61,2.61,0,0,1,.23-.24c.16-.17.33-.33.5-.49.43-.38.88-.73,1.32-1.1.21-.18.43-.37.63-.56s.22-.21.32-.32.23-.23.26-.37-.1-.24-.19-.33l-.3-.29a2.54,2.54,0,0,0-.36-.29l-.17-.11v0a1.67,1.67,0,0,1,.36.7.58.58,0,0,1-.32.6,1.25,1.25,0,0,1-.73.17,7.43,7.43,0,0,0-.94-.07c-.08,0-.36,0-.32-.13a.76.76,0,0,1,.15-.26l.25-.33L4,3.44c-.25.14-.5.27-.73.43a2,2,0,0,0-.46.35,1.11,1.11,0,0,0-.23.46c-.1.36-.16.73-.24,1.09a1,1,0,0,1-.13.42.35.35,0,0,1-.29.1s0,0,0,0S2,6.09,2.05,6s-.14-.24-.25-.29-.25.09-.37.18A.82.82,0,0,1,1.07,6a0,0,0,0,1,0,0A.48.48,0,0,0,1,5.78,1.19,1.19,0,0,0,.7,5.65C.58,5.59.46,5.52.45,5.36a1.43,1.43,0,0,1,.44-.92,9.26,9.26,0,0,1,1-1A3.9,3.9,0,0,1,2.38,3a5.4,5.4,0,0,0,.47-.3.44.44,0,0,0,.09-.11.52.52,0,0,0-.28,0H2.58A8.93,8.93,0,0,0,.43,5c-.45.06-.49.23-.38.66a2.17,2.17,0,0,0,.4.77c-.19.4.49.13.49.13-.06.16,0,.37.09.35s1.58-.32,1.62-.36a9.73,9.73,0,0,0,.21-1.08,2.8,2.8,0,0,1,1.8-.19s-.82.87-1.86,1.91A3.16,3.16,0,0,0,1.7,8.94c.74.72.54,1.29.54,1.29Z"/></g></mask><linearGradient id="linear-gradient-35" x1="-0.87" y1="6.41" x2="6.06" y2="6.41" gradientUnits="userSpaceOnUse"><stop offset="0" stop-color="#a4a6a9"/><stop offset="0.16" stop-color="#808284"/><stop offset="0.34" stop-color="#5f6162"/><stop offset="0.48" stop-color="#4a4c4d"/><stop offset="0.58" stop-color="#434546"/><stop offset="0.8" stop-color="#292727"/><stop offset="0.85" stop-color="#221f1f"/></linearGradient><filter id="luminosity-noclip-11" x="2.16" y="0" width="6.79" height="10.27" filterUnits="userSpaceOnUse" color-interpolation-filters="sRGB"><feFlood flood-color="#fff" result="bg"/><feBlend in="SourceGraphic" in2="bg"/></filter><mask id="mask-12" x="2.16" y="0" width="6.79" height="10.27" maskUnits="userSpaceOnUse"><g class="cls-13"><path class="cls-14" d="M6.12,8.55C6.56,6.75,9,5.8,9,5.8,8.49,1.87,5.42,1.37,5.42,1.37A7.83,7.83,0,0,0,5.09,0,6.57,6.57,0,0,0,3.78,1.08a.17.17,0,0,0,0,.25,5.14,5.14,0,0,0-1.62.92c0,.06.12.14.26.21-.13-.22.44-.56.61-.62a1.31,1.31,0,0,1,1.08,0v0A2,2,0,0,1,4,1.37a1,1,0,0,1,.3-.71A2.4,2.4,0,0,1,5,.09s0,0,0,0a1.55,1.55,0,0,1,.08.64,2,2,0,0,1-.1.59A1.76,1.76,0,0,1,4.56,2l0,.07h0l.1,0L4.8,2h.31a2.13,2.13,0,0,1,.6.16,2.47,2.47,0,0,1,1,.79,4.74,4.74,0,0,1,.74,1.45L7.65,5a.72.72,0,0,1,.07.38s0,0,0,0-.15.11-.23.15l-.42.27a8,8,0,0,0-.8.61,5.47,5.47,0,0,0-.66.7c-.2.26-.39.52-.56.79,0,0-.28.43-.22.46a.84.84,0,0,1,.24.22,3.36,3.36,0,0,1,.48.74,2.6,2.6,0,0,1,.19.74.76.76,0,0,1,0,.15h1.5v-.14A5.58,5.58,0,0,0,6.12,8.55Z"/></g></mask><linearGradient id="linear-gradient-36" x1="5.56" y1="-0.24" x2="5.56" y2="9.84" gradientUnits="userSpaceOnUse"><stop offset="0" stop-color="#a4a6a9"/><stop offset="0.12" stop-color="#808284"/><stop offset="0.26" stop-color="#5f6162"/><stop offset="0.37" stop-color="#4a4c4d"/><stop offset="0.44" stop-color="#434546"/><stop offset="0.78" stop-color="#292727"/><stop offset="0.85" stop-color="#221f1f"/></linearGradient><linearGradient id="linear-gradient-37" x1="0.79" y1="10.35" x2="6.52" y2="10.35" gradientUnits="userSpaceOnUse"><stop offset="0" stop-color="#a4a6a9"/><stop offset="0.13" stop-color="#7c7e80"/><stop offset="0.3" stop-color="#505152"/><stop offset="0.46" stop-color="#2d2e2f"/><stop offset="0.61" stop-color="#141515"/><stop offset="0.75" stop-color="#050505"/><stop offset="0.85"/></linearGradient><mask id="mask-13" x="3.58" y="2.15" width="1.58" height="2.18" maskUnits="userSpaceOnUse"><g class="cls-15"><path class="cls-16" d="M4.05,3.25c.16.11,0,.34-.08.45A3.65,3.65,0,0,1,3.73,4c0,.06-.15.16-.15.24s.22,0,.24,0a.62.62,0,0,1,.27,0,1.32,1.32,0,0,0,.81,0c.54-.28.1-1-.13-1.32a3.36,3.36,0,0,1-.43-.79.19.19,0,0,1,0,.08,1.24,1.24,0,0,1-.11.43,1,1,0,0,1-.31.43.65.65,0,0,1-.15.1A.6.6,0,0,1,4.05,3.25Z"/></g></mask><linearGradient id="linear-gradient-38" x1="4.37" y1="2.04" x2="4.37" y2="4.73" xlink:href="#linear-gradient-10"/><mask id="mask-14" x="5.1" y="2.05" width="2.42" height="3.05" maskUnits="userSpaceOnUse"><g class="cls-3"><path class="cls-4" d="M7.53,5.1a6.15,6.15,0,0,0-1-2.18,2.1,2.1,0,0,0-1.1-.8,2.79,2.79,0,0,0-.38-.07A5.12,5.12,0,0,1,7.53,5.1Z"/></g></mask><linearGradient id="linear-gradient-39" x1="5.52" y1="2.12" x2="7.75" y2="4.88" xlink:href="#linear-gradient-10"/><filter id="luminosity-noclip-12" x="0" y="0.02" width="5.06" height="6.25" filterUnits="userSpaceOnUse" color-interpolation-filters="sRGB"><feFlood flood-color="#fff" result="bg"/><feBlend in="SourceGraphic" in2="bg"/></filter><mask id="mask-15" x="0" y="0.02" width="5.06" height="6.25" maskUnits="userSpaceOnUse"><g class="cls-5"><path class="cls-6" d="M4.84.16h0L4.68.27A7.24,7.24,0,0,0,3.85,1c-.17.19-.12.23-.06.32A4.33,4.33,0,0,0,2.56,2a3.22,3.22,0,0,0-.39.3h0v0H2.3a2.47,2.47,0,0,0,.34.15A8.77,8.77,0,0,0,.43,5h0c-.45.06-.49.23-.38.66a1.8,1.8,0,0,0,.27.59,1.83,1.83,0,0,1-.07-.46c0-.14,0-.36.2-.41a.58.58,0,0,1,.32,0,1.57,1.57,0,0,0,.43,0c1,0,1.08-1.18,1.29-1.89a1.68,1.68,0,0,1,.58-1,1.25,1.25,0,0,1,.72-.25c.21,0,.55,0,.51-.31s-.34-.66,0-1,.4-.28.54-.48A2.37,2.37,0,0,0,5.06,0,1.64,1.64,0,0,0,4.84.16Z"/></g></mask><linearGradient id="linear-gradient-40" x1="2.2" y1="2.66" x2="3.78" y2="4.24" xlink:href="#linear-gradient-10"/><filter id="luminosity-noclip-13" x="1.53" y="12.26" width="1.67" height="1.21" filterUnits="userSpaceOnUse" color-interpolation-filters="sRGB"><feFlood flood-color="#fff" result="bg"/><feBlend in="SourceGraphic" in2="bg"/></filter><mask id="mask-16" x="1.53" y="12.26" width="1.67" height="1.21" maskUnits="userSpaceOnUse"><g class="cls-7"><path class="cls-8" d="M2.41,12.26a1.47,1.47,0,0,0-.88,1.21H2.85a1.81,1.81,0,0,1,.34-1.21Z"/></g></mask><linearGradient id="linear-gradient-41" x1="2.34" y1="13.57" x2="2.4" y2="11.41" gradientUnits="userSpaceOnUse"><stop offset="0.08" stop-color="#fff"/><stop offset="0.74" stop-color="#fff"/></linearGradient></defs><title>Asset 10</title><g class="cls-17"><g id="Layer_2" data-name="Layer 2"><g id="Layer_1-2" data-name="Layer 1"><path class="cls-18" d="M4.6,10.39l-2.7-.05v.44a.63.63,0,0,0,.37.43.33.33,0,0,1,.15.51c-.13.14-.18.16-.18.32H7c0-.16,0-.18-.17-.32a.33.33,0,0,1,.15-.51.63.63,0,0,0,.36-.43v-.44Z"/><g class="cls-19"><path class="cls-20" d="M2.88,12H3.4s0-.28,0-.31a.71.71,0,0,0-.09-.38c-.07-.12-.18-.19-.25-.31A.61.61,0,0,1,3,10.52s0-.09.07-.09h-1a1.5,1.5,0,0,0,0,.3.63.63,0,0,0,.41.47.61.61,0,0,1,.33.42S3,12,2.88,12Z"/></g><path class="cls-21" d="M5.8,10.37c-.21.44-.26.71-.77.83a14.69,14.69,0,0,1-1.91,0c-.41,0-.94.07-1.18-.34a.71.71,0,0,0,.33.31.33.33,0,0,1,.15.51c-.13.14-.18.16-.18.32H7c0-.16,0-.18-.17-.32a.33.33,0,0,1,.15-.51.63.63,0,0,0,.36-.43v-.44Z"/><path class="cls-22" d="M7.33,12.18a.29.29,0,0,0-.28-.29H2.15a.28.28,0,0,0-.28.29.41.41,0,0,0,0,.11H7.32A.34.34,0,0,0,7.33,12.18Z"/><g class="cls-23"><path class="cls-24" d="M7.33,12.14H1.87v0a.41.41,0,0,0,0,.11H7.32a.34.34,0,0,0,0-.1Z"/></g><path class="cls-25" d="M8.24,13.46a1.1,1.1,0,0,0-.93-1.2H1.89A1.09,1.09,0,0,0,1,13.46H8.24Z"/><path class="cls-26" d="M7.31,12.26H6.1a4.1,4.1,0,0,1-1.74.9,8.92,8.92,0,0,1-1.47.31H8.24A1.1,1.1,0,0,0,7.31,12.26Z"/><path d="M2.65,2.06s-.53-.6-.74-.81S2,.9,2.45.72A7.42,7.42,0,0,1,3.66.33a5.2,5.2,0,0,1,2-.12A3.78,3.78,0,0,1,7.37,1,7,7,0,0,1,9.44,3.55,7.32,7.32,0,0,1,10,5.12c.18.88.29,1,0,1.17S9.1,6.72,8.68,7a5.6,5.6,0,0,0-1.17.82c-.34.36.22,1,.44,1.24A.26.26,0,0,1,8,9.4c-.08.1-.19.2-.28.3s-.43.35-.43.52-.49-.32-.49-.29-1-1.2-1-1.2a3.4,3.4,0,0,1,.84-1.56c.71-.78,2-1.34,2-1.54A4.1,4.1,0,0,0,7.1,2.45c-1.47-1.1-2-.61-2.13-1.12S3,1.92,2.65,2.06Z"/><path class="cls-27" d="M2.43,1.33c-.1-.11-.17-.25-.28-.35A.16.16,0,0,0,2,.93c-.16.1-.22.2-.09.32s.74.81.74.81l.24-.12Z"/><path class="cls-28" d="M3,1.27c-.07-.15-.14-.3-.2-.45S2.73.63,2.62.65L2.45.72h0L2.4.76a.45.45,0,0,0,.06.29,2.75,2.75,0,0,0,.15.36l.11.19a1.6,1.6,0,0,1,.21.32l.31-.16A2.26,2.26,0,0,1,3,1.27Z"/><path class="cls-29" d="M3.48.75c0-.11-.06-.36-.23-.31A1.27,1.27,0,0,1,3.07.5.16.16,0,0,0,3,.59a.67.67,0,0,0,0,.2,2.92,2.92,0,0,0,.13.42,2.75,2.75,0,0,0,.23.49l.35-.16C3.63,1.27,3.55,1,3.48.75Z"/><path class="cls-30" d="M4.07.84A1.51,1.51,0,0,0,4,.36.1.1,0,0,0,4,.27l-.2,0a.24.24,0,0,0-.13.2,1.35,1.35,0,0,0,.08.4c0,.19.09.38.14.56l.24-.1C4.08,1.19,4.08,1,4.07.84Z"/><path class="cls-31" d="M4.73,1.2c0-.12,0-.24,0-.36s0-.29,0-.44,0-.19-.08-.23-.26,0-.39,0a.41.41,0,0,0-.07.22c0,.15,0,.3,0,.45a2.87,2.87,0,0,0,0,.41A1.23,1.23,0,0,1,4.73,1.2Z"/><path class="cls-32" d="M6.29,1c.08-.18.23-.46,0-.62l-.06,0L6.1.31H6c-.1,0-.15.13-.17.23s-.08.36-.12.54-.07.41-.1.61l.32.1Z"/><path class="cls-33" d="M7,1.37c.07-.11.28-.31.19-.46l0-.06L6.87.67h0c-.13,0-.2.06-.25.17l-.24.5c-.08.18-.16.35-.25.53a2.25,2.25,0,0,1,.44.22Z"/><path class="cls-34" d="M7.21,2.53l.32-.37.33-.37c.07-.07.14-.17.07-.27l0-.05L7.6,1.2h0a.26.26,0,0,0-.24.1c-.1.11-.18.24-.27.36s-.19.29-.28.43a.61.61,0,0,0-.07.1,3.62,3.62,0,0,1,.37.26Z"/><path class="cls-35" d="M7.77,3.09c.15-.13.31-.24.46-.38a1.33,1.33,0,0,0,.35-.36.19.19,0,0,0,0-.15l-.32-.37h0c-.12-.07-.2,0-.28.1l-.4.44a3.11,3.11,0,0,0-.23.28A4.37,4.37,0,0,1,7.77,3.09Z"/><path class="cls-36" d="M8.64,3.34a3.33,3.33,0,0,0,.28-.25A.28.28,0,0,0,9,2.92a.25.25,0,0,0,0-.17.22.22,0,0,0-.12-.09.29.29,0,0,0-.22,0,2.62,2.62,0,0,0-.34.24,4.27,4.27,0,0,0-.38.36,4,4,0,0,1,.24.38A4.14,4.14,0,0,0,8.64,3.34Z"/><path class="cls-37" d="M8.77,5a3.31,3.31,0,0,0,.42-.12l.32-.14c.08,0,.22-.09.24-.19a1,1,0,0,0-.05-.33c0-.05,0-.15-.08-.17h0a.9.9,0,0,0-.45.13l-.43.21-.21.12A4.56,4.56,0,0,1,8.65,5Z"/><path class="cls-38" d="M8.56,5.76a1.84,1.84,0,0,0,.4,0l.47,0,.41,0A.39.39,0,0,0,10,5.66a.18.18,0,0,0,.07-.09L10,5.12c0-.06,0-.12,0-.18h0A.86.86,0,0,0,9.44,5l-.76.26a.91.91,0,0,1,0,.37A.3.3,0,0,1,8.56,5.76Z"/><path class="cls-39" d="M9.64,5.94,9,5.92a1.39,1.39,0,0,1-.5-.09h0l-.37.24c.27.13.56.23.84.36a.91.91,0,0,0,.54.09l.09,0,.39-.2.07,0a.25.25,0,0,0,0-.08C10,5.94,9.81,6,9.64,5.94Z"/><path class="cls-40" d="M8.84,6.68a.84.84,0,0,0-.34-.24,4.51,4.51,0,0,0-.65-.22l-.48.33,0,0a4,4,0,0,1,.31.27,1,1,0,0,0,.41.29.53.53,0,0,0,.28,0L8.68,7l.17-.1A.16.16,0,0,0,8.84,6.68Z"/><path class="cls-41" d="M6.78,7.35c.08.09.17.17.25.25a1.44,1.44,0,0,0,.32.23l.12,0,0-.06A2.8,2.8,0,0,1,8,7.38l0-.06a.64.64,0,0,0-.22-.24c-.18-.15-.38-.27-.56-.4a3.7,3.7,0,0,0-.55.49l0,0Z"/><path class="cls-42" d="M6,8.43l.24,0,.51,0h.47a.28.28,0,0,0,.26-.1.66.66,0,0,1-.06-.2A.62.62,0,0,0,7.23,8l-.36-.22-.41-.24-.08,0a3.68,3.68,0,0,0-.49.93Z"/><path class="cls-43" d="M6.71,9.57a2.88,2.88,0,0,0,.46-.24l.39-.22c.12-.08.22-.18.21-.31l-.13-.17a.46.46,0,0,0-.26,0c-.2,0-.39,0-.59,0s-.65.07-1,.1h0s.42.55.71.9A1.39,1.39,0,0,0,6.71,9.57Z"/><path class="cls-44" d="M7.72,9.12l-.4.22c-.23.14-.46.29-.7.42l.15.17s.49.46.49.29.32-.41.43-.52.2-.2.28-.3a.23.23,0,0,0,0-.3C7.91,9,7.81,9.07,7.72,9.12Z"/><path class="cls-45" d="M8.66,4.22,9.07,4c.12,0,.33-.12.39-.24a.22.22,0,0,0,0-.16l0-.07-.09-.17-.06-.09-.06,0c-.1,0-.19,0-.28,0l-.44.32-.27.22a2.89,2.89,0,0,1,.21.49Z"/><path class="cls-46" d="M5.57.19l-.2,0H5.26l0,0a.5.5,0,0,0-.06.32c0,.19,0,.39,0,.59a3.67,3.67,0,0,0,0,.46l.27.07,0-.12c.06-.25.1-.5.14-.75a1.14,1.14,0,0,0,0-.53A.24.24,0,0,0,5.57.19Z"/><path class="cls-47" d="M2.24,10.23s.2-.57-.54-1.29A3.16,3.16,0,0,1,2.8,7.21c1-1,1.86-1.91,1.86-1.91a2.8,2.8,0,0,0-1.8.19,9.73,9.73,0,0,1-.21,1.08S1.18,6.92,1,6.93.88,6.74.94,6.58c0,0-.68.27-.49-.13a2.17,2.17,0,0,1-.4-.77C-.06,5.25,0,5.08.43,5A8.83,8.83,0,0,1,2.64,2.54s-.54-.19-.47-.29a5.14,5.14,0,0,1,1.62-.92.17.17,0,0,1,0-.25A6.57,6.57,0,0,1,5.09,0a7.83,7.83,0,0,1,.33,1.37S8.49,1.87,9,5.8c0,0-2.39,1-2.83,2.75a5.58,5.58,0,0,1,1.14,1.58v.14Z"/><g class="cls-48"><path class="cls-49" d="M4,7.31c.23-.24.47-.46.67-.68A7.15,7.15,0,0,0,6.13,4.57,4.88,4.88,0,0,1,5,5.78c-.22.22-.47.42-.71.62L3.6,7A8.09,8.09,0,0,0,3,7.54a2.27,2.27,0,0,0-.49.66.91.91,0,0,0,.08.89c.13.21.32.37.44.58a2.63,2.63,0,0,1,.11-1.12A3.67,3.67,0,0,1,4,7.31Z"/></g><g class="cls-50"><path class="cls-51" d="M3.41,10.24A1.74,1.74,0,0,1,2.85,10c-.17-.12-.22-.35-.33-.51a2.08,2.08,0,0,0-.27-.32A2.5,2.5,0,0,1,2,9c-.11-.15,0-.38.06-.52a7.33,7.33,0,0,1,.45-.64A4.26,4.26,0,0,1,3,7.17a2.61,2.61,0,0,1,.23-.24c.16-.17.33-.33.5-.49.43-.38.88-.73,1.32-1.1.21-.18.43-.37.63-.56s.22-.21.32-.32.23-.23.26-.37-.1-.24-.19-.33l-.3-.29a2.54,2.54,0,0,0-.36-.29l-.17-.11v0a1.67,1.67,0,0,1,.36.7.58.58,0,0,1-.32.6,1.25,1.25,0,0,1-.73.17,7.43,7.43,0,0,0-.94-.07c-.08,0-.36,0-.32-.13a.76.76,0,0,1,.15-.26l.25-.33L4,3.44c-.25.14-.5.27-.73.43a2,2,0,0,0-.46.35,1.11,1.11,0,0,0-.23.46c-.1.36-.16.73-.24,1.09a1,1,0,0,1-.13.42.35.35,0,0,1-.29.1s0,0,0,0S2,6.09,2.05,6s-.14-.24-.25-.29-.25.09-.37.18A.82.82,0,0,1,1.07,6a0,0,0,0,1,0,0A.48.48,0,0,0,1,5.78,1.19,1.19,0,0,0,.7,5.65C.58,5.59.46,5.52.45,5.36a1.43,1.43,0,0,1,.44-.92,9.26,9.26,0,0,1,1-1A3.9,3.9,0,0,1,2.38,3a5.4,5.4,0,0,0,.47-.3.44.44,0,0,0,.09-.11.52.52,0,0,0-.28,0H2.58A8.93,8.93,0,0,0,.43,5c-.45.06-.49.23-.38.66a2.17,2.17,0,0,0,.4.77c-.19.4.49.13.49.13-.06.16,0,.37.09.35s1.58-.32,1.62-.36a9.73,9.73,0,0,0,.21-1.08,2.8,2.8,0,0,1,1.8-.19s-.82.87-1.86,1.91A3.16,3.16,0,0,0,1.7,8.94c.74.72.54,1.29.54,1.29Z"/></g><g class="cls-52"><path class="cls-53" d="M6.12,8.55C6.56,6.75,9,5.8,9,5.8,8.49,1.87,5.42,1.37,5.42,1.37A7.83,7.83,0,0,0,5.09,0,6.57,6.57,0,0,0,3.78,1.08a.17.17,0,0,0,0,.25,5.14,5.14,0,0,0-1.62.92c0,.06.12.14.26.21-.13-.22.44-.56.61-.62a1.31,1.31,0,0,1,1.08,0v0A2,2,0,0,1,4,1.37a1,1,0,0,1,.3-.71A2.4,2.4,0,0,1,5,.09s0,0,0,0a1.55,1.55,0,0,1,.08.64,2,2,0,0,1-.1.59A1.76,1.76,0,0,1,4.56,2l0,.07h0l.1,0L4.8,2h.31a2.13,2.13,0,0,1,.6.16,2.47,2.47,0,0,1,1,.79,4.74,4.74,0,0,1,.74,1.45L7.65,5a.72.72,0,0,1,.07.38s0,0,0,0-.15.11-.23.15l-.42.27a8,8,0,0,0-.8.61,5.47,5.47,0,0,0-.66.7c-.2.26-.39.52-.56.79,0,0-.28.43-.22.46a.84.84,0,0,1,.24.22,3.36,3.36,0,0,1,.48.74,2.6,2.6,0,0,1,.19.74.76.76,0,0,1,0,.15h1.5v-.14A5.58,5.58,0,0,0,6.12,8.55Z"/></g><path d="M2.78,3.36a2,2,0,0,1,.06-.31A.57.57,0,0,1,3,2.84H2.9a1.31,1.31,0,0,1,.49-.19,1.19,1.19,0,0,1,.5.05h0a.24.24,0,0,0,.13,0,.91.91,0,0,1-.2.16c-.1.06-.15.17-.23.26a.36.36,0,0,1-.28.08l-.23,0a.44.44,0,0,0-.16,0C2.83,3.23,2.78,3.36,2.78,3.36Z"/><path d="M.43,5.57a.74.74,0,0,1,.19.34c0,.22.11.3.14.22S1,5.84.88,5.8.43,5.57.43,5.57Z"/><path d="M.94,6.58l0,0a.35.35,0,0,1,.08-.12.94.94,0,0,1,.14-.16l.09-.07.1-.06.12,0,.1,0L1.78,6l.06,0a.09.09,0,0,0,0-.06,0,0,0,0,0,0,0h0v0a.15.15,0,0,1,0,.06L1.8,6,1.71,6l-.09.05-.11,0-.11,0-.1,0-.09.07-.14.14L1,6.53Z"/><path d="M1.77,5.69A.55.55,0,0,1,2,5.75a.31.31,0,0,1,0,.11L2,5.83A.18.18,0,0,1,1.9,6a.18.18,0,0,0-.09-.16.18.18,0,0,1-.1-.14.14.14,0,0,0,.08,0Z"/><path d="M4.84.77s-.36.76-.43,1,0-.26-.19-.37.22-.19.46-.49S4.86.72,4.84.77Z"/><path d="M3.79,1.33l0,0a.43.43,0,0,1,0,.07L4,1.65l.07.11.06.1,0,0,0,0,0,0,0,0,0,0,0,0,0,0,0-.05a1,1,0,0,1-.08-.11l-.06-.12a.54.54,0,0,1,0-.11.24.24,0,0,0,0-.07Z"/><path d="M4.6,2l.15-.08.15-.09a1,1,0,0,0,.17-.1l.09-.05.07-.06.07-.06,0-.06a.21.21,0,0,0,0-.06s0,0,0-.05a0,0,0,0,1,0,0h0v0a.14.14,0,0,1,0,.06.09.09,0,0,1,0,.06l0,.07-.06.06-.16.13a1.51,1.51,0,0,1-.18.09L4.76,2,4.65,2Z"/><path class="cls-54" d="M7.26,10.58H1.93a.23.23,0,1,1,0-.45H7.26a.23.23,0,1,1,0,.45Z"/><path class="cls-26" d="M7.26,10.13h-3a.28.28,0,0,1,0,.45H7.26a.23.23,0,1,0,0-.45Z"/><g class="cls-55"><path class="cls-56" d="M4.05,3.25c.16.11,0,.34-.08.45A3.65,3.65,0,0,1,3.73,4c0,.06-.15.16-.15.24s.22,0,.24,0a.62.62,0,0,1,.27,0,1.32,1.32,0,0,0,.81,0c.54-.28.1-1-.13-1.32a3.36,3.36,0,0,1-.43-.79.19.19,0,0,1,0,.08,1.24,1.24,0,0,1-.11.43,1,1,0,0,1-.31.43.65.65,0,0,1-.15.1A.6.6,0,0,1,4.05,3.25Z"/></g><g class="cls-57"><path class="cls-58" d="M7.53,5.1a6.15,6.15,0,0,0-1-2.18,2.1,2.1,0,0,0-1.1-.8,2.79,2.79,0,0,0-.38-.07A5.12,5.12,0,0,1,7.53,5.1Z"/></g><g class="cls-59"><path class="cls-60" d="M4.84.16h0L4.68.27A7.24,7.24,0,0,0,3.85,1c-.17.19-.12.23-.06.32A4.33,4.33,0,0,0,2.56,2a3.22,3.22,0,0,0-.39.3h0v0H2.3a2.47,2.47,0,0,0,.34.15A8.77,8.77,0,0,0,.43,5h0c-.45.06-.49.23-.38.66a1.8,1.8,0,0,0,.27.59,1.83,1.83,0,0,1-.07-.46c0-.14,0-.36.2-.41a.58.58,0,0,1,.32,0,1.57,1.57,0,0,0,.43,0c1,0,1.08-1.18,1.29-1.89a1.68,1.68,0,0,1,.58-1,1.25,1.25,0,0,1,.72-.25c.21,0,.55,0,.51-.31s-.34-.66,0-1,.4-.28.54-.48A2.37,2.37,0,0,0,5.06,0,1.64,1.64,0,0,0,4.84.16Z"/></g><g class="cls-61"><g class="cls-62"><path class="cls-63" d="M2.41,12.26a1.47,1.47,0,0,0-.88,1.21H2.85a1.81,1.81,0,0,1,.34-1.21Z"/></g></g></g></g></g></svg>